ply
format ascii 1.0
element vertex 404
property float x
property float y
property float z
element face 483
property list uchar int vertex_indices
element cell 82
property list uchar int face_indices
end_header
0.393381524128 1.000000000000 1.812491676687
0.609957200614 1.000000000000 1.820146896002
0.730353344258 1.000000000000 1.600293909258
0.608892777533 1.000000000000 1.425470112417
0.374607142274 1.000000000000 1.435789051134
0.285506516520 1.000000000000 1.583370585147
0.287911698782 0.720414866381 1.597547972134
0.384853632756 0.722630769827 1.436834572590
0.734318711308 0.746906055832 1.600895342607
0.614718930058 0.662024033480 1.427037388129
0.586585783955 0.637923933011 1.428406547864
0.364709707199 0.641901592650 1.763209814586
0.390182566773 0.683213884275 1.815972840908
0.613206251419 0.692073373149 1.823755456314
0.642438341649 0.651937901910 1.771618981965
0.551451961643 0.582966101706 1.684316741346
0.338451069825 0.624812624052 2.006671838834
0.646784100100 0.615120158232 2.092391135232
0.709306046169 0.347007783820 1.782566977354
0.561194703707 0.388873128702 1.663517258309
0.331090303813 0.335975093973 1.749766808084
0.323731561292 0.343525112687 1.753332236934
0.309830772113 0.359931933518 2.036451361057
0.693030374476 0.289688890381 1.911869465335
0.655181519830 0.375474979883 2.128713683629
0.689746557396 0.620465255961 1.806936214318
0.670440107192 0.667889193248 1.916144329118
0.448017089953 0.218681183146 2.037469490840
0.553684131188 0.223698034920 2.042184872628
0.614857271865 0.332043887375 2.123849628459
0.399854659353 0.268198682264 2.074101531864
0.349854830565 0.664535439361 1.872906415389
0.352321122093 0.631675992726 1.767209042806
0.638462391076 0.617092861750 3.330111629874
0.276000198870 1.000000000000 3.277946489470
0.774057832830 1.000000000000 3.275090685928
0.696016869201 0.686167667532 3.225154215741
0.612821257235 1.000000000000 3.073199294948
0.421539318018 1.000000000000 3.076132522516
0.423018010875 0.716788172332 3.091617161472
0.593390518821 0.747400128689 3.087328408057
0.360185363944 0.656885984774 3.392432536348
0.293542485667 0.726267378343 3.270569402833
0.365258351911 0.659785377732 3.175239778849
0.423260133439 0.598734146447 3.299739093956
0.420083398371 1.000000000000 3.564583676648
0.604122775371 0.753160360620 3.547535980566
0.428755141349 0.751086640483 3.543392754923
0.653149476995 1.000000000000 3.569853282690
0.676845844859 1.000000000000 3.554245129216
0.658879190156 0.954456649862 3.566069681773
1.000000000000 -0.000000000000 3.276694927504
0.783611891754 -0.000000000000 3.280212648326
1.000000000000 -0.000000000000 3.547485148938
0.706222690632 -0.000000000000 3.538265260456
1.000000000000 0.361022432145 3.654936113199
0.690101833982 0.323043530504 3.633906643238
0.634636656330 0.381935686167 3.334134887430
0.698544106572 0.300039509213 3.215990785937
1.000000000000 0.504703467889 3.570858387453
0.787390884645 0.503151801153 3.542091787640
0.725307731516 0.505690194172 3.344677260195
0.659293156639 0.108408053521 3.569057873196
0.614030938528 0.252117155302 3.553361323088
0.688136863043 0.320616516817 3.633122623587
1.000000000000 0.492713689601 3.168961221800
1.000000000000 0.510647536715 3.195287833466
0.894619366220 0.509646030150 3.195714547514
0.908669673151 0.492619251893 3.170466585602
0.000000000000 1.000000000000 0.000000000000
-0.000000000000 0.569485066885 -0.000000000000
-0.000000000000 1.000000000000 0.344815970811
-0.000000000000 0.739563984395 0.345352792255
0.269832511939 0.705733866470 0.374455670979
0.270124446916 1.000000000000 0.373880528806
0.339544733799 0.653124467958 0.292896020488
0.196823144977 0.534353912105 -0.000000000000
0.484607086539 1.000000000000 0.122818674327
0.495195428797 0.775623486496 0.110602510452
0.498260055933 0.776535747882 -0.000000000000
0.488056460527 1.000000000000 -0.000000000000
1.000000000000 0.378406250819 0.652229953971
1.000000000000 0.240211487216 0.862336579933
1.000000000000 0.591388022752 1.053801878836
0.736924727821 0.593267154934 1.056845701893
0.723095450741 0.377902018317 1.051870681334
1.000000000000 0.379657690430 1.048755831732
0.695660324090 0.369907105402 0.659750828074
1.000000000000 0.710201840092 0.799294728546
0.706914141628 0.610005087632 0.655507378091
1.000000000000 0.596879958240 0.648617016574
0.670078403490 0.325267557671 0.982551836431
0.575653765456 0.415488698532 0.847135441119
0.652277352421 0.326976627817 0.724250976233
0.746775227861 0.236890540379 0.862891803010
0.651047783930 0.651104490392 0.935261842090
0.732371614250 0.715051154379 0.796098568629
0.673188851519 0.651709310083 0.709743834785
0.582345356854 0.578532482465 0.845718394950
-0.000000000000 0.380217603751 1.018486131594
0.429326374086 -0.000000000000 1.106327012946
0.273283689609 -0.000000000000 1.309221286520
-0.000000000000 -0.000000000000 1.300178117741
-0.000000000000 0.252429489081 1.283955435245
0.274326271368 0.261971352563 1.292419884613
-0.000000000000 -0.000000000000 0.845076430125
0.258268646643 -0.000000000000 0.838572444530
0.253506970033 0.246865382702 0.843479139363
-0.000000000000 0.245586861015 0.849838420685
0.326842283826 0.344232552406 0.963145001487
0.419794703498 0.250516905932 1.103950119504
0.351193262827 0.315414258303 1.189322706094
0.277007516093 0.391407160165 1.023804108281
-0.000000000000 -0.000000000000 1.715920139311
0.309026842904 0.322541229729 1.356100590557
0.410680351312 0.242945627058 1.561140161129
0.313982355193 0.298426158749 1.708229912014
0.303709612751 -0.000000000000 1.686101357371
0.396719020619 -0.000000000000 1.551242900473
-0.000000000000 0.292160864605 1.738571539299
-0.000000000000 0.509349231632 1.554928535642
0.009487596778 0.509579427134 1.555116009106
0.263254935820 0.331647793128 1.715786118048
-0.000000000000 0.721233980029 0.789733912143
-0.000000000000 0.596726073011 1.018570730950
0.271941967076 0.592704104130 1.023785595620
0.336564427652 0.313757058559 0.734052116377
0.410304766896 0.412114010578 0.856931190213
0.269680988218 0.721771259706 0.786587299004
0.346438552849 0.643798877562 0.929280540627
0.406627357644 0.585411711823 0.856062866546
0.319983444928 0.673089313771 0.717680356208
-0.000000000000 0.565021406759 0.570956282507
-0.000000000000 0.418442540044 0.570702624602
0.229276639607 0.421017760404 0.562659856976
0.226925403084 0.561672932275 0.562985788243
-0.000000000000 0.718208476441 1.194695363609
0.389805182531 0.591685593800 1.293642693853
0.332911526753 0.647010046777 1.330898674009
0.264780985634 0.716810977267 1.203424303548
0.317495541318 0.666304521771 1.132341465896
0.395273056924 0.400606585837 1.295170469300
-0.000000000000 0.518555288252 1.554743656469
0.009392559869 0.518572150341 1.554933489945
0.784249268808 -0.000000000000 1.826979994481
0.613759800988 -0.000000000000 1.542590459119
0.578749024836 0.323479983693 1.557905373320
0.614053354093 0.297911322771 1.555397740767
0.780121401228 0.252187516402 1.830521483879
0.744434680756 0.318364993726 1.773729503367
0.447708198185 -0.000000000000 2.038942344411
0.552418048174 -0.000000000000 2.043648810497
1.000000000000 1.000000000000 1.198132795052
0.597415657929 1.000000000000 1.030759977885
0.713910429362 1.000000000000 1.201053900287
1.000000000000 1.000000000000 0.800998060005
0.732970696792 1.000000000000 0.797780615891
1.000000000000 0.698078006137 1.203425074084
0.717290516590 0.699801739449 1.206281452400
0.686064592817 0.667240690573 1.160665970781
0.596515608780 0.726607275145 1.029705176928
0.282983135451 -0.000000000000 2.856888000362
0.767546530987 -0.000000000000 2.815778341756
0.680595075092 0.313857396796 2.711694657561
0.589162786816 0.418269185587 2.862304082184
0.673117592082 0.341649868691 2.937680429818
0.761590425593 0.241687279093 2.803816243577
0.343166730289 0.332993891753 2.758830921185
0.450162324643 0.425911076280 2.881386357928
0.379640285618 0.343945837514 2.994671607160
0.284595423119 0.264721478995 2.854764385417
0.606317227204 -0.000000000000 3.075988608631
0.431050365528 -0.000000000000 3.076952104370
0.438915213639 0.259759744904 3.084206039808
0.589122050056 0.235661276071 3.082703332518
0.556334212804 0.210056629197 2.575072323096
0.453982172725 0.206830157429 2.576824851231
0.452130617148 -0.000000000000 2.579454810121
0.554597333972 -0.000000000000 2.577740907092
0.306610082409 0.684319761003 2.350513219334
0.393130956429 0.750218920815 2.219659431842
0.385956884302 0.606337435840 2.445389542890
0.365539707467 0.352749732742 2.427824921109
0.331218009335 0.334230227924 2.388093531249
0.589107549817 0.589401224252 2.404642794026
0.579148181816 0.393307259253 2.389932569079
0.147729889632 0.473118081640 2.169730872696
0.147821964132 0.532902932189 2.168342508819
0.298166894791 0.654543305310 2.039758382508
0.593960287058 0.707774689968 2.219277553216
0.637331587897 0.656231298032 2.284981603206
0.681213070220 0.592814152483 2.149229690182
0.656182706338 0.622300252442 2.106634756355
0.271416377491 0.356067753444 2.068708764517
0.376042395246 0.267352904504 2.092356158901
0.653188981394 0.354676925249 2.175666182380
0.666089793048 0.381107632963 2.145504202320
-0.000000000000 0.593229345572 3.083887968061
-0.000000000000 0.725594698602 3.272354568583
-0.000000000000 1.000000000000 3.279641768924
-0.000000000000 0.724586942298 2.856692109767
-0.000000000000 1.000000000000 2.860487431352
0.280411873895 1.000000000000 2.855967351081
0.270318317136 0.736212667533 2.852494939869
0.371541148355 0.645928568662 3.014608025248
0.324212863029 0.600241505391 3.090842590983
0.000000000000 0.000000000000 4.000000000000
-0.000000000000 0.380033547838 4.000000000000
0.374503306670 -0.000000000000 4.000000000000
0.340828526743 0.335312594483 4.000000000000
-0.000000000000 0.338922945374 3.656553858837
-0.000000000000 -0.000000000000 3.640229900801
0.334141346308 -0.000000000000 3.654875411496
0.305535981798 0.300212632521 3.668081136351
1.000000000000 -0.000000000000 2.807956321604
1.000000000000 0.238939374917 2.795932085298
1.000000000000 0.493285879552 3.132527654870
0.899745222958 0.493182266823 3.134176737883
1.000000000000 1.000000000000 2.009399542167
0.723745902508 1.000000000000 2.004085185922
0.600814302003 1.000000000000 2.219538667356
0.729700923005 1.000000000000 2.409629865206
1.000000000000 1.000000000000 2.406944776396
1.000000000000 0.703931195950 2.407071849844
0.723239211215 0.711618113669 2.409817828568
0.720538945340 0.705302040099 1.997328279803
1.000000000000 0.717146110576 2.002973413177
1.000000000000 0.595334416845 2.170812563259
0.256121237872 -0.000000000000 0.395285392216
0.491817984614 -0.000000000000 0.137415718743
0.723207640758 -0.000000000000 0.414700214643
0.496448407311 0.201075623015 0.132629328728
0.645587884941 0.314605792831 0.560208465097
0.571664357912 0.416400073325 0.391806156335
0.646325386942 0.348765671022 0.304642338804
0.733737350774 0.240542287485 0.414954626911
0.579537610563 -0.000000000000 0.642920007595
0.405042357806 -0.000000000000 0.645844589497
0.404002210685 0.251034849509 0.645841831088
0.591269699269 0.260911531695 0.642702389066
0.255582825608 0.268408932461 0.396247730050
0.305880847590 0.349315022236 0.481437086737
0.387747780461 0.408180369630 0.392513565319
0.342973172546 0.331053400002 0.300723346315
0.499793010855 0.511608308130 3.816621172707
0.499777000887 0.490935052546 3.816517434914
0.421545246942 0.396103415482 3.303431715238
0.688437195114 0.676277645332 3.637528955426
0.258678931782 0.571586246575 3.542631434880
0.338095807725 0.668499700685 3.633359396902
0.362207889546 0.343150567871 3.391250841508
0.426829678589 0.252687833281 3.546502522711
0.338586608004 0.332575477402 3.632527852741
0.259218442307 0.428919602786 3.542654828716
0.688429923908 0.322727093664 3.635500476703
0.280029578815 -0.000000000000 3.278928572262
0.416275098378 -0.000000000000 3.570826462050
0.365493673392 0.334060447428 3.187484188773
0.300108407250 0.274902256993 3.270883460350
0.644710307130 -0.000000000000 3.579127927391
1.000000000000 0.604472678074 1.443403899197
0.635835081544 0.631621126687 1.383174428352
1.000000000000 1.000000000000 1.599514254032
1.000000000000 0.699950876578 1.600240860695
0.261295135314 1.000000000000 1.999168386485
0.382757926208 1.000000000000 2.219910282531
0.267952238422 0.706166884350 1.988795400540
-0.000000000000 1.000000000000 1.991992683176
-0.000000000000 0.536829890626 2.170049436311
-0.000000000000 0.723037491924 1.982042947361
-0.000000000000 0.754482648906 2.427375926109
-0.000000000000 1.000000000000 2.417283366356
0.253013627257 1.000000000000 2.410214816492
0.256352643141 0.744466885554 2.420625813897
-0.000000000000 0.268104533871 2.851171524331
-0.000000000000 0.403307968634 3.084559604582
-0.000000000000 0.602973098492 2.682995296277
-0.000000000000 0.393540489909 2.675348820699
0.263451755183 0.408148864558 2.653808594851
0.282844035080 0.601584414187 2.659246208170
0.321109476877 0.401151394034 3.091479844288
0.344461607582 0.654368006482 2.729893519871
0.455386104246 0.553356964468 2.875694608567
1.000000000000 0.365306590994 2.167875511037
1.000000000000 0.230439090694 2.322618725062
1.000000000000 -0.000000000000 2.324479310123
0.759853079215 -0.000000000000 2.325802581439
0.760876656355 0.226616390615 2.323967221014
1.000000000000 -0.000000000000 1.838060526777
1.000000000000 0.240398747356 1.841638554573
0.100874543569 0.601113776338 1.610843765692
0.567374260263 0.448428459324 1.347750718945
0.597819072510 0.429860018405 1.400656917826
0.594980739488 0.592296153689 1.381340148668
0.575454542420 0.571793108270 1.350309182895
0.599814636067 1.000000000000 0.603894966621
1.000000000000 1.000000000000 0.358237183891
0.727255522380 0.706021329899 0.385552989764
0.712916195612 1.000000000000 0.400990310833
0.649110473508 0.659166424141 0.527385164374
0.603112586468 0.716706347498 0.607892007971
1.000000000000 0.704951903943 0.348156262876
1.000000000000 0.709246773856 0.345081249808
0.985803562602 0.706104450560 0.347053230160
-0.000000000000 1.000000000000 1.594371318321
-0.000000000000 1.000000000000 1.205632325069
0.260459462025 1.000000000000 1.214272153707
-0.000000000000 0.609323381172 1.614311501639
1.000000000000 0.604374291755 1.746774837146
0.000000000000 1.000000000000 4.000000000000
-0.000000000000 0.620064887139 4.000000000000
0.375545774656 1.000000000000 4.000000000000
0.344431102399 0.665029431265 4.000000000000
0.332042591710 1.000000000000 3.655882175619
-0.000000000000 1.000000000000 3.641420312982
-0.000000000000 0.661860926033 3.656856208536
0.305795582042 0.700373587981 3.668416817049
-0.000000000000 0.273702296796 3.268991535477
-0.000000000000 -0.000000000000 3.277129934086
-0.000000000000 0.437252598370 3.557551698112
1.000000000000 0.371795133237 1.729209136079
0.644073383377 0.318012185072 2.467102274787
0.289131426124 -0.000000000000 2.421304678657
0.342225067297 -0.000000000000 2.119785178424
0.317764237549 0.298814338263 2.442690680282
0.342619678763 0.314226995010 2.466476846724
1.000000000000 1.000000000000 0.000000000000
1.000000000000 0.729887352906 -0.000000000000
0.645168724958 0.654295026030 -0.000000000000
0.653013221474 0.638765723874 0.287567551638
0.672442073240 0.641470768458 0.311542455266
-0.000000000000 0.563430311081 3.557503580831
0.492912222681 0.484471100455 4.000000000000
0.492946088893 0.519675054297 4.000000000000
0.401872311422 1.000000000000 1.026021934882
-0.000000000000 1.000000000000 0.784414696151
0.269113576831 1.000000000000 0.781284933936
0.398948014689 0.721122314597 1.024897361632
0.394234134316 1.000000000000 0.607237043234
0.395725228866 0.730129451072 0.611071528887
0.317545270551 0.634114437693 0.464440881684
0.646206468813 -0.000000000000 4.000000000000
0.686481136530 0.298666363944 4.000000000000
1.000000000000 0.000000000000 0.000000000000
1.000000000000 0.288434751460 -0.000000000000
1.000000000000 0.312350113619 0.299499497933
0.665913605191 0.348557032964 -0.000000000000
0.671030208464 0.369814978351 0.277751124172
1.000000000000 0.235793149282 0.385593152623
1.000000000000 -0.000000000000 0.384206632313
0.495776755345 -0.000000000000 -0.000000000000
0.500168765520 0.196576451427 -0.000000000000
1.000000000000 0.379124325654 1.469584993875
0.708292925004 0.320671642121 1.430656983669
1.000000000000 1.000000000000 4.000000000000
0.644185787818 1.000000000000 4.000000000000
1.000000000000 0.657036970385 4.000000000000
0.681587355992 0.698560868901 4.000000000000
1.000000000000 1.000000000000 3.559621326752
1.000000000000 0.639888133417 3.655481661944
0.691476850114 0.679344060559 3.639845865467
0.588916698911 0.251628484261 1.097511818893
0.651918845527 0.313977215969 1.173551196067
1.000000000000 0.724153396845 2.826230206551
1.000000000000 0.399979729242 2.581623055578
1.000000000000 0.577466878365 2.577814713390
0.741539820690 0.578909595198 2.588123320578
0.746567157273 0.401606383776 2.591726600058
0.742422859573 0.722843966651 2.831851145329
0.660931494199 0.656459320751 2.721907809146
0.586363154541 0.564767013960 2.856988997019
0.677842639931 0.645128198722 2.935932235590
0.762864714983 -0.000000000000 1.343631393916
0.774089679814 0.227298749336 1.338723782677
0.574828199394 -0.000000000000 1.100798364155
-0.000000000000 -0.000000000000 2.444124372918
-0.000000000000 0.279890364929 2.466272722562
-0.000000000000 -0.000000000000 2.853342735561
1.000000000000 0.338478928657 4.000000000000
0.341873078179 0.662711936113 2.550669541453
-0.000000000000 0.470196270542 2.171595598648
0.735787929621 -0.000000000000 0.862617888272
-0.000000000000 0.413573707163 -0.000000000000
0.196723219548 0.450077681539 -0.000000000000
-0.000000000000 0.233486096659 0.370523038878
0.387022680049 0.579862653793 0.390605864200
1.000000000000 -0.000000000000 0.862034212704
0.598084579603 1.000000000000 2.643268121057
0.747841335233 1.000000000000 2.843410512708
1.000000000000 1.000000000000 2.837853801888
0.595935584184 0.715991927637 2.635971501291
0.669617117143 0.644931614462 2.502395874877
-0.000000000000 -0.000000000000 0.369639012799
0.654488170308 0.624073197937 0.307810676364
0.579280705182 0.569075939384 0.390081983361
1.000000000000 0.000000000000 4.000000000000
0.403298139390 0.714093250474 2.641746282407
0.412087848789 1.000000000000 2.648891348281
1.000000000000 -0.000000000000 1.334923792534
1.000000000000 0.231799344272 1.330339350599
0.000000000000 0.000000000000 0.000000000000
1.000000000000 1.000000000000 3.273831136844
-0.000000000000 -0.000000000000 2.076815700345
-0.000000000000 0.311923447108 2.039860035504
6 0 1 2 3 4 5
5 10 7 6 11 15
5 1 2 8 14 13
5 6 5 0 12 11
5 3 4 7 10 9
4 0 1 13 12
4 2 3 9 8
4 4 5 6 7
5 8 9 10 15 14
5 11 12 13 14 15
6 22 16 17 24 29 30
6 23 18 19 20 27 28
6 18 23 24 17 26 25
5 21 22 16 31 32
6 16 17 26 13 12 31
6 15 19 20 21 32 11
5 18 19 15 14 25
5 20 21 22 30 27
4 23 24 29 28
4 14 25 26 13
4 27 28 29 30
4 31 32 11 12
7 35 37 38 34 45 48 49
6 35 36 33 46 50 49
5 41 42 34 45 47
5 33 44 41 47 46
6 33 36 40 39 43 44
5 34 38 39 43 42
4 36 35 37 40
4 37 38 39 40
4 41 42 43 44
5 46 47 45 48 50
3 48 49 50
6 59 55 53 51 65 66
4 52 51 53 54
6 54 52 58 57 63 62
5 58 52 51 65 68
6 56 55 53 54 62 64
6 57 61 60 56 64 63
4 55 56 60 59
5 61 57 58 68 67
5 59 60 61 67 66
3 62 63 64
4 65 66 67 68
4 69 70 72 71
5 69 71 74 77 80
5 76 70 69 80 79
5 70 72 73 75 76
5 74 73 75 78 77
4 71 72 73 74
4 75 76 79 78
4 77 78 79 80
6 83 86 82 81 90 88
5 88 83 84 95 96
4 81 87 89 90
5 82 81 87 93 94
6 92 91 85 84 95 98
5 82 86 85 91 94
4 83 84 85 86
6 89 87 93 92 98 97
5 89 90 88 96 97
4 91 92 93 94
4 95 96 97 98
5 102 103 99 108 105
5 100 101 102 105 106
5 104 103 99 112 111
5 107 106 100 110 109
5 99 108 107 109 112
5 104 101 100 110 111
4 101 102 103 104
4 105 106 107 108
4 109 110 111 112
5 103 102 113 119 120
5 113 102 101 118 117
5 114 115 116 122 121
5 116 117 113 119 122
5 101 104 114 115 118
5 114 104 103 120 121
4 115 116 117 118
4 119 120 121 122
6 108 99 124 123 132 133
6 131 130 127 126 134 135
5 108 107 126 134 133
5 125 124 123 128 129
5 123 128 131 135 132
4 99 124 125 112
6 125 112 109 127 130 129
4 126 127 109 107
4 128 129 130 131
4 132 133 134 135
6 136 124 99 103 120 142
6 114 141 137 138 143 121
5 136 139 138 143 142
6 137 140 125 112 111 141
5 136 124 125 140 139
4 137 138 139 140
4 111 104 114 141
4 120 142 143 121
6 117 118 145 144 151 150
5 117 116 20 27 150
5 144 145 147 149 148
5 23 148 144 151 28
5 115 118 145 147 146
5 20 116 115 146 19
5 19 146 147 149 18
4 18 23 148 149
4 28 27 150 151
5 88 155 152 157 83
5 153 154 152 155 156
5 96 156 153 160 95
4 154 152 157 158
5 153 154 158 159 160
4 96 88 155 156
5 158 157 83 84 159
4 95 84 159 160
6 162 171 172 161 177 178
6 167 168 164 163 175 176
5 165 166 162 171 174
5 167 170 161 177 176
5 169 170 161 172 173
5 162 166 163 175 178
6 169 168 164 165 174 173
4 163 164 165 166
4 167 168 169 170
4 171 172 173 174
4 175 176 177 178
6 179 181 182 183 186 187
7 30 194 183 182 185 195 29
6 180 179 181 184 190 189
6 17 16 188 180 189 192
4 179 180 188 187
4 181 182 185 184
4 186 183 194 193
6 191 190 184 185 195 196
6 186 187 188 16 22 193
5 17 192 191 196 24
4 189 190 191 192
4 30 22 193 194
4 24 29 195 196
5 197 198 199 201 200
5 199 34 38 202 201
5 197 200 203 204 205
5 203 202 38 39 204
5 42 198 197 205 43
4 198 199 34 42
4 200 201 202 203
4 204 39 43 205
4 206 207 210 211
4 208 206 211 212
4 207 206 208 209
4 207 209 213 210
4 209 208 212 213
4 210 211 212 213
5 51 214 215 216 65
5 51 52 171 162 214
5 215 166 165 217 216
5 58 174 165 217 68
4 171 52 58 174
4 214 215 166 162
4 216 65 68 217
5 218 222 223 227 226
5 218 219 220 221 222
5 224 223 227 191 190
5 225 219 220 189 192
4 218 219 225 226
5 224 221 220 189 190
4 221 222 223 224
5 225 226 227 191 192
5 228 229 230 236 237
5 231 229 230 235 234
5 238 237 228 240 241
5 228 229 231 243 240
6 233 232 239 238 241 242
5 232 235 230 236 239
5 231 234 233 242 243
4 232 233 234 235
4 236 237 238 239
4 240 241 242 243
6 245 244 247 60 56 254
5 46 247 244 249 47
6 248 41 44 246 250 253
5 63 57 246 250 251
6 245 252 251 63 64 254
6 245 244 249 248 253 252
5 246 44 33 61 57
5 33 46 247 60 61
4 41 248 249 47
4 250 251 252 253
3 56 254 64
7 256 255 172 171 52 54 259
5 251 256 255 258 250
6 57 58 174 173 257 246
5 255 172 173 257 258
5 63 251 256 259 62
4 250 246 257 258
3 54 62 259
5 260 157 152 262 263
5 152 154 3 2 262
5 154 158 261 9 3
5 9 261 260 263 8
4 260 261 158 157
4 2 262 263 8
6 219 1 0 264 265 220
5 264 265 180 188 266
5 12 0 264 266 31
5 219 1 13 26 225
4 265 220 189 180
4 188 16 31 266
4 192 225 26 17
5 267 269 268 270 271
5 265 264 267 271 272
5 179 187 268 270 273
5 265 180 179 273 272
4 264 267 269 266
5 268 269 266 188 187
4 270 271 272 273
6 274 275 197 200 276 277
5 274 275 280 169 170
5 274 277 278 167 170
6 278 279 281 282 168 167
5 200 276 279 281 203
4 197 275 280 205
4 276 277 278 279
6 282 204 205 280 169 168
4 281 282 204 203
5 283 284 285 288 289
5 285 286 151 144 288
6 283 289 148 23 24 196
6 287 286 151 28 29 195
5 283 284 287 195 196
4 284 285 286 287
4 288 289 148 144
5 7 138 143 290 6
6 146 115 114 141 291 292
6 121 143 290 32 21 122
6 10 15 19 146 292 293
6 10 7 138 137 294 293
4 290 6 11 32
4 137 141 291 294
4 116 122 21 20
4 291 292 293 294
6 296 155 88 90 301 302
5 295 156 155 296 298
6 297 299 89 90 301 303
5 297 298 295 300 299
5 295 156 96 97 300
5 297 298 296 302 303
4 299 89 97 300
3 301 302 303
5 304 305 136 142 307
5 304 5 4 306 305
5 6 5 304 307 290
5 138 7 4 306 139
4 305 136 139 306
4 142 307 290 143
5 218 226 308 263 262
5 1 219 218 262 2
5 308 226 225 26 25
5 308 263 8 14 25
4 310 309 314 315
4 309 311 313 314
4 309 310 312 311
4 312 310 315 316
4 312 311 313 316
4 313 314 315 316
5 317 318 211 210 319
5 211 318 255 256 212
5 258 317 319 253 250
4 317 318 255 258
5 213 210 319 253 252
5 256 212 213 252 251
6 308 226 227 283 289 320
5 18 25 308 320 149
4 283 227 191 196
4 289 320 149 148
7 286 178 177 322 323 150 151
5 194 323 322 324 183
5 321 287 286 178 175
6 325 182 185 321 175 176
4 195 185 321 287
5 322 324 325 176 177
5 30 194 323 150 27
4 183 324 325 182
4 327 326 296 302
5 298 296 326 80 77
5 326 327 328 79 80
6 302 327 328 329 330 303
6 298 297 330 329 78 77
4 329 328 79 78
3 330 297 303
5 314 199 198 331 315
5 34 199 314 313 45
5 42 198 331 248 41
5 331 315 316 249 248
5 316 313 45 47 249
6 210 207 310 315 331 319
6 312 310 207 209 332 333
5 252 213 209 332 245
5 249 316 312 333 244
4 331 319 253 248
4 332 333 244 245
5 124 136 305 335 123
5 305 306 334 336 335
5 128 336 334 337 129
5 334 306 139 140 337
4 335 123 128 336
4 129 125 140 337
5 71 72 132 123 335
5 338 74 71 335 336
5 338 74 73 340 339
5 128 336 338 339 131
5 73 72 132 135 340
4 339 340 135 131
5 341 208 212 256 259
5 208 341 342 332 209
6 259 341 342 254 64 62
4 254 342 332 245
5 343 344 345 348 349
5 343 349 230 229 350
5 346 344 343 350 351
4 344 345 347 346
5 345 347 234 235 348
5 234 347 346 351 231
4 348 349 230 235
4 229 350 351 231
5 320 352 260 263 308
6 260 352 353 292 293 261
5 352 320 149 147 353
4 353 292 146 147
4 293 261 9 10
4 354 356 359 358
5 355 354 358 49 48
4 354 355 357 356
5 360 357 355 48 50
4 356 357 360 359
5 358 359 360 50 49
6 160 159 294 137 140 337
6 159 84 85 362 291 294
6 92 127 109 110 361 91
6 362 361 110 111 141 291
6 130 98 95 160 337 129
4 92 127 130 98
4 91 361 362 85
4 304 307 269 267
5 0 5 304 267 264
6 290 307 269 266 31 32
5 363 216 215 364 365
6 164 163 367 366 369 370
5 366 365 363 368 369
5 217 216 363 368 371
5 164 165 217 371 370
5 163 166 215 364 367
4 364 365 366 367
4 368 369 370 371
6 372 145 118 101 100 374
5 362 373 372 374 361
5 373 372 145 147 353
5 291 362 373 353 292
4 100 374 361 110
5 277 376 375 377 274
5 161 377 375 322 177
4 375 376 324 322
5 278 277 376 324 325
4 377 274 170 161
4 167 278 325 176
5 364 215 214 285 284
5 214 162 178 286 285
5 321 367 364 284 287
4 321 367 163 175
6 306 4 3 154 153 334
4 153 334 337 160
5 158 159 294 293 261
5 359 356 378 55 59
6 342 378 356 357 333 332
5 254 342 378 55 56
5 247 360 357 333 244
5 359 360 247 60 59
6 376 277 276 270 268 380
5 279 276 270 273 379
5 376 324 183 186 380
6 278 279 379 181 182 325
4 379 273 179 181
4 268 380 186 187
6 106 237 236 381 374 100
5 91 94 381 374 361
5 239 236 381 94 93
6 92 93 239 238 126 127
5 106 237 238 126 107
6 72 70 382 384 133 132
4 383 382 70 76
5 383 382 384 240 243
6 242 243 383 76 75 385
5 241 240 384 133 134
6 340 385 242 241 134 135
4 75 385 340 73
5 349 348 81 82 386
5 236 230 349 386 381
5 81 348 235 232 87
4 82 386 381 94
4 239 232 87 93
5 313 311 355 48 45
5 357 355 311 312 333
4 247 360 50 46
5 365 223 222 389 363
5 222 221 387 388 389
5 387 221 224 391 390
5 368 388 387 390 369
5 365 223 224 391 366
4 388 389 363 368
4 390 391 366 369
5 133 384 392 105 108
5 392 228 237 106 105
4 126 134 241 238
4 384 392 228 240
6 156 295 338 336 334 153
6 98 97 300 339 131 130
4 295 338 339 300
5 318 317 275 274 377
5 172 255 318 377 161
5 258 317 275 280 257
4 280 169 173 257
5 345 344 327 302 301
4 327 344 346 328
6 345 347 393 330 303 301
5 347 346 328 329 393
3 393 330 329
6 394 233 232 87 89 299
6 394 385 340 339 300 299
4 394 233 242 385
4 378 395 53 55
5 53 395 341 259 54
4 341 395 378 342
5 298 77 74 338 295
6 394 385 75 78 329 393
5 297 299 394 393 330
6 221 220 265 272 397 387
5 396 397 272 273 379
6 390 396 379 181 184 391
4 387 390 396 397
4 190 184 391 224
6 346 351 383 76 79 328
4 383 243 231 351
5 393 347 234 233 394
6 398 399 352 320 289 288
5 145 372 398 288 144
4 352 353 373 399
4 398 399 373 372
5 301 90 81 348 345
5 276 200 201 271 270
5 201 202 397 272 271
5 397 202 203 281 396
4 379 279 281 396
6 198 197 275 317 319 331
6 280 205 43 44 246 257
5 386 82 86 399 398
5 374 381 386 398 372
5 362 85 86 399 373
6 284 283 227 223 365 364
6 185 321 367 366 391 184
6 68 217 371 40 36 67
6 40 371 370 282 204 39
4 33 36 67 61
4 370 164 168 282
4 382 400 392 384
5 228 392 400 350 229
5 400 382 383 351 350
5 401 358 359 59 66
4 401 35 49 358
5 66 401 35 36 67
5 402 375 376 380 403
4 402 323 322 375
5 194 323 402 403 193
4 380 403 193 186
6 388 387 397 202 38 37
5 40 37 388 368 371
6 390 396 281 282 370 369
8 119 403 380 268 269 307 142 120
6 21 22 193 403 119 122
4 402 403 119 113
5 402 113 117 150 323
6 86 83 157 260 352 399
6 216 363 389 401 66 65
5 37 35 401 389 388
10 0 1 2 3 4 5 6 7 8 9
13 10 11 12 13 14 15 16 17 9 18 19 20 21
11 22 23 24 25 26 27 28 29 30 31 32
11 33 34 35 36 37 38 39 40 41 42 43
8 44 45 46 47 48 49 50 51
11 52 53 54 55 56 57 58 59 60 61 62
9 63 64 65 66 67 68 69 70 71
9 72 73 74 75 76 77 69 78 79
11 80 81 82 83 84 85 67 86 87 88 89
11 90 65 91 92 93 77 94 85 95 96 97
11 98 11 99 100 101 102 103 78 104 105 106
9 107 108 53 109 110 111 112 113 114
11 115 116 117 118 119 120 121 122 123 124 125
14 10 126 127 128 129 130 131 132 133 134 135 136 137 138
9 139 140 141 142 143 144 27 145 146
6 147 148 149 150 151 152
9 153 154 155 117 36 156 157 158 159
9 160 161 162 163 164 165 166 167 136
10 168 169 170 171 172 173 174 175 176 177
13 178 179 180 25 181 182 183 184 185 38 186 187 188
11 189 35 190 191 181 192 157 193 124 194 195
8 196 197 198 199 200 110 6 201
11 202 163 14 203 129 5 204 205 206 207 208
9 209 210 203 211 212 130 213 214 215
11 216 217 141 218 219 220 221 222 223 224 123
10 225 226 227 228 101 229 18 230 231 138
14 91 74 1 232 15 233 234 235 103 236 237 238 239 240
10 241 242 243 244 245 112 246 60 247 248
9 249 250 92 251 252 232 7 253 254
9 255 256 2 257 258 205 164 201 19
6 259 260 261 262 263 264
9 265 266 152 267 190 268 269 270 187
11 271 12 227 272 257 273 167 105 274 135 208
13 275 276 127 228 277 278 279 280 20 281 282 125 106
9 283 284 285 286 287 246 288 289 51
9 290 291 264 292 24 144 293 294 186
11 295 296 262 150 183 297 298 293 269 299 300
9 301 302 303 83 304 94 253 305 306
9 307 308 309 84 310 311 49 305 312
10 313 314 315 151 182 316 297 270 193 42
9 317 318 319 320 169 321 322 323 324
12 325 326 327 272 199 258 16 235 8 104 328 329
7 330 331 332 333 334 335 32
14 336 337 93 338 56 339 340 86 341 114 71 342 238 306
9 343 344 345 251 3 204 213 237 21
10 346 155 347 348 349 350 351 122 352 353
12 354 355 76 233 339 356 68 102 357 358 96 328
9 359 360 118 361 362 218 363 364 280
9 365 366 367 277 351 120 368 158 230
12 369 336 198 252 4 304 111 370 236 95 371 329
10 372 373 334 374 178 316 375 376 39 300
11 377 126 378 379 380 211 362 222 381 282 382
11 383 66 338 384 385 386 387 176 61 87 358
11 388 389 390 391 47 311 392 393 177 394 89
9 395 396 397 55 173 385 323 398 399
10 400 401 333 263 179 375 298 294 31 402
9 403 404 405 348 406 166 407 408 409
9 410 411 82 170 387 392 412 413 70
11 414 303 109 415 245 310 416 370 340 62 88
9 417 418 217 419 119 268 192 363 420
8 421 422 423 286 320 424 425 248
14 81 426 172 415 427 386 59 393 412 312 341 428 399 247
8 429 430 431 315 374 37 188 195
11 432 287 309 48 244 427 433 416 434 394 425
11 435 405 128 436 165 437 212 206 438 381 439
11 440 391 424 433 174 441 50 322 442 428 288
9 443 444 327 100 356 445 274 446 231
11 447 423 397 243 426 54 321 175 442 289 434
9 448 449 378 436 450 220 145 215 451
11 452 267 292 143 419 180 221 453 30 194 299
9 454 455 456 355 384 57 398 342 446
11 457 367 162 273 458 133 229 407 279 352 439
15 350 191 26 459 156 184 460 121 453 223 40 461 462 420 146
8 463 464 465 390 171 441 413 324
10 466 467 23 468 335 185 376 41 461 402
8 469 470 471 276 379 361 132 472
11 473 474 142 450 406 475 460 438 224 29 353
13 476 345 477 13 234 134 214 472 79 207 254 382 97
14 116 347 380 437 219 458 131 475 364 278 368 409 451 462
10 478 479 471 477 99 75 17 281 137 239
11 480 326 456 337 200 58 113 357 445 371 240
10 481 482 468 474 349 459 28 408 159 43
