ply
format ascii 1.0
element vertex 351
property float x
property float y
property float z
element face 571
property list uchar int vertex_indices
element cell 100
property list uchar int face_indices
end_header
1.403303099326 -0.000000000000 0.894668272656
1.279099763969 0.259921613819 0.645229142370
1.109950121286 -0.000000000000 0.720081093009
1.123859255328 0.246543448809 0.553738896857
1.065479819785 0.104202499010 0.537686270634
1.249012686852 0.277622181807 0.313349001611
1.559620571127 -0.000000000000 0.298915851920
1.165550669905 0.173273259200 0.231123148878
1.418908627365 0.299226134299 0.393090383211
1.484644759032 0.303536183484 0.483711783794
1.029407306513 -0.000000000000 0.370644599657
1.145612257077 -0.000000000000 0.214183519960
1.033373406383 0.098945409883 0.384664520014
1.573879259641 0.256739132088 0.456917573422
1.658278710026 -0.000000000000 0.338883167619
1.728764074606 0.000000000000 0.459457776729
1.579040933419 -0.000000000000 0.801777909259
1.647937761199 0.107823090313 0.634652435232
1.701070351781 -0.000000000000 0.377946361736
1.662814498549 0.102712622272 0.392520319900
1.762446442239 0.339209192666 -0.000000000000
1.949777514144 0.081921180987 -0.000000000000
1.797565691364 0.385166388543 0.218690125386
1.854206292693 1.000000000000 -0.000000000000
1.772668012310 0.521723093429 0.232292355507
1.689085369470 0.742929491103 -0.000000000000
2.190633840894 0.655211566335 0.000000000000
1.951316193440 1.000000000000 0.068398874068
1.999599909418 0.898765716575 0.175536083537
2.001315826069 1.000000000000 0.000000000000
2.123740664875 0.783275188205 0.186254144553
0.541754434775 0.649414683693 0.486968172924
0.774380629334 1.000000000000 0.207788788273
0.568551855865 0.689040260498 0.541405505158
0.807258921579 1.000000000000 0.458466095720
0.712821709666 0.883953128555 0.598834727702
0.215182054064 1.000000000000 0.417265208660
0.537347199940 0.919714634150 0.705693071633
0.381121848716 0.842751048509 0.555415000569
0.297152743332 0.903801995405 0.481629109539
0.664298901641 1.000000000000 0.667886132341
0.530191398071 1.000000000000 0.699701645541
1.518061824984 1.000000000000 0.776048921459
1.555181751279 1.000000000000 0.282701676646
1.503373711277 0.799252010319 0.773578931242
1.179149054499 1.000000000000 0.483535367973
1.194236795228 1.000000000000 0.701797455439
1.285969662793 1.000000000000 0.889388397154
1.547054103871 0.916381081916 0.308380464965
1.477758545818 0.628235456719 0.620286621064
1.163903720582 0.702103154836 0.653207844606
1.178474870561 0.741220543518 0.549930943959
1.338365212843 0.698144313987 0.475528015611
1.355652047462 0.668996445193 0.839460352633
1.293260710686 0.665023402706 0.850988372139
0.840586910813 0.650811867531 1.000000000000
0.907718898458 0.833334568532 1.000000000000
0.790434892570 0.734428063556 1.000000000000
0.831253586678 1.000000000000 0.784063820565
0.776139299485 0.819077050657 0.596800847199
1.044820959752 0.667305483052 0.514581033249
0.961734157842 0.545377520803 0.610585399748
0.923017947807 0.583108038190 0.576604690431
1.109439996486 0.582154578533 1.000000000000
1.193939910609 0.590448877631 0.859659572871
1.074837186611 0.539702300939 0.766601289019
2.987847975720 0.748306662461 1.000000000000
3.187925571198 0.179432569255 1.000000000000
3.118904240715 0.527703904889 0.699226944824
3.241716650880 0.320768390571 0.844519560287
3.406141441976 0.180702147576 1.000000000000
3.301697221305 0.475933520509 1.000000000000
2.784127372903 0.263463114333 1.000000000000
2.731404320971 0.744350566927 0.907985156530
2.735371002692 0.811011333696 1.000000000000
2.665946034668 0.371462947835 0.914980256619
2.675655545454 0.464246985372 0.858100017705
2.651888345261 0.385604628896 1.000000000000
0.000000000000 0.000000000000 1.000000000000
-0.000000000000 0.530436927850 1.000000000000
-0.000000000000 -0.000000000000 0.527214356451
0.427252712840 -0.000000000000 1.000000000000
0.000000000000 0.467319442757 0.711035513654
0.345011190665 0.391741219840 0.595330393981
0.397345948559 -0.000000000000 0.502735747664
0.154558479909 -0.000000000000 0.437997077547
0.479213587669 0.372530384409 0.740969840372
0.494000018698 0.279416611634 1.000000000000
0.329105306808 0.423890035814 1.000000000000
0.277594127993 0.308881157450 0.483346889763
0.511032987335 0.000000000000 0.639508645941
0.546271903187 0.296134750101 0.790708552404
3.112141858867 0.571918063159 0.260021641494
3.243179130523 0.524213852337 -0.000000000000
3.500208265798 1.000000000000 0.000000000000
3.463195194473 1.000000000000 0.078903662841
2.912712051638 0.740183846235 0.000000000000
2.916510962594 0.741458385503 0.112603969966
3.404164258794 0.585414171522 0.271003121902
3.531020764387 0.542497436608 0.000000000000
4.000000000000 0.519476386077 -0.000000000000
4.000000000000 1.000000000000 0.000000000000
3.761552017790 0.668430460537 -0.000000000000
3.727952839963 0.576562023700 0.358638632264
4.000000000000 0.914277488007 0.457635508894
3.761247549802 0.587652874441 0.534465351567
4.000000000000 0.374931251565 0.459336731534
4.000000000000 0.560754827733 0.633575514147
3.929143772820 0.542995437123 0.614823523441
3.921321449211 0.423981769580 0.503271902394
2.696175379106 0.454270874496 0.462221742298
2.597413177898 0.581893472100 0.768192913125
2.433645538517 0.656027904189 0.709332196985
2.642658764793 0.281267524316 0.398862692385
2.595271337036 0.312122915613 0.344084300936
2.528422053166 0.306424865068 0.311364911521
2.409837800096 0.224198545987 0.317781886568
2.678006387401 0.196611445959 0.496144824621
2.644465657107 0.728648621846 0.404178843548
2.326101302957 0.327384271283 0.643306770090
2.470862744390 0.595411293890 0.214223799620
2.568393789285 0.713816915251 0.315779020612
2.564581350583 0.756943329718 0.716961301144
2.612115689361 0.767282492443 0.507733573368
2.530575288278 0.813160307889 0.606998847413
2.268710027704 0.313828059572 0.417095238966
2.710643103285 0.305438805462 0.554236052472
2.633736672154 0.365091012087 0.767025689216
2.227665561227 0.654916197610 0.172191521557
2.288280884538 0.324639055155 0.313053108239
2.151427748069 0.574766725721 0.500585016036
2.165097521580 0.524921115334 0.603755549709
2.196427865725 0.425574936560 0.599564769188
2.193866132661 0.408885617438 0.536307156728
2.539242476246 0.286408083865 0.723939875706
2.634302570407 0.240602480219 0.622293577043
1.458899565947 0.585841796792 1.000000000000
1.805373433271 0.893942356947 0.858907233531
1.835042941588 1.000000000000 0.864902176432
1.878853693449 1.000000000000 1.000000000000
1.846438818626 0.816210438202 1.000000000000
1.253163350197 1.000000000000 1.000000000000
1.243632588013 0.617667110306 1.000000000000
3.586179047336 -0.000000000000 1.000000000000
3.613718309768 0.307297300809 0.481939747977
3.714772357873 0.295283844393 1.000000000000
3.835234151096 0.237179959017 0.472789884946
3.729746824904 0.156338408778 0.449389586589
3.551757898518 0.000000000000 0.501334814022
3.652384507990 -0.000000000000 0.760545585528
3.526349034790 0.472306235723 0.518924519038
3.582529537689 0.519635296334 0.532425716904
3.901046835811 0.532049583526 0.699204790113
3.457692123185 -0.000000000000 1.000000000000
3.428690073497 -0.000000000000 0.586851893574
3.370734032540 0.163833937466 0.553254963430
3.341039457128 0.275324733926 0.572997323634
0.361317568424 0.247622147948 -0.000000000000
0.554491788567 -0.000000000000 0.000000000000
0.351784769605 0.342268249695 0.398628904480
0.124647838107 -0.000000000000 0.336434336054
0.229402133517 0.263979386629 0.349824819783
0.157215714957 0.188234787350 0.202932415607
0.637782952726 0.422333716525 0.000000000000
0.657962105122 0.457090149616 0.175628344064
0.624655518555 -0.000000000000 0.374334441539
2.204927492609 0.537806366780 1.000000000000
2.427019700704 1.000000000000 1.000000000000
2.196663458417 0.815032303630 1.000000000000
2.200117476701 0.636267127473 0.837708873975
2.566688475024 1.000000000000 0.915234137762
2.633271886769 1.000000000000 1.000000000000
2.717172742648 0.866922245866 1.000000000000
1.244334526780 0.488069915846 0.212764157862
1.022123510987 0.438836388845 0.684237958405
1.915520675436 0.677096478231 1.000000000000
1.926850301298 0.371824718405 1.000000000000
1.899308079959 0.682122777100 0.914765090551
1.892819884376 0.537544547555 0.851719533059
1.950244812650 0.568849689468 0.784304565429
2.130077364021 0.357975023252 1.000000000000
2.102145019156 0.373486064602 0.883744985630
2.110863021195 0.277311627021 1.000000000000
4.000000000000 1.000000000000 0.448573846908
3.576371968786 0.552532377010 0.187713898199
3.686336868009 1.000000000000 0.489620893106
3.441566684332 1.000000000000 0.369646921279
3.492972972878 0.589349093730 0.437208186339
3.589326480943 0.597565919210 0.497402122178
3.549238083525 0.733568891818 0.543726215994
3.416178387628 0.752829549568 0.470796788574
3.407547283793 0.608203246437 0.396380084868
1.713645035379 0.441363294383 1.000000000000
1.023654363902 -0.000000000000 0.847275277454
0.652083631047 0.240411126226 0.720589506950
1.042184055226 -0.000000000000 1.000000000000
0.901247318844 0.264429948454 1.000000000000
0.616336743517 0.310757700326 1.000000000000
1.587503940347 0.171877266685 0.000000000000
1.638731005219 -0.000000000000 0.246004213576
1.477596853348 0.600867151617 -0.000000000000
1.654047604524 0.288980797974 0.358572178489
1.107726431287 0.359766523581 0.000000000000
1.365945240621 0.615183609338 -0.000000000000
1.234180831688 0.551692494268 -0.000000000000
1.174574588170 0.504985461127 0.049491320865
1.136825218995 0.455275890143 -0.000000000000
1.171240771721 0.500164693477 -0.000000000000
2.102612979915 0.340805088589 0.752162953435
1.673950089469 0.441896587582 0.676179237038
1.862154160159 0.061494552888 0.520617489725
1.945121817627 0.140831397961 0.490497911207
1.870201794268 0.667240229656 0.571855413042
1.895743191954 0.587386627493 0.664955963648
1.686186498321 0.185617912248 0.707903286665
1.631392404630 0.480344141832 0.590868347081
2.095212559502 0.488932402712 0.710443962670
1.965795156305 0.747364250759 0.405360444646
1.757528129352 0.630242718335 0.513841408272
1.864970522507 0.701062546306 0.390466077695
2.796369589329 0.784133271202 0.342129230555
2.515839116280 1.000000000000 0.677780595805
2.838408016058 0.818735412458 0.284662211400
2.895048629386 1.000000000000 0.292718673534
2.802765507052 1.000000000000 0.140996695128
2.856430164626 0.888361306609 0.236144893147
2.018125474619 1.000000000000 0.231736096064
0.759624663106 0.136090928781 0.405097127184
4.000000000000 1.000000000000 1.000000000000
3.672279878282 1.000000000000 1.000000000000
4.000000000000 0.545493439155 1.000000000000
3.623461297760 0.913573818184 1.000000000000
3.626253236628 0.785694725939 1.000000000000
3.561113468137 0.797671328215 0.886694087395
3.403511059691 0.545989125907 1.000000000000
3.485425093965 0.765535368363 0.815793510404
3.393991718521 0.774174631958 0.759280037291
3.306970200683 0.779143323677 0.654411689045
3.292260196157 0.774824859715 0.555700853964
3.166019514755 0.622398546253 0.546105355809
3.178602889249 0.531334168058 0.488661174604
3.162455804683 0.431016605733 0.541690521327
3.225250259751 0.386776044399 0.472716008272
3.236725523771 0.480770567864 0.441640343365
1.420502051951 -0.000000000000 1.000000000000
2.986660977427 0.000000000000 1.000000000000
2.736314218501 0.000000000000 0.487837971289
2.798100122602 0.132550873240 0.451916650034
3.664654862049 0.371531625066 0.175660220248
3.603889636141 0.349919211742 0.000000000000
3.528204943455 0.320954588898 0.000000000000
3.611873004041 0.000000000000 0.404368358411
3.719552358417 0.288915892831 0.185298801419
3.757794572831 0.142149369094 0.391622062336
2.771346466657 0.543342047092 0.419830474176
2.822749252469 0.365045636146 0.186675696584
2.904256195501 0.312712938250 0.117878195938
2.747716897659 0.312518313817 0.260039571363
2.944151067514 0.266039027003 0.139554257675
3.018820833538 0.406179175327 0.206377484872
3.085509319918 0.596459895596 0.435277813344
3.146797461031 0.534511174463 0.347149096509
3.011038314978 0.097527904123 0.300943607726
3.016259839735 0.116526897026 0.270915866163
3.103237181313 0.213916097032 0.364202966782
3.051554663589 0.750389972484 0.518129493346
2.900686913649 0.767185639379 0.361858151527
2.865594286064 0.509722154531 0.074663154885
2.878400896813 0.669088747696 0.073777179544
2.300824648904 0.103457515511 1.000000000000
2.306955592412 0.109567324761 0.941201791357
1.669307237631 -0.000000000000 -0.000000000000
1.093012274877 -0.000000000000 -0.000000000000
2.638765675975 0.363088345148 -0.000000000000
2.870233187366 0.298450632060 0.000000000000
2.601747949747 0.296988718374 0.149711799823
2.553916691574 0.568645594683 -0.000000000000
2.837155850759 0.609751877131 0.000000000000
4.000000000000 -0.000000000000 0.765731935364
4.000000000000 -0.000000000000 0.285476397513
4.000000000000 0.221796865018 0.329351438342
4.000000000000 0.287108286105 0.414098938254
3.950053087879 0.281592095666 0.420109639837
3.919107139921 0.226099756150 0.356262162015
3.129850425260 1.000000000000 1.000000000000
3.268188510225 1.000000000000 0.815656115483
3.544984264241 1.000000000000 1.000000000000
1.526459382835 0.516594186750 1.000000000000
0.789525282883 0.254609097888 0.369899761124
1.009708177709 0.410590492793 -0.000000000000
0.000000000000 1.000000000000 1.000000000000
-0.000000000000 0.607983019510 0.720739490175
-0.000000000000 1.000000000000 0.369058100974
-0.000000000000 0.914579292774 0.421116328663
0.394481400268 0.795542237045 1.000000000000
0.429400027206 0.841592847430 1.000000000000
0.403451908115 1.000000000000 1.000000000000
0.475697047204 0.855396149222 0.884945768382
0.785124853739 1.000000000000 -0.000000000000
1.303807226957 1.000000000000 -0.000000000000
1.016992857202 0.649980098099 0.276059347496
0.972357712592 1.000000000000 0.364832216274
1.957119698279 -0.000000000000 -0.000000000000
2.245521481315 0.000000000000 0.000000000000
1.775639496562 0.000000000000 0.323354863914
4.000000000000 0.000000000000 1.000000000000
3.128810112993 1.000000000000 0.512681837038
3.227665769643 1.000000000000 0.528838712700
1.613198107976 0.393268738536 1.000000000000
1.567320779073 -0.000000000000 1.000000000000
1.633609219152 0.121111372913 1.000000000000
2.802305083399 1.000000000000 -0.000000000000
1.675473045307 1.000000000000 -0.000000000000
1.640160697631 1.000000000000 0.178051918631
3.236483663880 0.342303187712 0.455584409617
0.587004825700 0.484740098497 0.645128572786
0.554003604285 0.596182004058 0.484286810616
0.578527185907 0.587953197274 0.524630704916
0.524427540147 0.859528942163 0.806812435951
2.151095296009 1.000000000000 1.000000000000
1.965986790589 1.000000000000 0.572221903806
2.756139832875 1.000000000000 1.000000000000
1.892355890846 -0.000000000000 0.541202645478
2.294715333201 -0.000000000000 0.930464822571
2.291513702233 -0.000000000000 1.000000000000
2.384401277416 0.105369304662 0.206439171831
0.761137610315 0.499215916648 0.535187486678
4.000000000000 0.294232586866 -0.000000000000
0.100872066939 1.000000000000 -0.000000000000
0.652865748665 1.000000000000 -0.000000000000
0.574389525410 0.538385149476 0.252359453432
0.339438919074 0.710365008270 0.000000000000
0.516424562056 0.633936384485 -0.000000000000
0.592668102089 0.551878112014 0.181448501823
0.000000000000 0.349661704160 0.000000000000
0.410273281844 0.443539880086 0.385303324542
2.228520042334 -0.000000000000 0.531382968535
2.438653373148 -0.000000000000 0.260600633746
0.000000000000 0.623754700857 0.357698294251
2.618061062910 -0.000000000000 -0.000000000000
2.386196205197 -0.000000000000 0.156009143177
2.965988500968 0.188610788910 -0.000000000000
0.000000000000 1.000000000000 0.000000000000
-0.000000000000 0.822131094862 -0.000000000000
3.034338827672 0.000000000000 0.000000000000
3.001745561831 -0.000000000000 0.294478362925
4.000000000000 0.000000000000 0.000000000000
3.551316415671 -0.000000000000 -0.000000000000
0.000000000000 0.000000000000 0.000000000000
-0.000000000000 -0.000000000000 0.260131730634
0.969817043379 1.000000000000 1.000000000000
9 15 16 0 2 10 11 6 14 18
4 2 0 1 3
5 1 3 5 8 9
6 0 1 9 13 17 16
3 2 3 4
4 2 4 12 10
3 3 4 12
7 14 6 7 5 8 13 19
4 7 5 3 12
3 6 7 11
3 9 8 13
4 10 11 7 12
4 15 17 13 19
3 14 18 19
3 15 16 17
3 18 15 19
3 23 27 29
6 26 21 20 25 23 29
3 20 21 22
4 20 22 24 25
4 22 21 26 30
4 22 24 28 30
5 24 25 23 27 28
3 26 29 30
4 29 27 28 30
5 34 32 36 41 40
3 32 31 36
5 32 31 33 35 34
3 31 39 36
3 31 39 38
4 31 33 37 38
4 35 33 37 40
3 34 35 40
5 37 38 39 36 41
3 40 41 37
5 42 43 45 46 47
5 44 42 43 48 49
5 47 42 44 53 54
5 48 43 45 51 52
3 44 49 53
4 46 45 51 50
4 50 46 47 54
3 48 49 52
5 50 51 52 49 54
3 53 54 49
4 56 57 55 63
5 56 58 50 64 63
5 58 40 59 60 50
6 59 40 57 55 61 62
4 55 61 65 63
4 56 57 40 58
3 59 60 62
5 50 60 61 65 64
3 61 62 60
3 63 64 65
7 72 67 70 71 66 74 77
6 68 69 67 72 75 76
3 66 68 71
4 73 68 66 74
3 68 73 76
3 67 70 69
4 68 69 70 71
3 72 75 77
4 73 74 77 76
3 75 76 77
4 80 78 79 82
6 81 78 80 85 84 90
5 79 78 81 87 88
6 90 84 89 83 86 91
5 79 82 83 86 88
4 85 80 82 89
4 87 81 90 91
3 83 82 89
3 84 85 89
4 87 88 86 91
4 93 96 94 99
4 93 92 97 96
4 92 97 95 98
4 98 92 93 99
4 95 94 96 97
4 94 95 98 99
5 100 101 104 107 106
3 100 102 101
5 103 102 100 106 109
5 103 102 101 104 105
3 103 105 109
3 105 108 109
4 105 104 107 108
4 106 107 108 109
6 114 113 110 118 121 120
7 111 122 123 118 110 126 127
4 110 113 117 126
7 127 111 112 131 132 119 134
3 115 114 120
5 116 115 120 128 129
6 119 125 116 117 135 134
6 112 122 124 30 130 131
3 112 111 122
5 113 114 115 116 117
5 121 118 123 124 30
4 119 125 133 132
4 120 121 30 128
3 122 123 124
5 30 129 125 133 130
3 116 125 129
4 117 126 127 135
3 30 128 129
4 130 131 132 133
3 134 127 135
5 139 138 42 47 141
5 136 140 139 141 142
4 136 137 44 53
3 136 140 137
4 42 44 137 138
4 137 138 139 140
4 136 53 54 142
4 141 47 54 142
5 148 149 143 153 154
4 143 145 70 153
7 145 143 149 146 109 108 152
7 109 146 147 144 150 151 105
4 144 147 148 155
4 150 144 155 156
5 145 70 151 105 152
4 146 147 148 149
4 150 151 70 156
3 105 108 152
3 148 155 154
5 70 153 154 155 156
5 160 158 165 84 85
3 158 157 163
6 157 162 161 159 164 163
4 157 158 160 162
5 165 164 159 89 84
3 159 161 89
5 161 162 160 85 89
4 158 163 164 165
3 167 171 170
7 171 167 168 166 77 74 172
6 166 169 112 111 76 77
3 166 168 169
6 167 168 169 112 122 170
4 111 76 73 122
5 73 122 170 171 172
3 74 172 73
5 9 1 64 54 49
5 173 5 3 61 60
5 173 52 49 9 8
5 1 3 174 65 64
4 51 52 173 60
3 3 174 61
3 50 51 60
3 61 65 174
3 54 50 64
3 173 5 8
4 180 175 176 182
4 176 175 177 178
5 175 177 179 181 180
5 181 179 178 176 182
3 177 178 179
3 180 181 182
3 101 183 104
6 186 185 183 101 94 95
4 101 102 99 94
4 102 103 184 99
5 105 103 184 187 188
5 185 183 104 105 189
5 191 187 184 99 98
4 186 185 189 190
5 186 190 191 98 95
3 105 188 189
5 187 188 189 190 191
4 192 176 175 140
3 177 175 140
4 192 178 177 140
3 176 192 178
4 193 195 81 90
5 81 195 196 197 87
3 194 193 90
3 194 193 196
4 91 194 196 197
3 193 195 196
3 194 90 91
3 197 87 91
3 199 14 6
7 204 203 200 198 202 206 207
5 6 199 198 202 7
3 198 200 201
5 198 199 14 19 201
6 200 201 13 8 173 203
6 205 173 5 7 202 206
3 13 201 19
4 203 173 205 204
3 204 205 207
3 206 207 205
8 211 133 130 217 219 201 19 15
5 208 214 209 213 216
5 211 210 208 132 133
5 214 208 210 15 17
3 209 213 212
3 15 210 211
4 215 209 212 218
5 215 218 219 201 13
5 217 212 213 216 131
5 215 209 214 17 13
4 208 216 131 132
4 217 212 218 219
3 217 130 131
6 226 221 223 224 29 27
6 121 222 225 224 29 30
6 222 220 123 124 221 223
4 121 118 220 222
3 123 220 118
5 30 124 221 226 28
3 223 224 225
3 222 225 223
3 226 27 28
5 165 10 2 193 90
4 193 194 4 2
4 194 227 12 4
4 194 227 165 90
4 227 165 10 12
5 104 183 228 230 107
4 229 228 183 185
5 230 228 229 231 232
5 229 185 189 233 231
6 230 232 233 189 105 152
3 231 232 233
4 230 107 108 152
3 234 71 70
6 151 70 234 235 189 188
5 234 236 237 68 71
3 234 236 235
6 189 235 236 237 238 190
4 238 237 68 239
4 151 150 187 188
6 191 187 150 156 242 243
6 191 190 238 239 240 243
5 241 69 70 156 242
3 68 69 241
4 239 68 241 240
4 240 241 242 243
5 168 140 175 180 166
5 169 168 140 179 216
3 140 177 179
3 179 181 216
5 169 166 180 181 216
5 2 0 244 195 193
5 63 196 195 244 142
5 174 3 2 193 196
5 244 0 1 64 142
4 174 196 63 65
3 142 63 64
3 245 67 72
6 246 245 67 69 241 247
6 72 245 246 135 127 75
5 68 241 126 127 76
4 117 126 241 247
3 246 135 117
3 247 246 117
3 75 76 127
5 144 248 249 250 155
5 144 248 252 253 147
3 248 249 252
4 250 251 148 155
5 252 249 250 251 253
4 251 148 147 253
6 259 256 255 254 260 261
5 257 255 254 110 113
6 260 254 110 126 241 240
3 255 256 257
3 256 258 259
8 247 262 263 258 256 257 113 117
7 264 263 258 259 261 243 242
4 260 261 243 240
5 247 262 264 242 241
3 262 263 264
4 220 254 260 266
4 110 254 220 118
6 73 265 266 220 123 122
4 73 265 239 68
5 265 266 260 240 239
3 127 76 111
6 220 254 255 267 268 222
3 255 256 267
6 268 267 256 259 92 97
3 259 261 92
6 97 92 261 260 266 222
3 97 268 222
3 266 220 222
5 166 180 182 269 77
3 169 112 131
3 169 131 216
4 181 182 208 216
4 270 119 132 208
3 119 134 270
4 208 182 269 270
6 77 269 270 134 127 75
5 271 199 6 11 272
4 198 271 272 202
3 271 199 198
4 11 272 202 7
4 274 273 276 277
6 277 267 255 257 114 120
5 276 273 275 115 120
3 273 275 274
6 257 256 274 275 115 114
3 277 276 120
4 267 277 274 256
4 278 279 280 281
5 279 278 149 148 251
5 278 149 146 282 281
5 253 251 279 280 283
5 146 147 253 283 282
4 280 281 282 283
3 284 286 285
5 286 284 234 232 231
4 285 284 234 236
6 235 236 285 286 231 233
4 235 234 232 233
3 140 136 287
4 136 137 212 209
4 140 287 209 213
4 137 140 213 212
3 136 287 209
5 165 158 272 11 10
5 202 272 158 163 289
6 288 164 289 202 7 12
4 288 227 165 164
3 227 288 12
3 163 289 164
3 257 113 114
5 120 277 268 222 121
3 267 268 277
5 291 79 290 292 293
5 36 292 290 296 41
5 290 79 294 295 296
6 38 291 79 294 297 37
4 293 291 38 39
4 292 293 39 36
3 294 295 297
5 297 295 296 41 37
4 299 298 32 301
4 298 299 204 207
5 300 32 298 207 205
5 299 301 300 205 204
3 300 32 301
3 302 303 304
4 303 302 21 26
4 22 304 129 30
4 302 21 22 304
3 303 304 129
4 26 303 129 128
3 128 26 30
6 230 305 278 281 106 107
4 278 305 143 149
4 143 305 230 145
3 146 282 109
3 145 230 152
4 282 281 106 109
5 95 223 306 307 186
4 97 95 223 225
5 223 306 265 266 222
4 92 261 243 98
5 265 306 307 238 239
4 307 186 190 238
3 97 222 225
3 98 191 243
4 244 0 16 309
7 244 309 310 308 287 136 142
5 49 215 209 136 53
3 287 209 308
4 308 209 214 310
4 49 9 13 215
5 309 16 17 214 310
3 64 54 142
5 311 224 223 95 94
3 96 311 94
5 97 96 311 224 225
4 20 198 200 25
4 20 198 201 22
3 22 201 24
4 25 200 201 24
6 312 299 301 45 43 313
4 299 312 203 204
6 173 52 48 313 312 203
3 300 301 60
4 301 45 51 60
4 300 60 173 205
3 43 313 48
3 249 250 99
5 144 248 184 187 150
4 249 248 184 99
3 250 314 155
6 250 99 98 243 242 314
4 155 156 242 314
3 291 82 79
3 294 79 88
6 83 82 291 38 31 316
6 294 88 86 315 318 297
5 37 33 317 315 318
5 83 86 315 317 316
4 31 316 317 33
3 37 318 297
4 319 320 138 139
4 168 319 139 140
6 131 169 168 319 320 217
3 140 179 213
3 179 216 213
5 320 138 137 212 217
5 321 284 285 307 306
5 66 284 321 172 74
5 285 284 66 68 237
5 321 306 265 73 172
4 237 285 307 238
6 322 323 324 309 16 15
5 182 310 309 324 269
5 208 210 322 323 270
4 182 208 214 310
3 15 322 210
4 323 324 269 270
3 304 15 18
5 304 15 211 125 129
5 304 22 201 19 18
3 211 133 125
4 201 24 28 219
4 217 130 30 28
3 217 219 28
4 276 273 303 26
4 275 273 303 325
4 115 275 325 116
4 128 120 276 26
4 325 303 129 116
7 27 313 43 42 138 320 226
5 137 44 49 218 212
7 313 48 49 218 219 28 27
4 217 320 226 28
4 174 194 4 3
5 288 12 3 61 326
4 61 174 194 326
4 288 227 194 326
7 109 103 184 248 252 283 282
3 252 283 253
3 151 188 105
5 327 100 106 281 280
5 102 100 327 249 99
5 252 249 327 280 283
4 32 329 328 36
4 328 329 332 331
4 31 32 333 330
5 31 330 331 328 36
4 32 329 332 333
4 330 331 332 333
3 174 194 196
6 199 271 302 304 18 14
5 198 20 21 302 271
4 312 313 27 23
5 200 203 312 23 25
3 49 218 215
3 298 329 32
7 289 163 332 329 298 207 206
4 32 300 164 333
5 300 164 289 206 205
4 333 164 163 332
6 226 320 319 167 170 221
3 319 168 167
4 170 221 124 122
5 163 157 334 331 332
5 331 334 161 159 335
3 335 331 330
3 161 334 162
3 157 334 162
4 164 159 335 330
3 330 333 164
3 336 323 322
5 336 322 210 211 125
5 119 125 336 323 270
4 323 336 337 246
4 125 336 337 116
5 323 270 134 135 246
4 117 116 337 246
4 291 293 338 82
6 335 338 293 39 31 316
3 335 338 89
3 338 82 89
4 83 89 335 316
3 339 340 303
4 273 274 339 303
5 275 274 339 340 325
3 340 325 303
6 285 286 229 185 186 307
3 229 286 231
3 236 237 285
3 235 233 189
5 93 341 274 277 96
5 259 92 93 341 258
4 341 274 256 258
4 97 96 277 268
7 337 336 322 15 304 303 340
4 337 116 325 340
3 90 84 165
3 288 326 164
4 194 326 315 91
3 159 89 335
3 335 316 330
3 326 315 317
3 91 86 315
5 330 316 317 326 164
5 342 343 338 293 292
4 328 342 292 36
4 343 342 328 331
4 331 343 338 335
3 31 330 316
6 34 40 58 46 45 301
3 58 46 50
3 59 35 40
5 34 35 59 60 301
6 246 337 340 339 344 345
4 339 274 341 344
4 258 341 344 263
4 246 247 262 345
4 344 345 262 263
4 346 327 280 279
4 251 347 346 279
5 249 327 346 347 250
3 251 250 347
3 29 224 311
6 311 96 277 276 26 29
5 345 154 153 245 246
4 70 67 245 153
6 314 264 262 345 154 155
3 264 242 314
3 348 349 334
4 348 158 160 349
4 157 158 348 334
4 160 349 334 162
4 63 55 197 196
4 326 315 55 61
4 197 55 315 91
5 230 232 234 70 145
6 321 306 223 221 170 171
3 321 171 172
5 46 58 350 141 47
5 141 350 56 63 142
3 350 58 56
5 338 334 349 80 82
4 349 160 85 80
4 338 334 161 89
4 192 140 287 308
6 308 192 178 179 213 209
6 347 251 148 154 345 344
3 250 347 344
5 264 314 250 344 263
5 296 350 58 40 41
5 57 56 350 296 295
4 318 57 40 37
4 57 318 297 295
4 318 57 55 315
6 59 35 33 317 326 62
3 62 61 326
5 182 176 192 308 310
3 32 34 301
5 300 164 326 62 60
4 234 284 66 71
3 343 334 338
3 343 331 334
3 289 206 202
5 250 344 341 93 99
4 246 245 324 323
5 245 72 77 269 324
7 197 55 57 295 294 88 87
16 0 1 2 3 4 5 6 7 8 9 10 11 12 13 14 15
9 16 17 18 19 20 21 22 23 24
10 25 26 27 28 29 30 31 32 33 34
10 35 36 37 38 39 40 41 42 43 44
10 45 46 47 48 49 50 51 52 53 54
10 55 56 57 58 59 60 61 62 63 64
10 65 66 67 68 69 70 71 72 73 74
6 75 76 77 78 79 80
8 81 82 83 84 85 86 87 88
20 89 90 91 92 93 94 95 96 97 98 99 100 101 102 103 104 105 106 107 108
9 109 110 111 112 113 37 114 115 116
13 117 118 119 120 121 122 123 124 125 86 126 127 128
9 129 130 131 132 133 134 135 136 73
10 137 138 139 140 141 97 142 63 143 144
13 145 146 147 148 2 149 150 43 52 151 152 153 154
6 155 156 157 158 159 160
13 161 162 163 84 164 165 166 167 168 169 170 171 80
5 172 156 173 174 175
9 176 177 178 179 180 181 182 71 183
13 184 185 186 187 188 189 7 154 190 191 192 193 194
16 195 196 197 198 199 200 201 202 203 204 205 206 207 191 107 12
11 208 209 210 99 211 212 213 214 215 216 24
7 217 218 219 178 220 221 5
10 222 223 224 225 226 166 227 87 126 228
16 229 230 231 232 125 233 234 235 236 61 171 237 238 239 240 241
8 242 157 173 243 244 245 140 246
10 247 248 249 250 148 251 1 181 54 252
11 253 254 56 255 256 257 105 239 258 259 260
7 261 262 263 264 121 265 266
13 267 268 269 270 271 272 273 91 257 274 275 276 241
13 269 277 278 279 90 256 280 59 281 212 282 142 240
9 267 283 284 277 285 286 287 288 289
16 290 139 246 291 160 292 92 293 294 295 296 297 205 282 64 260
6 298 299 186 300 9 301
10 302 303 304 305 306 284 270 307 308 93
8 309 310 311 124 312 313 266 314
7 315 316 317 318 232 319 227
7 320 321 322 112 323 324 199
10 325 326 327 136 328 329 221 301 330 11
9 283 268 303 278 331 89 332 333 211
9 334 335 336 337 338 339 33 340 341
6 342 343 344 345 346 193
9 347 348 349 20 350 351 352 106 353
10 354 355 356 311 119 357 358 359 88 228
15 360 77 361 287 362 363 274 281 364 169 365 366 237 215 367
15 368 369 145 250 370 324 371 372 3 373 204 44 115 374 375
6 376 377 361 79 378 214
6 379 380 19 187 381 382
11 383 384 345 38 385 149 386 387 388 389 192
11 390 261 391 392 393 122 394 167 236 367 395
11 396 397 398 337 399 400 69 401 30 402 403
11 404 405 406 243 407 323 408 292 409 203 114
10 410 411 412 413 280 414 58 234 364 144
10 415 416 417 418 198 419 296 374 420 14
13 421 349 195 21 422 423 424 381 425 103 426 427 15
8 428 429 304 430 431 94 352 432
11 433 36 434 113 409 435 389 206 436 427 216
8 437 219 438 439 440 150 329 6
11 391 262 441 120 85 442 165 357 313 443 235
10 444 445 83 441 263 392 446 164 359 314
7 447 448 26 449 450 451 452
6 437 218 249 179 453 4
9 454 455 380 18 188 350 300 423 13
14 456 457 147 189 385 382 42 435 202 373 458 425 22 10
9 459 460 344 461 451 462 330 463 194
11 464 465 406 141 291 96 213 436 207 466 426
10 467 468 131 469 470 471 472 452 473 463
8 474 475 476 417 197 424 294 100
8 477 476 478 479 95 295 480 258
9 481 482 398 483 338 484 29 485 72
6 486 487 488 429 305 489
10 490 491 225 318 492 233 493 414 168 365
9 494 495 76 285 271 333 308 496 497
11 498 475 478 422 351 200 419 104 432 499 489
17 500 133 440 220 472 68 328 501 502 485 503 401 504 182 505 506 507
11 508 509 510 482 511 469 450 28 339 504 512
9 513 514 47 515 516 40 387 32 151
15 517 518 488 306 430 331 272 496 98 519 480 499 520 259 521
8 522 523 524 265 442 446 525 312
13 526 527 209 332 307 431 288 378 497 101 366 353 23
11 528 529 254 60 275 530 238 531 128 520 395
6 532 533 534 132 471 535
10 536 537 538 453 439 49 251 180 502 152
9 539 230 226 123 319 493 443 358 170
10 540 541 413 279 210 362 289 102 466 143
10 542 543 46 514 544 41 153 116 252 375
8 545 546 547 470 484 135 535 70
8 548 322 174 549 159 244 407 371
10 550 551 264 393 552 525 127 530 276 521
9 553 554 50 544 555 556 403 341 34
10 557 48 537 515 555 400 558 31 505 559
10 560 175 158 549 245 196 418 408 372 293
14 561 27 461 449 346 516 562 558 51 386 507 512 402 473
6 563 317 412 231 492 57
8 564 565 468 511 547 483 134 503
12 566 438 146 562 327 501 462 388 8 559 53 190
10 567 495 78 552 286 273 394 363 519 531
7 321 434 111 370 39 201 458
8 568 569 255 479 297 62 108 420
9 570 557 538 399 556 506 340 183 74
