ply
format ascii 1.0
element vertex 493
property float x
property float y
property float z
element face 590
property list uchar int vertex_indices
element cell 100
property list uchar int face_indices
end_header
1.334660919991 -0.000000000000 0.692950134008
1.342610918109 0.328945592488 0.697834957119
1.522063080484 -0.000000000000 0.580706066376
1.440591767816 -0.000000000000 0.303823825592
1.527938468726 -0.000000000000 0.391887303393
1.092668529938 -0.000000000000 0.584486247881
1.458566248437 0.339140969637 0.628682777743
1.534499737866 0.269735003427 0.399003245040
1.528737192006 0.270278333743 0.584634638889
1.133874345596 0.323136539186 0.604253388652
1.085537135888 0.268252703941 0.582367576827
1.084731851601 -0.000000000000 0.375533097053
1.115917460783 -0.000000000000 0.338817953452
1.078062818450 0.271352165100 0.387732102804
1.339905419446 0.350490921056 0.320771438119
1.444639341787 0.290778465603 0.308444516816
1.491345998617 0.314064518087 0.355577690083
1.451543990061 0.353207421962 0.377607549590
1.203580220013 0.342344190598 0.335323194730
1.115534647317 0.298960045955 0.344058448224
1.104837248610 0.304364794521 0.356739199986
1.133238724143 0.336374770157 0.373528922995
2.182233575493 1.000000000000 -0.000000000000
1.827009053350 1.000000000000 -0.000000000000
1.827828993123 1.000000000000 0.279470343199
2.021688283924 1.000000000000 0.380043669511
2.181605569408 1.000000000000 0.288745016487
1.824026733609 0.709698413170 -0.000000000000
1.824845905336 0.709132344994 0.281190668142
2.180173817712 0.699020482358 -0.000000000000
2.014513063257 0.607227310447 -0.000000000000
2.179578544391 0.701165838617 0.280445523485
2.009630899646 0.693590592393 0.377230904026
1.925796806085 0.654802719309 0.334173941141
2.012089351177 0.608403827930 0.285465398746
2.086940351245 0.650287288044 0.331723678686
-0.000000000000 1.000000000000 0.388543253639
-0.000000000000 0.765183429758 0.406488289156
-0.000000000000 1.000000000000 0.610674191564
-0.000000000000 0.767137044338 0.593568438472
0.345654158210 1.000000000000 0.285368495284
0.343976599437 1.000000000000 0.712307426579
0.492350444113 1.000000000000 0.406356889238
0.492452193123 1.000000000000 0.589734649453
0.480580204650 0.739615332942 0.413504612518
0.480811992218 0.742607617620 0.587387940264
0.312091780134 0.675631975849 0.320175265412
0.386227822829 0.655196510168 0.379832781729
0.416690054069 0.682032368220 0.364538408967
0.348743082493 0.703179235635 0.307129967566
0.320340801941 0.677063080175 0.681601415290
0.385052401461 0.658110390204 0.626896237596
0.413533442321 0.683643056022 0.640190207778
0.351167051485 0.701541641191 0.692507667343
1.653236184847 1.000000000000 0.381334731451
1.465377237800 1.000000000000 0.709805075467
1.656238772725 1.000000000000 0.604538286791
1.277694112934 1.000000000000 0.606058830452
1.281110239356 0.729551438929 0.610649107123
1.465939781052 1.000000000000 0.281309287553
1.277806509473 1.000000000000 0.389586918365
1.281293276239 0.724256561095 0.387027420417
1.652985149588 0.711144596636 0.618698005424
1.649825480177 0.711723094184 0.383304724363
1.376934094844 0.678175018459 0.664131267809
1.473233582849 0.735631131021 0.716789047494
1.579260709479 0.675218775625 0.660897505036
1.472873081652 0.624335979959 0.614317479583
1.376497500524 0.670702829744 0.332126531008
1.465522545380 0.622896694721 0.378588296294
1.554856180535 0.666377698674 0.333182863379
1.462087566084 0.717989089281 0.282961080730
0.927218338148 0.400069767075 1.000000000000
0.951653694136 0.637594758346 1.000000000000
0.933324633592 0.392783250519 0.731945755359
0.959060058990 0.634755184702 0.699001842631
0.724420312463 0.753851934915 1.000000000000
0.581703668587 0.640469380236 1.000000000000
0.583795600794 0.636918987665 0.707926448638
0.635318252797 0.677219052361 0.672479778049
0.728886675974 0.752443231687 0.722232194687
0.863843059044 0.683666423665 0.636783589738
0.767838745251 0.618483467874 0.596377204518
0.621753482795 0.368662823928 1.000000000000
0.663238527350 0.342880148178 1.000000000000
0.677811346658 0.335695904367 0.678021487197
0.623202060011 0.369457970527 0.708495013812
0.745061732484 0.358015599406 0.634564486689
0.763204799527 0.353152974863 0.645550720133
0.730522055144 0.346042667955 0.644623228852
2.953530813822 0.358973877714 0.641592065566
2.903592198795 0.730427716104 1.000000000000
2.742981431214 0.613040891909 0.720172595240
2.736703172227 0.616577621021 1.000000000000
3.135559992135 0.613101081448 0.741207611972
3.132512787262 0.618138914641 1.000000000000
3.066177842319 0.312791751446 1.000000000000
3.072472989239 0.345073238953 0.716624346644
3.136661633248 0.397143856448 0.753825524918
3.133939123204 0.371478694684 1.000000000000
2.936088332977 0.605206335886 0.617098873364
2.806386421431 0.655177413453 0.680173786104
2.906826317406 0.725198379156 0.733916716687
3.020637417120 0.668447981566 0.666395457200
2.768222243458 0.355662067197 0.741994361098
2.793862916241 0.324878239808 1.000000000000
2.745126858351 0.368966929136 1.000000000000
2.750559087849 0.371424539706 0.749350852056
0.000000000000 0.000000000000 1.000000000000
-0.000000000000 0.298272699370 1.000000000000
-0.000000000000 -0.000000000000 0.663657168785
-0.000000000000 0.297925749749 0.694281609143
0.362944663792 -0.000000000000 1.000000000000
0.287925099753 0.337210455140 0.670087312579
0.293965737393 0.338409627010 1.000000000000
0.357261859060 0.291009255570 1.000000000000
0.305067625310 -0.000000000000 0.633743803239
0.357171146233 -0.000000000000 0.678078315989
0.351705378138 0.289772693961 0.688833493186
0.321386726275 0.312050372786 0.664219977255
3.473973010806 1.000000000000 -0.000000000000
3.211130193848 1.000000000000 -0.000000000000
3.206514620199 1.000000000000 0.312499284589
3.184524739191 0.680534848073 -0.000000000000
3.179335659202 0.676234358393 0.327080064640
3.473259366900 0.642135512543 -0.000000000000
3.375330186997 0.593964065110 -0.000000000000
3.425292130460 1.000000000000 0.371301908430
3.515244063302 1.000000000000 0.294022300079
3.434332754566 0.702696717206 0.393828922032
3.518923658971 0.665006204144 0.324995597833
3.518760014804 0.663598621708 0.323849765064
3.369323009226 0.590088802452 0.324423747776
3.318433917188 0.615902047367 0.368544983297
3.280963949424 0.629504313819 0.357554387815
3.318617220549 0.612262515010 0.365322208437
4.000000000000 1.000000000000 0.000000000000
3.840464247161 1.000000000000 -0.000000000000
3.685597182163 1.000000000000 0.305266146679
4.000000000000 0.715238821997 -0.000000000000
3.883036960152 0.725951267248 -0.000000000000
4.000000000000 0.626832386845 0.328224637896
3.732161315020 0.653707755270 0.319520337292
3.720229074038 0.671060181614 0.337727036644
4.000000000000 1.000000000000 0.537485716093
4.000000000000 0.808028151276 0.536780142998
3.882236491287 0.815741661393 0.528230413004
3.878954124045 1.000000000000 0.528668543052
2.184654369732 0.364231379776 0.612455844306
2.573368789325 0.588097105124 0.401148048102
2.568135754150 0.595517254178 0.607300696978
2.193177332593 0.376405801177 0.385173194769
2.566564620272 0.348321943311 0.631040082129
2.572767498267 0.377301614514 0.392459484512
2.195758449171 0.589411326762 0.394515081197
2.187734701285 0.594035085005 0.614492304554
2.371920545498 0.377157059288 0.731287413262
2.394946817340 0.228632923957 0.587938222473
2.242666630733 0.323423121505 0.649252120249
2.294755201053 0.314557001776 0.326593486138
2.391536445632 0.245784099574 0.396854007473
2.480477582699 0.315784070005 0.341550424128
2.372411686194 0.366233356474 0.286804010491
2.354780952195 0.591477746519 0.720488104493
2.454870887476 0.649699217680 0.662169124644
2.366177748749 0.689958569462 0.615338004154
2.268211540464 0.639355483958 0.665573832716
2.441479019229 0.648030774454 0.334267367347
2.374844284261 0.608539318425 0.297705871888
2.301149972150 0.643819369014 0.339721112962
2.370119455014 0.682317518599 0.375081428088
2.533787417152 0.322593370195 0.650755664851
2.472235589720 0.308426337831 0.684614602232
2.474695619210 0.279313049017 0.656065336172
1.106967724760 1.000000000000 1.000000000000
1.472243975562 0.739837857363 1.000000000000
1.464491669943 1.000000000000 1.000000000000
1.102697050130 0.726898373422 1.000000000000
1.290989441650 0.633369789082 1.000000000000
1.106253883748 1.000000000000 0.707852299648
1.101892847207 0.719643237292 0.717302785501
1.288314894477 0.626979133002 0.714918578933
1.190688165237 0.674139413231 0.665693737345
3.697042883129 -0.000000000000 1.000000000000
3.389975669094 -0.000000000000 1.000000000000
3.399732093120 -0.000000000000 0.684803351333
3.379334298281 0.294725479177 1.000000000000
3.705958812487 0.307116798971 1.000000000000
3.554972203812 0.410356169251 1.000000000000
3.631746197921 -0.000000000000 0.612053687138
3.701688788375 -0.000000000000 0.667879410773
3.711240209731 0.332189196107 0.674483821568
3.388060873538 0.326335311971 0.681202550535
3.388905744673 0.314421515597 0.667804655405
3.615787623734 0.287117100896 0.598435200771
3.687878710611 0.349810803146 0.655783426643
3.556181629951 0.430005353679 0.767626451736
0.770642903081 -0.000000000000 -0.000000000000
0.765037794541 0.290711136491 -0.000000000000
0.592635238670 0.378183274821 -0.000000000000
0.399066876296 -0.000000000000 -0.000000000000
0.396572462690 -0.000000000000 0.287677266837
0.388252379546 0.266415365857 0.276798301024
0.390326610239 0.276732446746 -0.000000000000
0.764872315713 -0.000000000000 0.295864112804
0.661999326768 -0.000000000000 0.380033081418
0.759069332105 0.287577037196 0.309107561908
0.545145649192 0.343339578622 0.329084355288
0.677525327355 0.304241847930 0.376317818958
0.695287497191 0.318879327497 0.362217524562
0.596732401837 0.370036236122 0.304388837268
2.527889517477 1.000000000000 1.000000000000
2.545788391968 0.709353373501 1.000000000000
2.531943192161 1.000000000000 0.708767561280
2.712093357214 1.000000000000 0.615736823587
2.549925072050 0.706846455774 0.713895644395
2.902362506529 1.000000000000 1.000000000000
2.905693329145 1.000000000000 0.723924216389
2.716471078374 0.688488119951 0.628792843975
2.658284348997 0.654096218796 0.660531869019
1.107045499142 0.620600226599 0.622293683580
1.108065347817 0.615561382210 0.387548208248
1.289617268462 0.623186997152 0.288929358123
1.198702619907 0.671250564960 0.338378012935
1.131560225640 0.348112822582 0.631252365169
1.303420509206 0.362611537746 0.719179703381
1.284141249555 0.383064640113 0.291608492659
1.459072780658 0.345130967813 0.635056405054
1.342614712325 0.330269290498 0.699318599866
2.372125735083 0.362697641191 1.000000000000
2.353463386092 0.595538794344 1.000000000000
2.128157047254 0.252888726018 1.000000000000
2.183889821511 0.690601078705 1.000000000000
2.070712420304 0.653084887696 1.000000000000
1.960564557512 0.436304196749 1.000000000000
1.983313827926 0.351468618375 1.000000000000
1.982316695344 0.362194105161 0.715711516280
1.966348920301 0.421516562520 0.724794225779
2.123145036929 0.266945233429 0.698776007890
2.074288256985 0.301291504187 0.667806206320
2.085790535609 0.651132767485 0.667428593912
2.087276544279 0.654382845012 0.670851153026
2.184166854810 0.686996299013 0.709799486760
3.667831998257 0.582906382798 -0.000000000000
3.674971223770 0.616185356027 0.325119039184
3.658856280112 0.622509609016 0.338129991871
3.548577517899 0.654960842641 0.327874351200
1.849940789244 0.810305779105 1.000000000000
1.848759697036 0.822320249473 0.719130392983
1.664863110680 0.631395394115 1.000000000000
1.682948231049 0.554349591707 1.000000000000
1.817708646525 0.480919207414 0.639947653207
1.674736426113 0.545296268016 0.719949846254
1.653179463818 0.634117176687 0.700772681216
1.700912954123 0.682809326210 0.646348758253
1.824281999909 0.609138069227 0.584471222981
2.009395384009 0.711511772983 0.628961314217
2.008755966517 0.694225050754 0.617885357410
0.697580807496 -0.000000000000 1.000000000000
0.711174545902 -0.000000000000 0.684053260294
0.654450890214 -0.000000000000 0.626377821637
0.515376615778 0.337859894057 0.661996168455
0.669211170641 0.295876344600 0.633821967979
0.682099199847 0.306357945262 0.646658296944
1.641372272485 0.377730652092 -0.000000000000
1.642345545368 0.384313992127 0.278729608745
1.647106198504 0.615222446265 -0.000000000000
1.647918804362 0.614646779390 0.282897836969
1.287602066034 0.623579207151 -0.000000000000
1.460871236200 0.718789298202 -0.000000000000
1.457518486508 0.290142058345 -0.000000000000
1.282268649088 0.390508783705 -0.000000000000
1.724798995163 -0.000000000000 0.731426171278
1.730259349560 0.143749453648 0.734936069232
1.610770648344 0.298712155199 0.645512138311
1.901099337806 0.295340561739 0.635214972920
1.811718001469 0.365706926059 0.596103319501
1.812273583862 -0.000000000000 0.282358189882
1.958989849533 -0.000000000000 0.394887313836
1.965598431324 -0.000000000000 0.580567169426
1.965533100080 0.243533852569 0.592349894314
1.958679153689 0.246049063435 0.399916733676
1.726316071352 0.333358414271 0.327388045369
1.815719484483 0.276829594526 0.290927848748
1.877178334936 0.309823930054 0.338772226791
1.811363758300 0.362656303612 0.376995619352
2.523113768363 1.000000000000 -0.000000000000
2.369190293480 1.000000000000 0.382365205964
2.519628741986 1.000000000000 0.297860550387
2.531960751662 0.693927085697 -0.000000000000
2.378644896132 0.604756953753 -0.000000000000
2.528500821804 0.697680853381 0.286442064291
0.999228221026 0.290603706446 0.665569597065
0.975676641000 -0.000000000000 0.698289498327
0.842727279591 0.333923606384 0.332311942134
0.745001282312 0.359442730150 0.389842331710
4.000000000000 1.000000000000 1.000000000000
4.000000000000 0.671948120276 1.000000000000
3.684444705096 1.000000000000 1.000000000000
3.695386908590 0.738596129460 1.000000000000
3.658463614287 0.692784824528 0.703115285314
3.646370787607 1.000000000000 0.708978003597
4.000000000000 0.624071480504 0.736243215417
3.694544866539 0.679839865996 0.675291406009
3.654645867552 0.619597697791 0.343014255274
3.311557418918 0.622447783252 0.631292555917
3.663414402534 0.654368457579 0.665699805398
3.384927463053 0.678339722306 0.668680765803
3.555377370395 0.599592194726 0.761969765312
3.632491660210 0.668296834784 0.692144538297
3.449677193737 0.724173035907 0.622781422760
3.624038108645 0.327019634071 0.392420662233
3.702006491860 0.365816403431 0.642862878435
3.687770495116 0.391184535996 0.386347951674
3.353776356709 0.382674272555 0.359962778373
3.324492532977 0.382981324881 0.384924587603
3.318764436862 0.352073861639 0.643469375659
3.319697422688 0.335651267534 0.624772117714
2.228572854721 1.000000000000 1.000000000000
2.365316951285 1.000000000000 0.619627900479
2.229424406025 1.000000000000 0.690181924229
1.307529797816 0.343019383909 1.000000000000
1.028544088804 0.309272279658 1.000000000000
1.005387036070 0.327987059936 0.699236198096
1.007117493327 0.662509268971 0.671496712733
2.789985797192 -0.000000000000 1.000000000000
3.073160537286 -0.000000000000 1.000000000000
3.081483750071 -0.000000000000 0.663816156254
2.755269265268 -0.000000000000 0.655604271848
2.833256037344 -0.000000000000 0.581385744692
2.827747112454 0.229559312473 0.576303259020
2.756990074120 0.254848512218 0.642503916836
3.075096367751 0.293083105620 0.657541754903
2.955622432219 0.336890269262 0.617246559301
3.241610960296 -0.000000000000 0.373106361781
3.233718446084 -0.000000000000 0.583259580775
3.233732812410 0.265518483717 0.574505624299
3.537355685169 -0.000000000000 0.242839669954
3.644686493182 -0.000000000000 0.359731493619
3.630753592042 0.263809406176 0.332980746033
3.535869233763 0.192219043639 0.232785688604
3.241877812497 0.288966433474 0.356890207105
3.350852332138 0.328938722378 0.306663298779
3.241102914021 0.307654188665 0.376934155794
3.064158519306 -0.000000000000 0.218255686485
2.821480516020 -0.000000000000 0.377884317193
2.816050210836 0.260661198335 0.386370615878
3.076268063314 0.244567266467 0.214901205203
2.881388338386 0.329261185687 0.344685875296
3.009080444198 0.320752981575 0.260532209124
3.021651088954 0.381187721966 0.333849270399
2.956474921502 0.389382217081 0.381932421399
2.940527229546 0.600632677035 0.410414373539
2.589216020229 0.335219736647 0.647203071272
2.707396296717 0.323344573631 0.310072159370
2.735349829881 0.349846356019 0.294583835462
2.725964809440 0.681378571083 0.377624265696
2.666664005181 0.643124569539 0.348021290132
2.700561149355 0.629442391993 0.327273470535
2.762311853886 0.667319997598 0.356025920491
3.204174538155 0.662893645388 0.695513392568
3.077581445344 0.708414404883 0.629953544683
3.167049924437 0.671021958834 0.334918006038
3.082513875127 0.702923306965 0.389448270729
3.016309692114 0.653730149901 0.359509690329
3.066098466854 0.628697795109 0.321278714119
2.455954157008 0.303185142939 1.000000000000
1.101825203447 -0.000000000000 -0.000000000000
1.453287117106 -0.000000000000 -0.000000000000
1.101218693743 0.301812111659 -0.000000000000
2.376184698821 0.373096037254 -0.000000000000
2.708548488505 0.623545648635 -0.000000000000
2.739286263553 0.371240943745 -0.000000000000
2.620601002279 0.262691791607 -0.000000000000
2.626129914929 0.252804468556 0.247397516857
4.000000000000 -0.000000000000 0.312925511157
4.000000000000 -0.000000000000 0.632019491608
4.000000000000 0.341369876152 0.639986333895
4.000000000000 0.273489842058 0.283290398245
4.000000000000 0.366535643738 0.373094352853
3.717495896450 0.337833178953 0.313532902524
3.711163813074 0.391310532615 0.364432937519
3.803315763577 0.355423999771 0.663957691924
3.443223993220 1.000000000000 0.629762491189
3.292469226706 1.000000000000 0.737544379660
3.292936383675 1.000000000000 1.000000000000
3.288919131789 0.734581411429 1.000000000000
3.288334584107 0.726753607952 0.738155221871
3.553999686281 0.607622405066 1.000000000000
1.845179157171 1.000000000000 1.000000000000
1.844261295033 1.000000000000 0.706882570704
0.933618975224 0.384079298510 -0.000000000000
0.936754088252 0.385972614039 0.282845454408
2.720471621339 1.000000000000 0.391456041889
0.000000000000 1.000000000000 1.000000000000
-0.000000000000 0.672966538903 1.000000000000
0.346175368842 1.000000000000 1.000000000000
-0.000000000000 0.667226699039 0.679353460875
0.283910403110 0.648857649611 1.000000000000
0.353455964626 0.704028789244 1.000000000000
0.278693949302 0.644083033776 0.708528481366
1.093388826966 1.000000000000 -0.000000000000
0.713970593403 1.000000000000 -0.000000000000
0.715797024859 0.719862840470 -0.000000000000
1.093449006362 1.000000000000 0.282956125612
0.929483535933 0.624299022793 -0.000000000000
1.093206519111 0.726104294865 -0.000000000000
1.093266120475 0.726718841315 0.278314995947
0.719199203953 1.000000000000 0.281992348561
0.900110943309 1.000000000000 0.391103581218
0.721010706859 0.721442598755 0.281742701266
0.990262761859 0.662787141542 0.334822271003
0.896897495483 0.702080359486 0.387729997904
0.845295041529 0.666897762945 0.356438075284
0.932836883243 0.627014121243 0.303594862121
2.009341012421 0.377559860441 -0.000000000000
1.807794181587 -0.000000000000 -0.000000000000
1.811049140006 0.272230393539 -0.000000000000
2.202397260160 -0.000000000000 -0.000000000000
2.205088096683 -0.000000000000 0.259005518985
2.207737115289 0.258309092610 0.262642804699
2.205031061909 0.260541899004 -0.000000000000
2.096376469001 0.324753125487 0.325441811693
2.007006190772 0.378314790893 0.274002954953
4.000000000000 0.000000000000 1.000000000000
4.000000000000 0.378860545808 1.000000000000
4.000000000000 0.399908614119 0.711926049619
3.070111279928 1.000000000000 0.623190913083
3.074612597949 1.000000000000 0.397143358702
1.328746989750 -0.000000000000 1.000000000000
1.560978563247 0.342206616868 1.000000000000
1.336529468854 0.318247891789 1.000000000000
1.723616810320 -0.000000000000 1.000000000000
1.728627416257 0.131537190003 1.000000000000
1.564668979270 0.354501395467 0.685330977119
2.869379055394 1.000000000000 -0.000000000000
2.870273051390 0.720290596391 -0.000000000000
2.864297755451 1.000000000000 0.307848314305
2.865330452619 0.727058294449 0.298134681891
3.058686736349 0.627666715837 -0.000000000000
1.824053523750 0.608174630687 0.385365988374
1.734871443309 0.660898448189 0.333682010120
1.464719664425 1.000000000000 -0.000000000000
3.358091842259 0.354306457362 -0.000000000000
3.703700327227 0.350515059326 -0.000000000000
3.539311108577 0.213075918096 -0.000000000000
-0.000000000000 0.382935316181 0.619821751274
0.286815941554 0.360050415885 0.650042445371
2.020875354742 1.000000000000 0.597434955429
2.142109059139 -0.000000000000 1.000000000000
2.137828188317 -0.000000000000 0.695621507741
0.767393523238 0.615125844113 0.396756608863
0.897810594687 0.706162566702 0.614108322680
4.000000000000 0.282069041477 -0.000000000000
0.347476033378 1.000000000000 -0.000000000000
0.350728201551 0.700943569315 -0.000000000000
0.582754595405 0.627703859186 -0.000000000000
0.586365215285 0.628096159487 0.292421656711
0.643536796109 0.667468801771 0.324360021055
1.000602703885 -0.000000000000 1.000000000000
0.287539834654 0.344295845031 -0.000000000000
0.274359693911 0.643214033883 -0.000000000000
0.266200212712 0.640601599560 0.292276757034
0.358768051133 0.392304245571 0.408960862708
0.278618435958 0.336339471097 0.327511963898
0.276665211244 0.364646386741 0.352417176185
0.317717757431 0.361022897766 0.383995331811
0.314229724955 0.312591778995 0.335564832861
2.466059780762 -0.000000000000 1.000000000000
2.392795364181 -0.000000000000 0.591264279480
2.483285059358 -0.000000000000 0.669873692844
2.631226503206 -0.000000000000 0.239042919053
2.389092954054 -0.000000000000 0.393449406985
-0.000000000000 0.385912006110 0.386661957855
-0.000000000000 0.667091590676 0.323880111145
0.356865762814 0.384936801732 0.599145624637
0.322730408692 0.357601858224 0.621160503103
2.626083693015 -0.000000000000 -0.000000000000
3.006761791215 0.340344492644 -0.000000000000
0.299280081017 -0.000000000000 0.368979870893
0.000000000000 1.000000000000 0.000000000000
-0.000000000000 0.670898879809 -0.000000000000
0.900926361252 1.000000000000 0.603463714573
3.061902615436 -0.000000000000 -0.000000000000
3.074821994922 0.260177955667 -0.000000000000
4.000000000000 0.000000000000 0.000000000000
3.541132166561 -0.000000000000 -0.000000000000
0.000000000000 0.000000000000 0.000000000000
-0.000000000000 0.283642925023 -0.000000000000
-0.000000000000 -0.000000000000 0.324069406036
-0.000000000000 0.278220911044 0.292331801358
0.721472617841 1.000000000000 1.000000000000
0.726008635608 1.000000000000 0.716830782600
7 3 4 2 0 5 11 12
6 14 15 3 12 19 18
7 14 17 6 1 9 21 18
5 1 0 5 10 9
5 2 0 1 6 8
4 4 2 8 7
5 3 4 7 16 15
4 10 5 11 13
5 7 8 6 17 16
5 9 10 13 20 21
5 13 11 12 19 20
4 14 15 16 17
4 18 19 20 21
5 22 23 24 25 26
5 27 23 22 29 30
4 26 22 29 31
4 24 23 27 28
5 28 24 25 32 33
5 25 26 31 35 32
5 30 27 28 33 34
5 31 29 30 34 35
4 32 33 34 35
4 36 37 39 38
6 40 36 38 41 43 42
6 47 46 37 39 50 51
5 40 36 37 46 49
5 41 38 39 50 53
5 44 42 40 49 48
5 45 43 41 53 52
4 42 43 45 44
6 47 48 44 45 52 51
4 46 47 48 49
4 50 51 52 53
6 57 55 56 54 59 60
4 56 54 63 62
6 61 58 64 67 69 68
5 63 54 59 71 70
5 55 57 58 64 65
5 55 56 62 66 65
4 57 58 61 60
5 59 60 61 68 71
6 67 66 62 63 70 69
4 64 65 66 67
4 68 69 70 71
6 72 73 76 77 83 84
4 77 78 86 83
5 75 73 76 80 81
6 85 84 72 74 88 89
4 72 73 75 74
6 74 75 81 82 87 88
5 76 77 78 79 80
7 85 86 78 79 82 87 89
4 79 80 81 82
4 83 84 85 86
3 87 88 89
7 96 99 95 91 93 106 105
5 96 97 90 104 105
5 91 95 94 103 102
6 92 101 100 90 104 107
6 94 98 97 90 100 103
4 93 92 107 106
5 92 93 91 102 101
4 94 95 99 98
4 96 97 98 99
4 100 101 102 103
4 104 105 106 107
4 108 109 111 110
5 112 108 110 116 117
5 109 108 112 115 114
4 109 111 113 114
5 110 111 113 119 116
4 115 112 117 118
5 113 114 115 118 119
4 116 117 118 119
5 120 121 122 127 128
5 123 121 120 125 126
5 128 120 125 131 130
4 122 121 123 124
6 124 122 127 129 133 134
6 132 126 123 124 134 135
4 125 126 132 131
4 127 128 130 129
6 129 130 131 132 135 133
3 133 134 135
5 141 139 136 144 145
5 136 137 138 147 144
4 137 136 139 140
5 138 137 140 142 143
4 143 138 147 146
4 140 139 141 142
5 141 142 143 146 145
4 144 145 146 147
7 156 163 164 150 152 171 172
6 157 158 148 151 159 160
6 149 153 161 162 168 167
4 151 148 155 154
4 149 150 152 153
6 156 158 148 155 166 163
6 149 150 164 165 170 167
6 162 159 151 154 169 168
7 152 153 161 160 157 173 171
6 154 155 166 165 170 169
5 157 158 156 172 173
4 159 160 161 162
4 163 164 165 166
4 167 168 169 170
3 171 172 173
5 174 176 55 57 179
5 175 176 174 177 178
5 178 175 65 64 181
4 174 177 180 179
4 175 176 55 65
5 180 177 178 181 182
5 57 179 180 182 58
4 64 181 182 58
5 183 184 185 189 190
5 186 184 183 187 188
4 183 187 191 190
5 185 184 186 192 193
4 189 185 193 194
4 188 186 192 196
5 191 187 188 196 195
5 189 190 191 195 194
5 192 193 194 195 196
5 201 200 197 204 205
5 199 198 197 200 203
5 205 201 202 207 208
4 198 197 204 206
5 199 203 202 207 210
5 206 198 199 210 209
4 200 201 202 203
5 206 204 205 208 209
4 207 208 209 210
5 214 213 211 216 217
5 216 211 212 93 91
4 212 211 213 215
5 214 217 102 101 218
5 215 212 93 92 219
5 215 213 214 218 219
4 217 216 91 102
4 218 101 92 219
5 67 69 17 6 227
5 21 221 220 224 9
5 181 182 220 224 225
6 67 64 181 225 228 227
6 58 182 220 221 223 61
6 17 69 68 222 226 14
6 21 221 223 222 226 18
4 61 68 222 223
5 9 224 225 228 1
3 226 14 18
4 6 227 228 1
7 231 229 230 232 233 234 235
5 237 234 233 241 240
5 156 229 231 238 158
4 229 156 163 230
6 148 239 236 237 240 155
5 232 230 163 166 242
5 236 235 231 238 239
4 232 233 241 242
4 234 235 236 237
4 158 238 239 148
5 155 240 241 242 166
4 137 120 128 138
5 120 137 140 243 125
6 128 138 143 245 246 130
4 140 243 244 142
6 245 244 243 125 131 246
4 143 142 244 245
3 131 130 246
5 234 233 247 249 250
5 237 234 250 252 251
5 233 247 248 256 241
5 249 247 248 254 253
5 237 251 255 257 240
5 255 254 248 256 257
4 249 250 252 253
5 251 252 253 254 255
4 241 256 257 240
5 258 112 117 260 259
5 115 112 258 84 83
5 259 258 84 85 263
5 260 117 118 261 262
5 83 115 118 261 86
4 259 260 262 263
5 261 262 263 85 86
6 268 269 266 264 270 271
4 222 268 271 226
4 264 265 267 266
6 265 267 70 69 17 16
5 270 264 265 16 15
5 269 266 267 70 71
5 222 268 269 71 68
5 270 271 226 14 15
6 277 278 279 272 2 4
5 277 4 7 282 283
6 276 274 8 7 282 285
5 275 273 272 279 280
4 274 273 275 276
5 272 273 274 8 2
6 281 280 275 276 285 284
5 277 278 281 284 283
4 278 279 280 281
4 282 283 284 285
5 286 22 26 287 288
5 29 22 286 289 290
4 288 286 289 291
5 31 26 287 170 169
5 290 29 31 169 168
5 287 288 291 167 170
5 291 289 290 168 167
7 205 204 11 5 293 259 260
7 295 294 13 10 292 88 87
5 13 11 204 206 294
6 292 293 259 263 89 88
4 205 260 262 208
4 292 293 5 10
7 263 262 208 209 295 87 89
4 206 294 295 209
5 296 297 302 145 144
5 301 298 296 144 147
4 297 296 298 299
5 297 299 300 303 302
4 299 298 301 300
5 303 300 301 147 146
4 303 302 145 146
4 306 304 313 312
6 194 311 314 315 317 193
6 196 308 307 305 316 192
7 129 310 309 306 304 246 130
7 304 313 311 314 132 131 246
6 315 135 133 305 316 317
5 310 307 305 133 129
6 196 308 309 306 312 195
4 307 308 309 310
5 311 194 195 312 313
4 314 315 135 132
4 316 192 193 317
5 318 211 213 319 320
5 212 211 318 232 230
4 318 320 242 232
5 215 212 230 163 164
5 319 213 215 164 165
5 319 320 242 166 165
6 321 178 177 73 72 322
5 321 225 224 323 322
4 178 321 225 181
6 224 323 74 75 324 220
5 75 73 177 180 324
4 72 322 323 74
4 182 180 324 220
5 327 326 325 328 329
4 325 326 96 105
5 325 105 104 331 328
5 327 326 96 97 332
5 330 329 327 332 333
5 104 331 330 333 90
4 328 329 330 331
4 97 332 333 90
6 189 185 335 334 337 338
5 334 337 340 342 341
5 189 194 311 339 338
5 334 335 336 343 341
5 193 185 335 336 317
5 340 339 311 314 342
4 317 336 343 315
4 337 338 339 340
5 341 342 314 315 343
6 344 334 335 327 329 345
6 343 336 332 333 351 350
6 347 344 345 346 348 349
4 334 344 347 341
4 335 327 332 336
5 333 330 346 348 351
4 329 345 346 330
5 343 341 347 349 350
4 348 349 350 351
7 330 331 353 152 153 354 346
6 355 348 351 352 359 358
5 100 352 351 333 90
6 107 353 152 150 219 92
6 352 100 101 218 356 359
6 149 153 354 355 358 357
6 149 150 219 218 356 357
4 107 104 331 353
4 354 346 348 355
4 356 357 358 359
7 315 343 350 365 362 134 135
7 362 363 361 360 305 133 134
5 98 316 305 360 94
6 361 103 100 352 364 363
5 352 351 350 365 364
6 336 317 316 98 97 332
4 360 361 103 94
4 362 363 364 365
6 106 93 212 230 229 366
6 107 106 366 172 171 353
4 229 366 172 156
4 164 150 219 215
3 171 353 152
4 12 367 368 3
5 368 367 369 271 270
4 367 12 19 369
4 368 3 15 270
5 271 369 19 18 226
6 370 290 289 371 372 373
4 358 371 372 355
5 373 370 162 161 374
4 162 370 290 168
5 289 371 358 357 291
5 373 372 355 354 374
4 161 374 354 153
4 167 149 357 291
5 377 376 375 378 379
5 338 375 376 190 189
5 378 375 338 339 380
5 190 376 377 382 191
6 313 381 379 377 382 312
4 378 379 381 380
5 311 339 380 381 313
4 382 191 195 312
5 298 301 383 384 385
5 298 385 386 388 299
5 388 386 387 307 308
5 383 301 300 309 310
5 387 384 383 310 307
4 384 385 386 387
5 388 299 300 309 308
5 56 55 176 389 390
5 176 175 249 247 389
5 65 175 249 253 66
5 248 390 56 62 254
4 247 389 390 248
4 253 254 62 66
5 204 197 367 12 11
5 369 367 197 198 391
5 369 391 392 20 19
5 206 198 391 392 294
4 392 294 13 20
6 319 213 214 393 288 287
4 319 287 170 165
4 214 393 356 218
5 356 393 288 291 357
5 395 394 38 39 397
4 38 394 396 41
5 396 394 395 398 399
4 395 397 400 398
4 396 41 53 399
4 39 397 400 50
5 398 399 53 50 400
5 404 401 402 408 409
5 403 402 401 406 405
5 410 403 405 414 413
4 401 404 407 406
4 402 403 410 408
5 407 404 409 412 411
5 405 406 407 411 414
5 410 408 409 412 413
4 411 412 413 414
5 416 418 419 278 277
5 416 417 415 421 418
5 420 419 278 281 422
5 415 417 283 284 423
5 415 421 420 422 423
4 417 416 277 283
4 418 419 420 421
4 422 281 284 423
5 425 424 376 377 426
4 424 183 190 376
4 183 424 425 187
5 191 187 425 426 382
3 377 426 382
6 427 384 383 127 122 428
5 361 427 384 387 360
4 383 127 129 310
4 361 427 428 363
5 363 428 122 124 362
4 360 305 307 387
3 124 134 362
5 429 0 2 272 432
5 430 431 429 432 433
5 273 433 430 434 274
5 0 429 431 228 1
5 434 430 431 228 227
4 432 272 273 433
5 434 274 8 6 227
5 121 435 437 428 122
5 436 435 121 123 439
4 435 436 438 437
5 439 436 438 364 365
5 428 437 438 364 363
5 124 123 439 365 362
6 266 27 30 415 417 264
4 415 423 34 30
6 423 34 33 440 285 284
6 440 441 267 265 282 285
5 267 266 27 28 441
5 417 264 265 282 283
4 33 440 441 28
5 59 442 401 404 60
5 406 401 442 269 268
4 59 442 269 71
5 268 406 407 223 222
5 407 404 60 61 223
6 243 444 445 443 126 125
5 244 243 444 380 381
5 443 342 314 132 126
4 443 445 340 342
5 444 445 340 339 380
5 313 381 244 245 304
3 245 246 304
5 109 395 397 446 111
4 109 114 398 395
5 114 398 400 447 113
4 400 397 446 447
4 446 111 113 447
5 389 318 320 448 390
5 318 389 247 233 232
5 256 448 320 242 241
4 448 390 248 256
5 427 217 216 385 384
5 385 216 91 95 386
5 427 217 102 103 361
5 95 386 387 360 94
5 279 450 449 432 272
5 449 231 235 433 432
5 273 433 235 236 275
4 449 231 238 450
5 279 450 238 239 280
4 236 275 280 239
6 148 151 422 281 280 239
5 285 440 255 251 276
6 154 151 422 423 34 35
5 440 255 257 32 33
6 257 240 155 154 35 32
5 237 251 276 275 236
6 415 30 29 290 370 421
5 162 370 421 420 159
4 422 420 159 151
4 154 169 31 35
6 25 24 54 56 390 448
5 25 32 257 256 448
5 24 54 63 441 28
6 255 254 62 63 441 440
6 392 20 21 221 411 414
6 221 220 324 452 412 411
4 295 87 82 451
6 392 294 295 451 413 414
6 452 81 82 451 413 412
4 74 88 292 323
4 324 75 81 452
5 292 10 9 224 323
6 379 141 145 302 426 377
6 302 303 306 312 382 426
5 141 379 381 244 142
6 304 306 303 146 143 245
5 453 139 141 379 378
5 139 453 444 243 140
4 444 453 378 380
5 408 402 454 40 42
5 455 454 402 403 456
5 456 455 49 48 457
4 455 454 40 49
5 410 408 42 44 458
5 410 403 456 457 458
4 457 48 44 458
5 0 429 459 293 5
5 322 459 429 431 321
5 293 459 322 323 292
4 431 321 225 228
5 368 416 277 4 3
5 416 368 270 264 417
4 282 7 16 265
5 23 442 59 54 24
5 269 442 23 27 266
4 70 63 441 267
6 405 391 198 199 456 403
4 199 210 457 456
4 405 391 392 414
6 451 458 457 210 209 295
4 413 410 458 451
6 448 320 319 287 26 25
6 456 199 203 460 461 455
5 462 461 460 464 465
6 463 207 210 457 48 47
5 202 203 460 464 467
6 462 46 47 463 466 465
5 462 461 455 49 46
5 202 207 463 466 467
4 464 465 466 467
5 468 449 450 469 470
5 231 449 468 366 229
5 468 366 172 173 470
5 450 238 158 157 469
4 469 470 173 157
7 470 469 472 471 345 329 328
6 331 328 470 173 171 353
5 471 472 160 161 374
5 471 345 346 354 374
4 160 472 469 157
6 473 446 397 39 37 474
4 465 473 474 462
6 447 446 473 465 466 476
4 47 51 475 463
6 51 50 400 447 476 475
4 37 474 462 46
4 463 475 476 466
5 472 419 418 477 471
5 418 421 370 373 477
5 420 419 472 160 159
4 477 471 374 373
6 383 301 147 138 128 127
4 300 309 306 303
5 439 478 372 371 436
5 365 439 478 349 350
5 478 372 355 348 349
5 358 371 436 438 359
4 438 364 352 359
6 450 279 278 419 472 469
6 479 201 205 260 117 116
6 467 479 116 119 476 466
6 207 208 262 261 475 463
4 479 201 202 467
5 261 118 119 476 475
5 36 480 481 474 37
4 480 36 40 454
5 481 480 454 455 461
4 461 481 474 462
6 60 404 409 482 179 57
5 452 482 179 180 324
4 482 452 412 409
4 221 411 407 223
5 345 471 477 483 344
6 483 477 373 372 478 484
4 483 344 347 484
4 349 347 484 478
4 375 485 453 378
5 485 375 338 337 486
5 444 453 485 486 445
4 337 486 445 340
5 435 286 288 393 437
5 286 435 436 371 289
5 438 437 393 356 359
5 185 184 326 327 335
5 326 184 186 99 96
5 98 99 186 192 316
4 488 487 489 490
5 489 487 200 201 479
5 200 487 488 460 203
4 488 490 464 460
5 489 490 464 467 479
4 459 258 259 293
5 84 258 459 322 72
3 89 85 263
4 302 297 425 426
6 187 425 297 299 388 188
4 388 188 196 308
6 214 217 427 428 437 393
5 491 174 179 482 492
5 174 491 76 73 177
4 76 491 492 80
5 482 492 80 81 452
6 473 490 489 110 111 446
4 116 110 489 479
4 473 490 464 465
4 476 119 113 447
7 430 250 249 175 178 321 431
4 434 430 250 252
6 227 434 252 253 66 67
5 334 344 483 486 337
5 483 484 443 445 486
5 341 342 443 484 347
5 396 491 492 43 41
5 396 399 77 76 491
5 53 399 77 78 52
5 80 492 43 45 79
4 79 45 52 78
6 475 51 52 78 86 261
6 451 82 79 45 44 458
5 250 430 433 235 234
5 252 434 274 276 251
6 492 482 409 408 42 43
6 386 95 99 186 188 388
5 474 481 488 490 473
4 460 488 481 461
6 268 271 369 391 405 406
6 439 123 126 443 484 478
4 325 468 470 328
5 366 468 325 105 106
6 114 115 83 77 399 398
13 0 1 2 3 4 5 6 7 8 9 10 11 12
9 13 14 15 16 17 18 19 20 21
11 22 23 24 25 26 27 28 29 30 31 32
11 33 34 35 36 37 38 39 40 41 42 43
11 44 45 46 47 48 49 50 51 52 53 54
11 55 56 57 58 59 60 61 62 63 64 65
8 66 67 68 69 70 71 72 73
10 74 75 76 77 78 79 80 81 82 83
8 84 85 86 87 88 89 90 91
15 92 93 94 95 96 97 98 99 100 101 102 103 104 105 106
9 107 108 109 110 111 112 37 113 114
9 115 116 117 118 119 120 121 122 123
9 124 125 126 127 128 129 130 131 132
9 133 134 135 136 137 138 139 61 140
14 141 2 142 35 143 144 145 146 147 114 148 149 150 151
12 152 153 154 155 156 97 157 158 159 160 161 162
9 163 164 87 76 165 166 167 168 169
10 170 171 172 173 153 174 175 176 177 178
9 179 180 181 182 183 71 53 184 185
11 186 187 188 189 190 191 146 192 193 43 11
11 194 195 196 197 198 199 200 201 202 5 203
9 204 205 206 15 207 208 209 210 105
12 211 212 213 214 215 216 131 7 184 217 218 54
8 219 220 221 222 223 224 225 91
15 226 227 228 229 230 231 232 233 123 234 235 236 82 237 169
9 238 239 240 135 241 242 243 157 104
10 244 245 246 48 112 143 247 248 249 250
9 251 252 253 254 56 255 256 257 258
11 259 260 227 119 261 262 263 264 265 266 267
11 268 269 270 255 271 262 272 273 274 275 276
15 277 278 58 279 280 96 281 282 283 273 256 284 285 140 286
15 269 287 288 231 279 59 289 290 291 292 265 293 258 294 83
11 295 296 241 92 137 280 155 60 297 298 299
8 300 301 1 302 303 304 193 150
11 305 306 307 308 94 309 210 282 310 311 312
11 313 314 315 316 317 261 122 318 235 319 320
9 321 322 323 223 324 325 326 327 234
9 328 329 173 111 330 38 331 332 333
9 334 335 302 213 127 336 337 338 10
11 339 340 341 342 242 138 209 98 283 298 312
8 343 344 345 26 346 347 348 349
9 350 351 352 353 354 355 356 357 358
9 359 360 361 362 363 364 365 201 366
7 367 368 369 117 316 370 371
11 372 78 373 288 374 375 325 376 232 377 378
10 379 380 381 382 383 4 199 384 385 151
9 386 387 77 388 389 390 391 376 294
11 392 188 393 394 362 19 395 396 397 398 203
9 399 400 401 402 353 40 403 192 148
12 404 405 406 230 407 408 167 264 80 409 319 410
7 411 412 413 69 414 346 415
8 416 417 172 240 418 332 419 159
9 420 421 373 57 139 422 326 423 293
9 424 425 426 427 197 158 428 384 429
14 430 431 394 174 432 95 156 433 434 200 435 366 429 21
11 436 308 393 208 363 432 99 20 437 438 439
11 440 441 34 17 442 331 175 433 443 419 398
15 212 142 444 49 247 445 446 447 448 338 449 9 450 451 358
11 452 453 226 454 317 455 90 225 409 371 168
8 456 457 405 458 454 89 166 318
9 459 460 461 462 463 354 464 27 465
10 466 467 468 245 382 3 216 469 149 451
9 470 471 195 303 190 364 397 6 472
9 473 474 16 401 36 191 442 396 475
11 476 477 478 352 337 129 447 479 464 480 218
12 481 340 441 207 418 243 18 434 101 439 162 178
12 482 483 477 484 461 128 485 486 487 488 31 489
9 490 491 492 154 493 427 297 102 494
12 495 277 496 497 100 498 274 499 311 494 257 299
11 500 24 414 501 502 503 486 504 348 505 506
9 507 508 307 497 437 509 365 510 103
11 511 88 165 229 374 324 455 224 81 512 410
10 513 514 306 389 515 278 516 291 517 276
11 518 493 361 430 93 509 428 202 499 438 161
11 519 520 182 126 521 215 522 488 73 523 506
8 524 525 526 25 527 462 487 505
11 528 529 355 145 39 445 403 530 113 531 250
10 532 533 270 515 498 310 510 534 535 285
8 536 537 538 315 458 408 266 539
9 540 541 206 388 342 516 309 542 286
10 543 544 254 118 545 263 272 292 63 237
8 546 547 548 549 550 130 485 522
9 551 552 181 468 214 47 249 449 553
11 554 555 453 222 370 121 233 327 556 320 512
11 557 341 375 390 136 281 422 542 290 517 64
9 558 559 46 110 529 560 248 561 450
10 562 563 520 70 550 502 564 415 489 565
11 566 567 246 109 383 330 144 568 176 42 469
8 569 570 571 260 407 271 534 539
9 572 573 574 347 575 50 560 28 576
15 577 521 578 484 446 51 479 503 30 576 465 217 185 132 553
9 579 171 426 381 567 580 198 160 435
11 581 578 463 575 530 357 561 448 29 52 480
10 582 323 228 545 289 120 62 423 556 377
7 583 584 483 549 501 527 564
11 585 478 187 402 444 304 336 147 356 531 12
12 586 514 406 571 287 79 391 275 535 236 267 378
15 141 196 431 189 568 395 41 580 443 177 472 8 475 385 333
9 587 588 253 492 296 496 284 65 106
12 589 413 45 183 577 574 504 72 349 523 32 565
