ply
format ascii 1.0
element vertex 549
property float x
property float y
property float z
element face 646
property list uchar int vertex_indices
element cell 100
property list uchar int face_indices
end_header
-0.000000000000 -0.000000000000 2.011667855094
-0.000000000000 0.116974027489 2.171180229516
0.407665889509 0.159711273605 2.259545175585
0.355829367270 -0.000000000000 2.313858727616
0.384052735583 0.165450994264 2.272910477058
0.194047206401 0.257938024509 2.152717475820
0.310633586904 0.286367571527 2.064900474567
0.277782736705 0.252683032905 2.184389957228
-0.000000000000 -0.000000000000 2.225265531505
-0.000000000000 0.025603374118 2.225987644997
0.334936812030 0.063760519395 2.317179195008
0.347621366436 -0.000000000000 2.318793706402
0.228524936543 -0.000000000000 1.763544022453
0.669456269770 -0.000000000000 1.966845169560
0.651869861276 0.154896527897 1.989253176414
0.674691845321 0.132823910516 1.963581418027
0.455572389064 0.249718593507 1.857554730452
0.432813559832 0.284146523684 1.929213281713
0.527612895894 0.298067443830 0.152327015189
0.538792874378 0.265987460286 0.135730933146
0.383407582591 0.242447069284 0.090544131549
0.494065034838 0.192163069782 0.083322649843
0.497990076528 0.194528518620 -0.000000000000
0.633143525747 0.410420554971 0.004831767559
0.633693365085 0.411071912865 -0.000000000000
0.492696164253 0.575267121759 0.208064215155
0.546671919734 0.569513503009 0.131230081008
0.557870730159 0.596329385532 -0.000000000000
0.163343038686 0.345589339286 0.041991488353
0.170938447131 0.344210545841 -0.000000000000
0.329147881886 0.699812126890 -0.000000000000
0.048490561932 0.519258440150 -0.000000000000
0.059502882528 0.493745549575 0.043278877641
0.418729397074 0.612543100048 0.192379420379
-0.000000000000 0.778602102174 1.547108210007
-0.000000000000 1.000000000000 1.315330204599
-0.000000000000 0.842969470352 1.339475463903
0.197832937777 0.790724502418 1.341166947129
0.283966490303 1.000000000000 1.306227300255
0.226981553582 0.799778069148 1.338840460901
-0.000000000000 0.819961817576 1.706554220615
-0.000000000000 1.000000000000 1.837207483185
0.384834609948 1.000000000000 1.909105218705
0.496516204364 1.000000000000 1.766464272433
0.365104545963 1.000000000000 1.345509703427
0.403794617903 0.874717140635 1.401910819043
-0.000000000000 1.000000000000 2.264944721262
0.346282276609 1.000000000000 2.578031244215
0.524649768547 1.000000000000 2.429867711349
0.522511350254 0.742366406157 2.368218584559
0.446721577179 0.631477628090 2.403875339536
0.450352629896 0.806459708725 2.148005271412
0.284664971192 0.564664754161 2.522041695805
0.266348889361 0.566321547005 2.537664090626
0.239666461007 0.574846728719 2.512912372251
0.419552953523 0.868497633246 2.061377087714
-0.000000000000 0.767760894998 2.282029392014
-0.000000000000 1.000000000000 2.173596783227
0.388307474275 1.000000000000 1.988058100831
0.404771280854 0.909881934309 2.022267657409
0.398431994042 0.888088990626 2.035471797756
0.005254134858 0.749300953469 2.288137853967
-0.000000000000 0.748591036388 3.210113066656
-0.000000000000 0.786052875329 3.259154459450
0.306887406573 1.000000000000 2.967212122043
0.190376728871 0.797308381588 2.919037420454
0.404643171332 0.835110571535 3.103511130643
0.248913177546 0.694870025533 3.282821231906
0.215758710395 0.681606958280 3.304668821120
0.235280472479 0.665338079170 3.278095291628
0.242026318031 0.640345005762 3.233556682786
0.304851975613 0.776203733290 2.860542388221
0.386822258579 0.693363691327 2.975256514869
0.421423016344 0.836713418810 3.068202755033
0.420564619486 0.861781499271 3.073044069279
0.331626303125 1.000000000000 2.960647526494
0.320377659002 1.000000000000 2.942067040550
-0.000000000000 0.713725768892 3.290727993679
-0.000000000000 0.741395270007 3.303094242787
0.167122500791 0.688968413825 3.310331565409
0.065257259584 0.687217912570 3.290856139605
0.291981543462 0.905765438671 2.871633108882
0.255224411216 0.839042645323 2.852799376605
0.291193645503 0.812097705279 2.846943901516
1.000000000000 0.000000000000 4.000000000000
0.621193534852 0.536562357051 4.000000000000
0.608065220461 0.470306327312 4.000000000000
0.521114370641 -0.000000000000 4.000000000000
1.000000000000 0.627335490651 4.000000000000
0.755105929130 0.689075073944 4.000000000000
1.000000000000 0.548899803553 3.767765122288
0.779131875667 0.607984176410 3.777837594112
1.000000000000 0.375118190190 3.610980622720
0.747579400255 0.538377264356 3.708862624551
0.597698934889 0.398267497227 3.771522535991
0.519694937044 0.000000000000 3.985615312132
1.000000000000 -0.000000000000 3.901814603763
1.000000000000 0.301324760075 3.612394006453
0.557105914969 0.195140477678 3.791656831451
0.522902874222 0.036215986025 3.950270376688
-0.000000000000 -0.000000000000 2.776779357014
-0.000000000000 0.266853380010 3.276579903272
0.166453364799 0.310311369453 3.142964129333
-0.000000000000 0.450966253114 3.078589830974
-0.000000000000 0.375815606024 2.813220271092
0.167878068274 0.403835376797 2.944764123965
0.317510659021 0.121318346423 3.032195529173
0.301387862574 -0.000000000000 3.008059536918
0.285740005641 0.137732348326 3.103765166617
0.125922237439 0.424546119072 3.041274806071
0.133583196439 0.425366162087 3.014132999467
0.022543553050 0.447461510612 3.070591875756
-0.000000000000 -0.000000000000 3.249396681371
-0.000000000000 0.192474929084 3.297227961756
0.209063651733 0.005642209496 3.196426863504
0.208362123137 -0.000000000000 3.195207186586
1.000000000000 0.585274381662 -0.000000000000
0.659892647006 0.634110692561 -0.000000000000
1.000000000000 0.863824217503 -0.000000000000
0.789053991563 0.844692718954 -0.000000000000
1.000000000000 0.526871584468 0.264930413693
0.701072241316 0.560597812073 0.306650734361
0.633033775532 0.574183582811 0.289340047596
1.000000000000 0.866048547316 0.610292052712
1.000000000000 0.750878643121 0.572021415024
0.917026136872 0.769021305026 0.595639953340
0.810273696166 0.844759824140 0.619115813861
0.812923779258 0.849111990673 0.618550561561
0.957813634625 0.862250500072 0.617973137683
0.869643808894 0.820686802595 0.622852921139
1.000000000000 0.803188087329 0.955673718922
0.812061168402 0.644649919892 1.136636436641
1.000000000000 0.800829601223 0.776501319640
0.803206169617 0.636347157309 1.081879086207
0.861990171764 0.469229991713 1.057064185747
0.833431739326 0.659952916687 0.909087203155
1.000000000000 0.398718906127 1.149824354017
1.000000000000 0.374981363132 1.114817338500
0.900529840374 0.398429806005 1.108529927566
0.900243314905 0.402775640166 1.114821238862
0.865337084488 0.586140959803 1.276561405025
0.889151031995 0.510394089346 1.252449236143
1.000000000000 0.592698573909 1.344753467732
0.906792730594 0.577168952754 1.317870040682
0.906397836528 0.530208420852 1.285592927534
1.000000000000 0.496224797740 1.278585982247
0.511367671378 0.585799004026 2.149820269904
0.386219675721 0.383090616384 1.957317322988
0.335012759822 0.511925497234 1.904463021366
0.432054787062 0.327564593361 1.755450277996
1.000000000000 0.860925613000 1.941388930755
0.455841803821 0.819096122688 2.103960127129
0.351144613923 0.507360038779 1.771001073042
0.415921027553 0.366061466122 1.747528451744
0.451249193783 0.514259217363 1.692531698673
0.709524980138 0.326057599367 1.686148242711
1.000000000000 0.411631982036 2.059494901293
1.000000000000 0.313236556446 1.852459237863
0.880374963406 0.203817388955 1.812021973651
0.688951877523 0.130981194056 1.962472360806
0.733875752621 0.218791484346 2.075960706846
0.785767336193 0.293244944619 2.150289928947
0.626132640868 0.583772136858 1.626926875497
0.699684323773 0.446260874747 1.651220151682
0.435409659300 0.996327286720 1.927036534579
0.361317255042 0.546002185131 1.755919988736
0.410787736938 0.560382205830 1.715086395616
0.442946361671 1.000000000000 1.921618410893
1.000000000000 0.970010254572 1.829726025816
0.804837189372 0.736138701475 1.639389916955
0.676695848499 0.719120453672 1.621624997905
0.580388073240 0.785091653809 1.670115307657
0.528948324895 1.000000000000 1.837089379486
0.786792300649 1.000000000000 1.845948138125
1.000000000000 0.816747142377 1.729307443293
1.000000000000 0.862653867837 1.745432110609
0.914757821353 0.792434736351 1.687368895912
0.347500093625 1.000000000000 4.000000000000
0.511724692442 0.784584696576 4.000000000000
0.195420919477 0.682256728066 4.000000000000
0.365405055024 0.723469625246 4.000000000000
0.201072052292 0.636987699921 3.872937587829
0.639195997265 1.000000000000 4.000000000000
0.616316923441 0.864854753422 4.000000000000
0.502620397741 0.735402554117 3.676846795863
0.633552236450 1.000000000000 3.711871593918
0.541685661239 0.763239901896 3.660430129041
0.604392894334 0.823211837084 3.751159814666
0.176935697388 0.623363585415 3.847708863079
0.323261492696 0.664782072578 3.707428484132
0.139439941806 0.622757529665 3.874879038720
0.161896602447 0.622446268660 3.859197796131
0.537988002440 1.000000000000 3.523590289725
0.418047242511 0.926276643181 3.515686932530
0.521956404917 0.916397618645 3.537751795285
0.247066383071 1.000000000000 3.543096275121
0.434384860950 1.000000000000 3.503622932491
0.402619348461 0.933401974729 3.511243221182
0.379412102646 0.918642702657 3.516338953341
0.299218435801 0.882303645011 3.533743527212
0.215581549255 0.930728222696 3.550694609158
1.000000000000 0.023597349854 2.532060332841
1.000000000000 -0.000000000000 2.505603109994
1.000000000000 -0.000000000000 2.499656471025
1.000000000000 0.394552555251 2.165969335222
0.991676538550 -0.000000000000 2.498192378740
0.564398850908 0.461607344071 2.635320598635
0.845539622676 0.053080936638 2.427594538772
0.770891403781 0.133173300477 2.450931190254
0.789001818817 0.283135635898 2.223084124742
1.000000000000 0.480562247465 2.712001517718
0.759992736377 0.391944188033 2.731360183253
0.564917651403 0.476595064652 2.652586661158
0.708016490742 0.304241793517 2.334689542071
0.687050297428 0.330557559476 2.370469115424
0.742381662055 0.298545028252 2.283055918691
1.000000000000 0.683445535034 2.507731819414
1.000000000000 0.586049070688 2.648372209406
0.822221123916 0.626037583551 2.598995981131
-0.000000000000 -0.000000000000 0.729024250192
-0.000000000000 0.182446168469 0.686362978975
-0.000000000000 0.357854143689 0.861532974502
0.372815730884 -0.000000000000 0.891628777630
0.268015765287 0.400716943141 0.868212978569
0.268386021321 0.306774926011 0.774348509402
-0.000000000000 -0.000000000000 1.180455471799
-0.000000000000 0.240642780626 1.102444025286
0.350723526249 0.299654851008 1.105179444103
0.291138189908 0.264423947653 1.156520346172
0.274534033746 -0.000000000000 1.238717405137
0.430594169528 -0.000000000000 1.128854805600
0.556933666089 0.609406261321 3.989867633328
0.553554446995 0.624935158518 4.000000000000
0.593000688627 0.571783114805 4.000000000000
0.597277958347 0.398675366947 3.771361653899
0.528676720589 0.635133850371 3.673686357799
0.581569349900 0.687073467053 3.650524930999
-0.000000000000 0.375427356452 2.192261761357
-0.000000000000 0.447278827661 2.145778918810
0.451836105927 0.540421926628 2.502763046510
0.432163777445 0.515772281231 2.535324686689
-0.000000000000 0.606570602865 2.440151762043
-0.000000000000 0.746006950058 2.290815473205
0.346801592181 0.433448219813 3.706206155658
0.328148475195 0.410585411511 3.705096160594
0.325443628591 0.444450247910 3.709622601504
0.325191077164 0.410167408770 3.705324467803
0.138522428688 0.306545505878 3.835839320015
0.435306596083 0.032550626181 3.920971834205
0.445129100427 0.178340404757 3.767284354066
0.402003316805 0.222579156556 3.750442183545
0.278334359574 0.321944860929 3.729932270571
1.000000000000 1.000000000000 1.044018959178
1.000000000000 1.000000000000 1.516691771325
0.860757913211 1.000000000000 1.230817876457
0.687361629343 0.721605312825 1.338469792791
0.698796603780 0.705338706169 1.315827530018
0.827075070536 0.739266897424 1.595897282701
-0.000000000000 0.555258522096 4.000000000000
-0.000000000000 0.548361084971 3.962670528180
-0.000000000000 0.218199364935 4.000000000000
-0.000000000000 0.291913667151 3.930491078274
0.352498527350 -0.000000000000 4.000000000000
0.433057266557 -0.000000000000 3.952978375552
0.000000000000 0.000000000000 4.000000000000
-0.000000000000 0.290396490849 3.410117380784
0.435372028194 0.147655904400 3.484190209512
0.433951719256 0.136091540172 3.470079680997
0.420672576567 -0.000000000000 3.444944679605
-0.000000000000 0.320115040568 3.467063200955
0.051861011001 0.322892366292 3.476006012374
0.239984668884 0.328287761464 3.585338732369
0.444722375653 0.183524948483 3.730805746165
0.499730258237 -0.000000000000 0.357591465950
0.441967549422 -0.000000000000 0.526816302067
0.515179284025 0.367502324104 0.358698632343
0.568125069435 0.257842304712 0.375460133365
0.518200529830 0.320589647338 0.574832200649
0.447830347080 0.121736732652 0.612680265918
0.307493720250 0.349567248529 0.650870918973
0.200249541406 -0.000000000000 0.331114604938
0.384618536399 -0.000000000000 0.323407605147
0.425759425754 0.543509168815 0.379069585253
0.391701878111 0.569005802259 0.606686075391
0.364772208000 0.561891231214 0.617050353786
0.002287643290 0.247157731099 0.335528591084
0.162040741063 0.030131566297 0.320257361338
0.148808879554 0.197798815542 0.251507635375
0.131109212441 0.237503032763 0.245875459949
0.018767220881 0.391036997071 0.256185977501
0.003303425359 0.388037906160 0.268892800881
0.491246612975 0.472324230993 2.587419893682
0.781014159249 0.282949650781 2.200111291557
0.476139647633 0.491169162943 2.578511802272
0.535616136555 1.000000000000 1.024927760275
0.561586695504 0.738614041671 1.245539715699
0.594498177632 0.722867645376 1.278679702762
0.419490935892 0.847369874822 1.400589764667
0.619952986136 0.712691059627 1.318952131486
0.652528425674 0.717030423403 1.319985711246
1.000000000000 1.000000000000 1.831944927954
-0.000000000000 -0.000000000000 2.741961134205
-0.000000000000 0.243336187547 2.607317628423
0.453670375302 -0.000000000000 2.715950310646
0.379369574491 0.221924440561 2.597414392872
1.000000000000 0.973146876630 3.063367464479
1.000000000000 0.784730812064 3.092530648433
1.000000000000 0.687411843085 2.999249137715
0.887168056254 0.728143499872 3.021053370557
0.747928968321 0.830916174507 2.906131850730
0.748470111455 0.741385176882 2.920374339880
1.000000000000 0.870675890429 2.537978065767
0.712379355003 0.667261434447 2.625662722226
0.715974088565 0.765868021502 2.645130176099
1.000000000000 0.699629513403 2.501364175687
0.713665886155 0.666662200650 2.624947470182
1.000000000000 0.330850563729 3.013479819206
0.997230837735 0.329629263242 3.014103586726
0.643438117660 0.632567075982 3.059833715802
0.652706607549 0.627722765251 3.073747830549
0.634284238284 0.621401376858 3.056299958372
0.641684817735 0.602480473126 3.077043978741
0.759298172244 0.388592344486 2.737649471240
0.536882813523 0.480767872534 2.815114196292
0.569573697233 0.536987390827 2.980188291341
0.620599595284 0.495597831671 3.085688166776
0.627864570540 0.476328564986 3.084948628038
0.548903556355 0.477903430834 2.656264028636
0.711810199056 0.666558868720 2.625365379687
0.536682112737 0.466243146860 2.681835240389
0.536615910130 0.466208103500 2.682236053141
0.536700425347 0.466149853859 2.681996116850
0.371568506644 0.415885780620 3.273387563719
0.477613606578 0.289313789946 3.251742103704
0.254053716614 0.404050460289 3.474612753923
0.444716336375 0.150371710724 3.466121518224
1.000000000000 -0.000000000000 3.057692127061
0.874538751721 -0.000000000000 2.915734418010
1.000000000000 0.326778643536 3.017586711895
0.496412993836 -0.000000000000 2.877636930522
0.492741931107 -0.000000000000 2.888475271575
0.463510230020 0.152362361421 2.949709374239
1.000000000000 -0.000000000000 3.211072348448
1.000000000000 0.204686652598 3.297519749609
0.794305853119 -0.000000000000 3.181976647853
0.615980699109 0.331754091336 3.203697856264
0.737377791759 0.284773720758 3.294195489938
0.643723637253 0.424622028245 3.186018197986
0.511521837227 0.466581416905 2.756261656707
0.780494957499 0.305247287800 3.308941278606
0.767927991042 0.314497533674 3.301586386830
0.769809279816 0.303625453443 3.306744809967
1.000000000000 0.291070886949 1.369605482444
1.000000000000 -0.000000000000 1.532414527348
0.767697431883 0.343175026985 1.201002214468
0.819601570522 0.283093627868 1.053439487403
0.605386709203 0.149275938111 1.141566828510
0.706747976918 0.219348882073 1.437487847437
0.717482480532 0.202002618971 1.475778417895
0.814032893385 0.270003082756 1.047732357433
0.777816286437 0.249480931532 1.060383726988
0.599819562714 0.134462476030 1.128391255805
0.605276499190 -0.000000000000 1.183121622404
1.000000000000 -0.000000000000 1.137328535006
1.000000000000 0.206664020447 1.052236902248
0.916860118059 -0.000000000000 1.548998226421
0.617907842696 -0.000000000000 1.222449359368
0.718449416985 0.190507209496 1.482015445358
0.715357870981 0.227582515315 1.464930802165
0.508969316892 0.458333446938 1.239940097841
0.492194537536 0.478699380765 2.607923750213
0.534953281332 0.477982243561 2.652854192686
0.542027587175 0.476206821760 2.655230728076
0.692462299867 0.668270981972 2.620038318128
0.434127747129 0.406607421462 1.147928105985
0.525950000972 0.215964366857 1.114106720656
0.609423642837 0.167601014034 1.092128448295
0.589099153407 0.137044058559 1.120979659869
0.550581638182 0.707495035453 1.143115660332
0.484774133594 0.622274540977 1.151786611296
0.559869717918 0.721562028079 1.228791322948
0.571812649615 0.535239624840 3.364453895608
0.675967617658 0.689595027721 3.425136175134
0.661160623143 0.659899628229 3.400687778128
1.000000000000 0.412490329072 3.500007012672
1.000000000000 0.320609387274 3.478610684270
0.669398098594 0.515540243077 3.273848999541
0.685079094800 0.555016344010 3.294907083693
0.752209540073 0.649656068748 3.367741184598
0.222931802078 -0.000000000000 -0.000000000000
0.149499714710 0.232103261170 0.218125651438
0.577936443381 -0.000000000000 -0.000000000000
0.564237089204 -0.000000000000 0.233086387199
0.166206285519 -0.000000000000 0.322450742243
0.655421012314 0.252243570729 0.354647265254
0.678630545215 0.505494263791 0.290423366234
0.581268959878 0.254629186443 0.364864417868
0.529710993352 0.366308326506 0.345534676338
0.843013848439 0.345645341866 0.641860878826
0.497817820331 0.577593326950 0.299411878389
0.617477483968 0.569348523183 0.283980371348
0.858501650051 0.368019053467 0.659521584575
0.837070731285 0.355830910723 0.674145416199
0.758450487608 0.370726661942 0.723911797677
0.473594614167 0.591048925299 0.317233415318
0.715735141844 0.478925526066 0.744431480807
0.511812138746 0.680539263770 0.427181565432
0.403924175881 0.591269880981 0.622185943636
0.504188086015 0.696839192550 0.718390007926
0.673827577275 0.855689697573 0.638618080602
0.751286443509 0.726497057732 0.705366836485
0.590624570476 0.779815095689 0.702736750637
0.845022605490 -0.000000000000 2.435719290476
1.000000000000 -0.000000000000 1.713761736097
0.681886092936 -0.000000000000 1.965844085949
1.000000000000 0.004008974881 1.713829910699
1.000000000000 1.000000000000 4.000000000000
1.000000000000 1.000000000000 3.675001747455
0.336759944751 0.504444320898 3.373940222795
0.358011550557 0.781931589952 3.291786854743
0.284779511116 0.562676441184 3.398979001918
0.294934991914 0.844921492520 3.497649924958
0.208945319354 0.685080179989 3.320702720541
0.520494241150 0.473787050626 3.220511260202
0.378801084557 0.496053583996 3.235028106965
0.392045878766 0.470443480459 3.261672388235
0.646052542321 0.520411296358 3.220473964973
0.638632361149 0.488959660297 3.214929172298
0.475653431481 -0.000000000000 0.686396608354
-0.000000000000 0.245837734364 0.336216161657
-0.000000000000 -0.000000000000 0.362249621460
0.735291058746 0.337673482895 0.850664820936
0.374601005967 0.370550165632 1.102524010759
0.374939670671 0.365587449120 1.100602834259
0.369056787946 0.555348102787 0.942391301472
0.367893768898 0.506380940363 1.071112483637
0.433235416788 0.698715517306 0.770705792863
0.509057237717 0.793670555932 0.769475856810
-0.000000000000 1.000000000000 3.283602796750
-0.000000000000 0.712427754827 3.037047324798
-0.000000000000 1.000000000000 2.738704960916
-0.000000000000 0.861148528684 2.734995225786
0.307896616905 1.000000000000 2.881533563910
-0.000000000000 1.000000000000 0.185638137249
0.312540819509 1.000000000000 0.026808883250
-0.000000000000 0.719025093993 0.626844789427
0.509944202031 1.000000000000 0.340410710514
0.364174831946 0.588897167564 0.646111854981
0.351429668328 0.665349452647 0.775168761828
-0.000000000000 0.790471482454 0.755760847572
0.223894217136 0.721230806935 0.787024545231
-0.000000000000 1.000000000000 0.763919945413
-0.000000000000 0.811157867413 0.769078748503
0.150407261310 0.771802417758 0.794689940653
0.220655619322 1.000000000000 0.799915702833
0.681801360142 0.918149534866 0.634900564574
0.508662328010 1.000000000000 0.778870878180
0.666075537708 1.000000000000 0.651250056998
0.575593892163 -0.000000000000 0.757642688469
0.761712991799 0.353233042616 0.733980408133
0.516890200662 -0.000000000000 1.130161211271
0.333503553869 0.630031252773 0.816339969071
1.000000000000 -0.000000000000 2.562573284833
1.000000000000 1.000000000000 0.643997254232
1.000000000000 0.879695845691 0.620468733150
0.299245933106 0.540764375563 3.136306833192
0.415291175366 0.581310905559 2.929372605077
0.413908923894 0.515529399721 2.773276147113
0.393104596729 0.557242055613 2.850468640755
0.629093086089 0.463478445223 3.186963835134
1.000000000000 1.000000000000 0.000000000000
0.492158463954 1.000000000000 -0.000000000000
0.218326580574 0.774470534128 1.331348909545
0.251283801327 0.725825539997 1.330361201585
0.205453416800 0.577146874293 1.194054937073
0.152592186383 0.622975023290 1.175148485534
-0.000000000000 0.456965534305 3.081187239608
0.412547007333 0.527179739840 2.710950849967
0.339004724300 0.702933605194 2.770034501983
-0.000000000000 0.593730275679 2.482970304624
-0.000000000000 0.411933992890 2.626942258211
0.340136272657 0.519247833595 2.632788979591
0.275219025922 0.549909554935 2.591170631912
0.540531248945 1.000000000000 3.117748719485
0.480440006656 1.000000000000 3.109069446089
0.694696551843 1.000000000000 3.403752471603
0.773422874114 0.705328778708 3.350252480573
1.000000000000 1.000000000000 3.074547980084
0.684171489736 1.000000000000 2.951739458089
1.000000000000 1.000000000000 3.381890547925
1.000000000000 0.806737840957 3.350499517555
0.260390424589 -0.000000000000 1.308851014708
0.248757246542 0.036839828033 1.366555375944
0.391608364731 0.299782002037 1.723827734513
0.308866802454 0.351414445910 1.165389820339
0.289320529225 0.286983704875 1.165545281571
0.846851685027 0.272408949047 0.195028211925
0.625261188947 0.128033880360 0.298599586761
0.747979102307 0.155081838304 0.296597754663
0.393586090219 1.000000000000 2.796888117937
0.660505028478 1.000000000000 2.644563473141
0.626216805235 1.000000000000 2.701940074103
0.687425985157 0.833023348777 2.649341806676
0.526671051400 0.476111204471 2.655925132555
0.489159828685 0.475330721634 2.624765915208
1.000000000000 -0.000000000000 1.707290044111
1.000000000000 0.265550790662 0.770916589930
0.827852332589 0.339646449774 0.692873345776
1.000000000000 0.405891224138 0.611391280996
-0.000000000000 0.655919665478 1.167066475587
0.463082522006 -0.000000000000 2.723818431571
0.533458015756 0.471291066955 2.662824232917
0.597952772215 -0.000000000000 0.284795514654
0.220588947702 0.581467911995 1.456016186463
0.185705111297 0.492454905008 1.235248692218
0.185708670919 0.492609024241 1.234568565966
0.186990815001 0.490689052395 1.233971933023
0.000000000000 1.000000000000 0.000000000000
0.301189900373 1.000000000000 -0.000000000000
-0.000000000000 0.389031184015 0.268514851720
-0.000000000000 0.530907293944 -0.000000000000
0.722348756415 -0.000000000000 2.493611089736
-0.000000000000 0.628630812760 1.645739177503
-0.000000000000 0.416974436217 1.664903954374
-0.000000000000 0.473467269051 1.636433483789
0.071995580671 0.526907681261 1.640593972990
0.433398189006 1.000000000000 1.927444322606
1.000000000000 0.000000000000 0.000000000000
1.000000000000 0.236174200202 -0.000000000000
1.000000000000 0.206423537476 0.157293523477
1.000000000000 0.089687676987 0.213650032805
1.000000000000 -0.000000000000 0.192658768793
0.850717500112 -0.000000000000 0.274166044698
0.867652007428 0.072776327770 0.281953102151
1.000000000000 1.000000000000 2.527060685973
0.103795374219 -0.000000000000 1.589721348774
0.121756140673 0.030278776566 1.587784835433
-0.000000000000 0.327320787631 1.640474945008
-0.000000000000 -0.000000000000 1.614694398863
-0.000000000000 0.455237179693 1.573254092881
-0.000000000000 0.534830699312 1.223737010119
0.748249070401 -0.000000000000 0.658670372049
1.000000000000 -0.000000000000 0.772255469128
0.000000000000 0.000000000000 0.000000000000
-0.000000000000 0.674735900772 3.284236736634
0.291124503316 0.479601285439 3.443078092949
-0.000000000000 1.000000000000 3.516933921009
-0.000000000000 0.976085628791 3.520708036757
0.000000000000 1.000000000000 4.000000000000
4 1 0 8 9
6 3 11 8 0 12 13
7 12 0 1 5 6 17 16
5 13 3 2 14 15
6 2 4 7 6 17 14
6 1 5 7 4 10 9
5 4 2 3 11 10
3 5 6 7
4 8 9 10 11
4 12 13 15 16
4 14 15 16 17
6 27 24 22 29 31 30
6 25 18 20 28 32 33
4 18 19 21 20
5 18 19 23 26 25
5 19 21 22 24 23
5 20 21 22 29 28
4 23 24 27 26
5 25 26 27 30 33
4 28 29 31 32
4 30 31 32 33
5 35 36 34 40 41
6 38 35 41 42 43 44
7 39 37 34 40 42 43 45
3 34 37 36
5 35 36 37 39 38
4 38 39 45 44
3 40 41 42
3 43 44 45
3 46 57 56
5 46 47 48 58 57
6 47 48 49 50 52 53
6 46 47 53 54 61 56
6 48 49 51 55 59 58
7 55 51 50 52 54 61 60
3 49 50 51
3 52 53 54
3 55 59 60
6 56 57 58 59 60 61
4 63 62 77 78
3 64 75 76
7 62 65 71 72 70 80 77
9 68 67 66 74 75 64 63 78 79
6 66 67 69 70 72 73
7 65 62 63 64 76 81 82
4 71 65 82 83
3 66 73 74
3 67 68 69
5 68 69 70 80 79
8 71 72 73 74 75 76 81 83
4 77 78 79 80
3 81 82 83
6 92 90 88 84 96 97
4 84 87 95 96
6 85 86 87 84 88 89
5 91 89 85 94 93
5 94 85 86 99 98
4 86 87 95 99
4 88 89 91 90
4 90 91 93 92
5 92 93 94 98 97
5 95 96 97 98 99
6 101 103 104 100 112 113
4 100 107 115 112
5 100 104 105 106 107
6 105 106 108 102 109 110
5 101 102 108 114 113
5 103 101 102 109 111
5 103 104 105 110 111
5 108 106 107 115 114
3 109 110 111
4 112 113 114 115
5 120 116 118 123 124
4 116 117 119 118
5 119 117 122 126 127
5 120 116 117 122 121
5 119 118 123 128 127
4 121 120 124 125
5 125 121 122 126 129
5 123 124 125 129 128
4 126 127 128 129
6 136 137 132 130 142 145
5 130 131 140 143 142
5 134 135 132 137 138
7 131 133 134 138 139 141 140
5 132 130 131 133 135
3 133 134 135
5 136 139 141 144 145
4 136 137 138 139
4 141 140 143 144
4 142 143 144 145
6 168 150 156 157 174 175
3 167 173 172
6 14 17 147 146 161 160
5 146 151 150 156 161
6 151 146 147 148 60 55
7 149 16 17 147 148 152 153
6 154 153 149 155 163 162
4 14 15 159 160
6 164 165 152 148 60 59
6 15 16 149 155 158 159
8 150 151 55 59 164 167 173 168
5 152 153 154 166 165
5 166 154 162 170 171
7 169 163 155 158 157 174 176
6 156 157 158 159 160 161
4 162 163 169 170
6 167 164 165 166 171 172
8 169 170 171 172 173 168 175 176
3 174 175 176
6 177 182 185 192 196 195
6 177 179 180 178 183 182
5 177 179 190 200 195
6 181 180 178 184 189 188
5 184 178 183 187 186
3 181 188 191
5 179 180 181 191 190
4 182 183 187 185
7 193 194 186 184 189 199 198
5 186 187 185 192 194
6 190 191 188 189 199 200
3 193 197 198
5 193 194 192 196 197
6 195 196 197 198 199 200
7 210 201 202 203 204 216 217
3 202 205 203
3 201 211 210
8 201 202 205 207 208 206 212 211
8 212 206 214 215 209 204 216 218
5 205 203 204 209 207
4 206 208 213 214
5 209 207 208 213 215
5 210 211 212 218 217
3 213 214 215
3 216 217 218
5 221 220 219 225 226
5 225 219 222 230 229
4 219 220 224 222
4 221 220 224 223
5 226 221 223 227 228
5 223 224 222 230 227
4 225 226 228 229
4 227 228 229 230
6 232 233 85 89 183 178
6 234 231 232 178 184 235
5 231 233 85 94 234
3 231 232 233
4 89 183 187 91
5 187 91 93 236 186
5 93 94 234 235 236
4 184 235 236 186
4 238 237 241 242
6 146 147 6 7 240 239
7 237 5 7 240 52 54 241
6 147 148 238 237 5 6
5 238 148 60 61 242
5 146 239 50 51 151
4 239 240 52 50
4 241 242 61 54
3 55 151 51
3 233 86 85
8 191 181 231 233 86 99 248 247
6 181 231 234 243 245 188
7 98 94 234 243 244 250 249
4 244 243 245 246
4 246 244 250 251
6 191 188 245 246 251 247
4 98 99 248 249
5 247 248 249 250 251
6 142 130 252 253 175 174
3 252 254 253
6 254 252 130 131 256 255
3 131 140 256
6 253 254 255 257 176 175
5 255 256 140 143 257
5 257 143 142 174 176
4 258 259 261 260
4 87 262 263 95
9 87 86 233 232 180 179 258 260 262
4 231 232 180 181
4 179 258 259 190
5 259 190 191 247 261
6 262 260 261 247 248 263
4 95 263 248 99
7 269 265 113 112 264 260 261
6 264 112 115 268 263 262
3 264 262 260
7 266 267 114 113 265 270 271
4 267 268 115 114
5 271 266 272 250 251
3 265 270 269
7 249 272 266 267 268 263 248
6 269 270 271 251 247 261
3 272 249 250
4 273 274 280 281
6 275 276 273 281 287 288
4 275 282 289 288
6 280 274 278 279 285 286
5 274 273 276 277 278
5 275 276 277 283 282
5 277 278 279 284 283
4 279 284 290 285
4 280 281 287 286
5 282 283 284 290 289
6 285 286 287 288 289 290
8 291 214 215 292 161 146 239 293
5 291 4 7 240 293
5 2 4 291 214 213
6 14 2 213 215 292 160
3 147 17 6
3 292 161 160
3 240 293 239
4 175 253 300 168
8 253 254 294 44 43 172 173 300
6 296 295 294 254 255 299
5 44 294 295 297 45
6 297 295 296 298 170 171
3 296 298 299
5 297 45 43 172 171
6 298 299 255 257 169 170
3 257 169 176
3 300 168 173
4 301 302 9 8
4 303 301 8 11
4 302 304 10 9
4 301 302 304 303
4 303 304 10 11
7 311 305 306 307 217 216 314
4 309 305 311 313
7 312 310 308 307 217 218 315
5 305 306 308 310 309
3 306 307 308
4 309 310 312 313
5 312 313 311 314 315
4 216 314 315 218
4 307 316 210 217
8 321 319 308 307 316 317 326 325
4 310 308 319 318
6 323 326 317 322 331 330
10 323 324 320 318 310 312 328 327 329 330
5 317 316 210 211 322
4 318 319 321 320
4 320 321 325 324
6 322 211 212 327 329 331
4 323 324 325 326
5 218 212 327 328 315
3 312 315 328
3 329 330 331
3 232 178 180
3 234 243 235
5 243 235 184 189 245
3 245 188 189
3 265 101 113
6 332 102 101 265 270 334
4 333 332 102 108
6 333 332 334 271 266 335
5 333 108 114 267 335
3 270 334 271
3 266 335 267
4 336 338 343 342
6 340 339 337 336 342 344
4 322 337 339 331
5 336 337 322 317 338
5 341 340 344 346 345
7 347 326 317 338 343 349 350
6 341 345 347 326 323 348
6 331 339 340 341 348 330
6 346 344 342 343 349 351
5 347 345 346 351 350
3 323 330 348
3 349 350 351
6 137 136 352 353 363 364
5 362 363 353 365 366
6 354 139 136 352 358 357
5 358 352 353 365 367
3 354 356 357
7 355 138 139 354 356 361 360
3 355 360 359
5 137 138 355 359 364
7 362 361 356 357 358 367 366
6 359 360 361 362 363 364
3 365 366 367
8 256 140 141 354 356 369 298 299
5 354 357 368 144 141
6 257 143 144 368 163 169
6 368 357 356 369 162 163
4 369 298 170 162
3 256 255 299
5 204 156 150 314 216
8 315 314 150 151 51 49 373 328
7 370 293 239 50 49 373 371
6 206 214 291 370 371 372
3 215 209 292
3 293 291 370
5 204 156 161 292 209
4 212 206 372 327
5 371 372 327 328 373
9 133 134 355 360 376 375 374 379 378
3 141 354 139
7 256 131 133 378 380 296 299
3 134 138 355
6 356 369 374 375 377 361
6 380 379 374 369 298 296
3 375 377 376
4 361 360 376 377
3 378 379 380
4 92 97 385 384
7 386 381 244 250 272 351 350
7 235 236 382 383 381 244 243
4 381 383 387 386
6 92 93 236 382 388 384
4 382 383 387 388
7 385 97 98 249 272 351 349
7 386 387 388 384 385 349 350
6 389 391 392 281 280 393
4 389 29 22 391
6 390 20 21 392 281 287
3 20 390 28
7 287 390 28 29 389 393 286
4 391 392 21 22
3 280 393 286
6 121 395 394 398 401 125
7 398 394 396 276 277 403 402
6 397 396 394 395 400 399
4 395 121 122 400
4 396 276 275 397
5 399 397 275 282 404
6 405 403 277 283 407 408
3 398 402 401
7 406 404 399 400 122 126 409
7 125 401 402 403 405 410 129
5 283 282 404 406 407
4 408 405 410 411
5 406 407 408 411 409
5 409 126 129 410 411
6 156 204 203 413 415 157
5 203 205 412 414 413
7 412 207 209 292 160 159 414
3 412 205 207
5 159 414 413 415 158
3 415 157 158
4 417 416 88 90
4 416 417 185 182
5 89 88 416 182 183
5 417 90 91 187 185
7 423 424 69 67 419 426 427
7 383 381 418 420 421 198 193
6 383 387 426 419 197 193
6 423 425 418 381 386 427
7 69 68 422 420 418 425 424
7 421 422 68 67 419 197 198
3 420 421 422
3 423 424 425
4 426 387 386 427
4 219 220 429 430
7 280 274 428 222 219 430 393
5 279 224 220 429 285
5 279 224 222 428 278
3 274 428 278
5 429 430 393 286 285
7 431 359 355 134 135 410 405
6 410 135 133 378 437 411
8 405 431 376 375 433 434 436 408
4 431 359 360 376
4 375 374 432 433
4 379 374 432 435
6 378 379 435 434 436 437
4 432 433 434 435
4 436 408 411 437
6 439 62 63 438 440 441
5 440 438 64 76 442
3 62 65 439
3 63 438 64
4 439 65 82 441
5 440 441 82 81 442
3 76 442 81
5 443 445 449 452 451
7 446 444 443 451 454 456 457
6 445 443 444 406 407 447
5 406 444 446 455 409
5 445 447 448 450 449
3 446 455 457
5 407 447 448 436 408
7 436 448 450 453 454 456 437
4 450 449 452 453
4 451 452 453 454
6 455 409 411 437 456 457
5 222 428 458 460 230
6 277 278 428 458 459 403
6 376 431 459 458 460 377
7 461 223 224 279 284 447 448
4 405 431 459 403
5 433 227 223 461 434
6 375 433 227 230 460 377
4 434 461 448 436
4 283 284 447 407
6 336 462 201 210 316 338
3 462 336 337
5 337 462 201 211 322
3 316 338 317
5 252 130 132 464 463
6 456 294 254 252 463 457
6 129 410 135 132 464 128
6 378 380 295 294 456 437
3 380 296 295
4 409 126 127 455
6 457 463 464 128 127 455
6 332 102 109 465 424 425
7 423 424 465 466 324 325 469
5 333 108 106 341 345
7 423 425 332 333 345 347 469
5 110 109 465 466 468
5 105 106 341 348 467
4 105 110 468 467
6 348 467 468 466 324 323
4 469 325 326 347
5 123 118 470 463 464
5 470 471 446 457 463
4 471 470 118 119
5 446 471 119 127 455
3 123 128 464
6 275 397 18 20 390 288
4 18 397 399 25
5 288 390 28 32 289
5 282 289 32 33 404
4 25 33 404 399
5 38 44 294 456 454
6 475 472 39 38 454 453
7 435 474 473 297 295 380 379
4 472 473 474 475
5 473 472 39 45 297
7 461 434 435 474 475 453 450
3 461 448 450
3 352 136 145
5 144 145 352 358 368
3 358 357 368
7 104 103 476 439 441 479 480
7 110 111 476 439 65 71 468
6 441 82 83 478 482 479
3 476 111 103
6 104 105 467 477 481 480
6 83 71 468 467 477 478
4 478 477 481 482
4 479 480 481 482
5 485 483 484 196 192
6 73 66 419 426 321 320
6 419 66 74 484 196 197
4 382 383 193 194
5 486 485 483 318 319
6 483 484 74 73 320 318
6 426 387 388 486 319 321
6 485 486 388 382 194 192
5 306 305 487 489 490
5 487 488 483 485 489
5 483 488 309 310 318
4 305 487 488 309
5 319 308 306 490 486
4 489 490 486 485
5 344 268 115 107 340
5 344 346 335 267 268
4 335 333 345 346
4 107 340 341 106
6 366 491 229 230 460 362
6 492 493 153 154 494 495
6 154 162 369 374 432 494
7 492 491 366 367 155 149 493
5 368 358 367 155 163
5 495 492 491 229 228
3 493 153 149
6 433 432 494 495 228 227
4 460 362 361 377
5 496 23 19 497 498
5 395 496 23 26 400
5 19 18 397 396 497
4 395 496 498 394
4 497 498 394 396
4 26 400 399 25
5 48 47 499 501 500
5 47 499 478 482 53
5 373 49 48 500 502
8 373 502 501 499 478 477 503 371
3 500 501 502
8 293 240 52 53 482 481 504 370
4 481 477 503 504
4 503 371 370 504
7 237 1 9 302 480 479 241
6 291 4 10 304 504 370
5 304 302 480 481 504
3 237 1 5
5 479 241 54 53 482
8 505 353 352 145 142 174 157 415
3 353 505 365
6 505 365 367 155 158 415
8 132 137 364 506 508 124 123 464
6 506 364 359 431 459 507
5 402 507 506 508 401
4 402 507 459 403
4 508 401 125 124
5 509 36 35 451 452
4 35 38 454 451
5 36 37 472 475 509
3 37 39 472
4 509 475 453 452
5 302 301 100 104 480
7 340 107 100 301 303 510 339
6 304 303 510 511 503 504
5 511 510 339 331 329
7 467 348 330 329 511 503 477
4 281 392 512 273
5 19 21 392 512 497
5 512 273 276 396 497
3 287 288 390
6 494 516 514 513 166 154
5 513 473 297 171 166
5 514 513 473 474 515
3 514 516 515
6 474 515 516 494 432 435
5 445 443 517 520 519
4 517 443 444 518
5 517 518 30 31 520
6 444 518 30 33 404 406
5 284 447 445 519 290
6 519 520 31 32 289 290
8 75 484 483 488 501 499 442 76
5 72 73 320 324 466
5 309 488 501 502 313
3 75 484 74
4 72 71 468 466
5 83 478 499 442 81
5 502 313 312 328 373
4 327 329 511 372
4 503 371 372 511
6 220 221 449 445 519 429
5 223 221 449 450 461
4 285 290 519 429
5 11 3 521 510 303
5 521 3 2 213 208
6 206 208 521 510 511 372
5 412 521 3 13 414
4 521 412 207 208
4 13 414 159 15
9 57 41 40 522 524 523 238 242 56
5 42 41 57 58 526
4 523 238 148 152
7 165 525 522 40 42 526 164
3 522 525 524
5 523 524 525 165 152
3 242 56 61
4 526 164 59 58
5 527 528 529 530 531
6 512 392 391 527 531 532
5 24 528 527 391 22
5 23 24 528 529 496
5 529 496 498 533 530
5 498 497 512 532 533
4 530 531 532 533
4 487 305 311 534
5 488 487 534 500 501
5 534 311 313 502 500
4 528 116 120 529
5 117 116 528 24 27
5 120 529 496 395 121
5 26 27 117 122 400
3 505 415 413
9 13 12 535 491 366 365 505 413 414
3 493 536 492
6 493 149 16 12 535 536
4 491 535 536 492
7 0 1 237 238 523 537 538
4 12 0 538 535
6 523 152 153 493 536 537
4 537 538 535 536
7 34 36 509 540 539 524 522
7 34 37 472 473 513 525 522
5 513 514 539 524 525
4 539 514 515 540
5 509 540 515 474 475
7 241 479 441 440 46 56 242
5 499 47 46 440 442
7 273 512 532 541 458 428 274
4 398 394 498 533
6 398 533 532 541 507 402
4 541 458 459 507
5 508 506 542 531 530
4 542 541 532 531
4 542 541 507 506
5 508 401 398 533 530
4 471 518 444 446
6 471 119 117 27 30 518
3 462 202 201
8 521 412 205 202 462 337 339 510
5 543 430 429 519 520
4 543 389 393 430
5 29 389 543 520 31
6 544 476 103 101 265 269
9 334 545 420 422 79 80 544 269 270
7 544 80 70 465 109 111 476
4 465 424 69 70
5 425 332 334 545 418
3 545 420 418
3 422 79 68
8 338 316 307 306 490 384 385 343
5 321 426 427 469 325
5 350 386 427 469 347
4 486 490 384 388
3 343 349 385
6 534 311 314 150 168 300
8 167 526 58 48 500 534 300 173
3 167 526 164
5 438 63 78 547 546
7 196 484 75 64 438 546 195
3 66 67 419
7 199 421 422 79 78 547 200
3 421 198 199
4 546 195 200 547
6 539 540 226 225 538 537
5 538 225 229 491 535
7 537 539 514 516 495 492 536
6 516 515 540 226 228 495
5 381 418 545 246 244
7 545 420 421 199 189 245 246
4 382 236 186 194
4 542 506 364 363
6 458 541 542 363 362 460
5 259 258 548 546 547
4 548 177 195 546
4 177 548 258 179
4 259 190 200 547
5 62 439 476 544 77
4 465 70 72 466
3 80 77 544
3 423 427 469
5 271 334 545 246 251
5 272 266 335 346 351
3 34 522 40
5 172 43 42 526 167
4 525 513 166 165
6 489 417 90 92 384 490
5 192 185 417 489 485
6 221 226 540 509 452 449
3 516 495 494
4 539 537 523 524
5 530 529 120 124 508
5 97 96 342 343 385
6 268 344 342 96 95 263
7 547 78 77 544 269 261 259
11 0 1 2 3 4 5 6 7 8 9 10
10 11 12 13 14 15 16 17 18 19 20
8 21 22 23 24 25 26 27 28
10 29 30 31 32 33 34 35 36 37 38
13 39 40 41 42 43 44 45 46 47 48 49 50 51
10 52 53 54 55 56 57 58 59 60 61
10 62 63 64 65 66 67 68 69 70 71
9 72 73 74 75 76 77 78 79 80
10 81 82 83 84 85 86 87 88 89 90
21 91 92 93 94 95 96 10 97 98 99 100 101 102 103 104 105 106 107 37 108 109
14 110 111 112 113 114 115 116 117 118 119 120 121 122 123
11 124 125 126 127 128 129 130 131 132 133 134
8 135 136 137 138 139 140 141 142
10 143 144 145 146 55 147 114 148 149 150
12 151 152 153 154 95 155 156 7 34 157 158 159
12 160 161 162 145 56 115 163 164 165 166 167 168
9 169 170 171 82 172 173 174 175 109
12 176 177 178 161 179 146 57 116 180 181 182 183
13 184 185 186 187 188 189 190 191 71 192 193 168 182
11 194 195 196 197 198 199 200 201 202 203 204
11 152 93 205 206 207 208 4 209 133 210 211
13 212 213 214 173 215 216 28 217 218 219 220 108 221
6 222 223 224 225 226 8
9 227 228 229 230 231 232 233 134 234
15 235 236 229 237 238 239 240 241 132 242 243 244 245 246 247
8 248 144 162 179 113 249 250 251
9 252 253 254 255 187 256 66 257 258
13 259 260 261 262 238 263 264 265 266 267 268 269 270
12 271 272 273 274 275 276 88 277 278 279 280 281
11 282 283 275 284 285 286 89 174 287 219 106
16 288 205 94 289 156 128 290 35 291 292 293 294 295 234 245 296
14 297 282 84 298 276 299 172 300 301 302 303 304 305 217
14 306 307 308 309 149 249 310 311 163 60 312 313 193 270
9 314 315 316 317 16 318 319 202 320
16 321 322 323 199 324 325 326 327 78 328 329 330 331 332 333 334
10 335 336 337 129 338 210 294 105 339 340
7 341 342 343 344 147 58 117
12 345 346 347 348 349 309 350 47 351 352 353 121
9 354 355 137 356 197 357 358 320 359
13 297 360 86 361 362 277 363 364 365 366 332 367 368
8 369 370 44 371 372 373 374 375
13 376 377 378 379 380 333 381 382 383 384 385 368 386
16 387 388 357 200 362 327 389 140 390 303 391 392 393 394 395 382
7 396 397 398 126 262 240 399
16 400 401 171 85 214 361 299 402 287 403 404 334 386 405 80 406
14 254 407 408 409 410 411 65 352 412 265 413 414 244 415
8 416 417 418 419 76 381 420 406
9 421 12 422 196 317 326 423 424 425
14 426 427 428 429 26 430 215 431 403 366 305 394 432 383
7 433 273 434 283 298 87 435
12 436 437 373 45 438 413 439 440 68 441 442 443
13 444 445 347 446 447 46 448 449 311 450 451 241 122
9 452 453 454 230 455 456 448 237 457
9 458 256 459 409 460 263 188 69 461
17 462 463 464 285 465 301 435 279 466 364 467 97 468 469 393 142 470
9 471 472 14 422 473 474 323 475 476
13 477 31 478 479 480 290 442 481 157 211 482 483 484
13 485 224 153 206 486 5 487 488 293 443 36 482 489
12 490 491 434 274 284 90 466 175 492 104 220 340
14 493 83 360 300 494 278 402 495 391 330 496 497 79 420
8 498 499 427 25 500 501 502 385
14 503 504 64 225 412 487 440 505 461 266 506 507 247 483
10 508 421 13 473 195 316 509 325 510 511
13 512 464 513 514 428 286 302 515 365 516 216 404 103
12 517 518 519 378 520 424 521 203 20 331 395 522
21 523 454 449 524 525 480 232 49 239 526 527 528 441 375 414 529 269 296 507 530 531
10 532 138 356 533 201 390 521 380 432 534
12 535 536 537 207 226 486 6 130 505 291 484 531
10 538 536 208 3 539 337 131 292 98 540
12 541 542 543 544 155 545 546 27 99 38 547 548
11 549 550 551 471 15 509 552 319 553 554 555
7 556 557 228 455 525 558 481
9 559 560 472 75 552 561 562 17 324
12 563 564 465 565 9 566 492 281 100 567 540 339
12 568 569 543 2 154 209 570 488 96 566 468 571
10 572 573 24 574 514 500 575 429 576 545
11 577 578 32 478 438 528 374 51 158 489 547
12 579 322 580 581 388 198 582 475 510 554 358 496
8 583 584 585 581 586 328 495 555
12 587 588 74 419 562 476 329 18 520 379 425 405
12 589 590 398 127 261 537 539 243 338 506 295 530
11 591 592 593 318 511 423 19 204 359 534 522
14 594 253 407 595 596 349 597 598 599 48 67 600 439 190
14 601 236 456 231 264 450 602 399 353 313 603 604 415 605
14 606 607 289 479 33 558 233 529 101 159 246 548 608 221
13 609 610 42 611 446 372 350 600 526 612 613 123 614
10 615 616 617 575 618 515 141 467 571 567
12 346 308 619 620 447 599 250 613 150 621 118 164
10 622 623 585 582 494 389 363 280 304 470
7 624 625 626 112 180 627 614
10 628 41 437 629 371 596 411 527 630 70
14 307 619 255 348 598 410 631 460 632 633 189 165 268 603
12 634 635 23 573 513 636 501 544 430 218 107 608
11 637 638 344 148 310 59 621 119 451 457 604
13 639 139 533 618 576 502 431 640 516 392 469 367 384
11 641 512 463 617 574 636 570 565 640 546 102
9 642 321 474 580 561 77 553 586 497
11 445 345 43 611 629 597 408 524 631 602 242
12 643 644 459 633 312 191 258 267 61 605 167 183
15 645 595 620 351 632 257 612 50 630 120 251 192 627 166 181
