ply
format ascii 1.0
element vertex 269
property float x
property float y
property float z
element face 518
property list uchar int vertex_indices
element cell 100
property list uchar int face_indices
end_header
1.428397412036 -0.000000000000 1.000000000000
1.279099763969 0.259921613819 0.645229142370
1.080408365247 -0.000000000000 0.802378594024
1.123859255328 0.246543448809 0.553738896857
1.040413710726 0.000000000000 0.416954941463
1.249012686852 0.277622181807 0.313349001611
1.632398116622 0.000000000000 0.310298733111
1.165550669905 0.173273259200 0.231123148878
1.497709303124 0.287565946491 0.453629629415
1.145612257077 -0.000000000000 0.214183519960
1.573879259641 0.256739132088 0.456917573422
1.753226413704 0.000000000000 0.481402453021
1.579040933419 -0.000000000000 0.801777909259
1.647937761199 0.107823090313 0.634652435232
1.726640602457 -0.000000000000 0.359135011570
1.662814498549 0.102712622272 0.392520319900
1.762446442239 0.339209192666 -0.000000000000
1.949777514144 0.081921180987 -0.000000000000
1.770810362378 0.437729558197 0.241516530898
1.854206292693 1.000000000000 -0.000000000000
1.689085369470 0.742929491103 -0.000000000000
2.190633840894 0.655211566335 0.000000000000
1.951316193440 1.000000000000 0.068398874068
1.999599909418 0.898765716575 0.175536083537
2.001315826069 1.000000000000 0.000000000000
2.123740664875 0.783275188205 0.186254144553
0.541754434775 0.649414683693 0.486968172924
0.774380629334 1.000000000000 0.207788788273
0.568551855865 0.689040260498 0.541405505158
0.807258921579 1.000000000000 0.458466095720
0.715148713646 0.883974536187 0.604445371950
0.209061036264 1.000000000000 0.435777905830
0.531070592660 1.000000000000 0.703725060914
0.381121848716 0.842751048509 0.555415000569
0.664298901641 1.000000000000 0.667886132341
1.518061824984 1.000000000000 0.776048921459
1.587552095516 1.000000000000 0.239913967441
1.503373711277 0.799252010319 0.773578931242
1.179149054499 1.000000000000 0.483535367973
1.194236795228 1.000000000000 0.701797455439
1.285969662793 1.000000000000 0.889388397154
1.477758545818 0.628235456719 0.620286621064
1.153698316910 0.714727735361 0.600555568727
1.338365212843 0.698144313987 0.475528015611
1.355652047462 0.668996445193 0.839460352633
1.293260710686 0.665023402706 0.850988372139
0.826342669388 0.689642042132 1.000000000000
0.907718898458 0.833334568532 1.000000000000
0.831253586678 1.000000000000 0.784063820565
1.044820959752 0.667305483052 0.514581033249
0.961734157842 0.545377520803 0.610585399748
0.923017947807 0.583108038190 0.576604690431
1.189708803547 0.598027055381 1.000000000000
1.193939910609 0.590448877631 0.859659572871
1.074837186611 0.539702300939 0.766601289019
2.987847975720 0.748306662461 1.000000000000
3.187925571198 0.179432569255 1.000000000000
3.118904240715 0.527703904889 0.699226944824
3.241716650880 0.320768390571 0.844519560287
3.406141441976 0.180702147576 1.000000000000
3.362290954102 0.477963660131 1.000000000000
2.671733532831 0.377106833433 1.000000000000
2.725291621686 0.767012142529 1.000000000000
2.675655545454 0.464246985372 0.858100017705
0.000000000000 0.000000000000 1.000000000000
-0.000000000000 0.530436927850 1.000000000000
-0.000000000000 -0.000000000000 0.527214356451
0.427252712840 -0.000000000000 1.000000000000
-0.000000000000 0.517549384949 0.743983739473
0.345011190665 0.391741219840 0.595330393981
0.397345948559 -0.000000000000 0.502735747664
0.138328245527 -0.000000000000 0.399321395138
0.525418684122 0.320445181179 0.784894183652
0.494000018698 0.279416611634 1.000000000000
0.329105306808 0.423890035814 1.000000000000
0.281634376246 0.308124012392 0.469816206530
0.511032987335 0.000000000000 0.639508645941
3.112141858867 0.571918063159 0.260021641494
3.243179130523 0.524213852337 -0.000000000000
3.485148397126 1.000000000000 -0.000000000000
2.912712051638 0.740183846235 0.000000000000
2.909235596928 0.739468811082 0.111718719326
3.404164258794 0.585414171522 0.271003121902
3.531020764387 0.542497436608 0.000000000000
4.000000000000 0.519476386077 -0.000000000000
4.000000000000 1.000000000000 0.000000000000
3.761552017790 0.668430460537 -0.000000000000
3.727952839963 0.576562023700 0.358638632264
4.000000000000 1.000000000000 0.431884788131
3.761247549802 0.587652874441 0.534465351567
4.000000000000 0.374931251565 0.459336731534
4.000000000000 0.560754827733 0.633575514147
3.906856901530 0.543601434945 0.622245902364
3.921321449211 0.423981769580 0.503271902394
2.714309809266 0.511924608283 0.440999958990
2.597413177898 0.581893472100 0.768192913125
2.433645538517 0.656027904189 0.709332196985
2.633200475010 0.298187507051 0.369872563123
2.528422053166 0.306424865068 0.311364911521
2.409837800096 0.224198545987 0.317781886568
2.677929801711 0.181797451266 0.510075206428
2.643220500719 0.730018397103 0.364979074649
2.326101302957 0.327384271283 0.643306770090
2.470862744390 0.595411293890 0.214223799620
2.564581350583 0.756943329718 0.716961301144
2.612115689361 0.767282492443 0.507733573368
2.530575288278 0.813160307889 0.606998847413
2.268710027704 0.313828059572 0.417095238966
2.710643103285 0.305438805462 0.554236052472
2.633736672154 0.365091012087 0.767025689216
2.227665561227 0.654916197610 0.172191521557
2.288280884538 0.324639055155 0.313053108239
2.151427748069 0.574766725721 0.500585016036
2.165097521580 0.524921115334 0.603755549709
2.196427865725 0.425574936560 0.599564769188
2.193866132661 0.408885617438 0.536307156728
2.539242476246 0.286408083865 0.723939875706
1.487442727293 0.575156732840 1.000000000000
1.842993662345 1.000000000000 0.865690648810
1.878853693449 1.000000000000 1.000000000000
1.855336466324 0.809077887113 1.000000000000
1.253163350197 1.000000000000 1.000000000000
3.517543003833 0.000000000000 1.000000000000
3.613718309768 0.307297300809 0.481939747977
3.714772357873 0.295283844393 1.000000000000
3.835234151096 0.237179959017 0.472789884946
3.729746824904 0.156338408778 0.449389586589
3.602690939041 0.000000000000 0.444991923990
3.652384507990 -0.000000000000 0.760545585528
3.570804962548 0.556210453184 0.491105668983
3.428690073497 -0.000000000000 0.586851893574
3.344797291745 0.218352750983 0.562252702516
0.361317568424 0.247622147948 -0.000000000000
0.554491788567 -0.000000000000 0.000000000000
0.157215714957 0.188234787350 0.202932415607
0.637782952726 0.422333716525 0.000000000000
0.625646511205 0.489368026033 0.191016987676
0.624655518555 -0.000000000000 0.374334441539
2.204927492609 0.537806366780 1.000000000000
2.582266869275 1.000000000000 1.000000000000
2.196663458417 0.815032303630 1.000000000000
2.200117476701 0.636267127473 0.837708873975
1.244334526780 0.488069915846 0.212764157862
1.022123510987 0.438836388845 0.684237958405
1.926850301298 0.371824718405 1.000000000000
1.929671986872 0.575766466074 0.804942176053
2.117415671444 0.292199059915 1.000000000000
3.576371968786 0.552532377010 0.187713898199
3.686336868009 1.000000000000 0.489620893106
3.441566684332 1.000000000000 0.369646921279
3.549238083525 0.733568891818 0.543726215994
3.416178387628 0.752829549568 0.470796788574
3.407547283793 0.608203246437 0.396380084868
1.634830820559 0.404183583956 1.000000000000
0.652083631047 0.240411126226 0.720589506950
1.042184055226 -0.000000000000 1.000000000000
0.901247318844 0.264429948454 1.000000000000
0.616336743517 0.310757700326 1.000000000000
1.587503940347 0.171877266685 0.000000000000
1.439362564591 0.638260330023 0.000000000000
1.654047604524 0.288980797974 0.358572178489
1.095935465191 0.394051574917 0.000000000000
1.234180831688 0.551692494268 -0.000000000000
1.174574588170 0.504985461127 0.049491320865
1.171240771721 0.500164693477 -0.000000000000
2.099250883865 0.414586042197 0.735313679708
1.673950089469 0.441896587582 0.676179237038
1.870201794268 0.667240229656 0.571855413042
1.895743191954 0.587386627493 0.664955963648
1.686186498321 0.185617912248 0.707903286665
1.631392404630 0.480344141832 0.590868347081
1.944263995802 0.760163484248 0.375537199226
1.757528129352 0.630242718335 0.513841408272
2.832215825138 0.807595871420 0.309434987138
2.515839116280 1.000000000000 0.677780595805
2.895048629386 1.000000000000 0.292718673534
2.802765507052 1.000000000000 0.140996695128
2.856430164626 0.888361306609 0.236144893147
2.018125474619 1.000000000000 0.231736096064
0.803300723499 0.185859849780 0.395203555229
4.000000000000 1.000000000000 1.000000000000
3.632558539050 1.000000000000 1.000000000000
4.000000000000 0.545493439155 1.000000000000
3.626253236628 0.785694725939 1.000000000000
3.561113468137 0.797671328215 0.886694087395
3.444703623236 0.755703629191 0.789754457504
3.288057687333 0.769349608246 0.582998427259
3.166019514755 0.622398546253 0.546105355809
3.178602889249 0.531334168058 0.488661174604
3.162455804683 0.431016605733 0.541690521327
3.229866480477 0.368309090688 0.468927659205
3.236725523771 0.480770567864 0.441640343365
2.986660977427 0.000000000000 1.000000000000
2.736314218501 0.000000000000 0.487837971289
2.798100122602 0.132550873240 0.451916650034
3.664654862049 0.371531625066 0.175660220248
3.603889636141 0.349919211742 0.000000000000
3.528204943455 0.320954588898 0.000000000000
3.719552358417 0.288915892831 0.185298801419
3.757794572831 0.142149369094 0.391622062336
2.822749252469 0.365045636146 0.186675696584
2.923749929604 0.295714302714 0.118349330980
3.085509319918 0.596459895596 0.435277813344
3.146797461031 0.534511174463 0.347149096509
3.016623853754 0.108409524173 0.294325017255
3.051554663589 0.750389972484 0.518129493346
2.865594286064 0.509722154531 0.074663154885
2.300824648904 0.103457515511 1.000000000000
2.306955592412 0.109567324761 0.941201791357
1.669307237631 -0.000000000000 -0.000000000000
1.093012274877 -0.000000000000 -0.000000000000
2.638765675975 0.363088345148 -0.000000000000
2.919423683400 0.269159478411 0.000000000000
2.601747949747 0.296988718374 0.149711799823
2.553916691574 0.568645594683 -0.000000000000
2.837155850759 0.609751877131 0.000000000000
4.000000000000 -0.000000000000 0.765731935364
4.000000000000 -0.000000000000 0.285476397513
4.000000000000 0.221796865018 0.329351438342
4.000000000000 0.287108286105 0.414098938254
3.950053087879 0.281592095666 0.420109639837
3.919107139921 0.226099756150 0.356262162015
3.129850425260 1.000000000000 1.000000000000
3.268188510225 1.000000000000 0.815656115483
0.000000000000 1.000000000000 1.000000000000
0.000000000000 1.000000000000 0.392586363019
0.405918455195 1.000000000000 1.000000000000
0.785124853739 1.000000000000 -0.000000000000
1.303807226957 1.000000000000 -0.000000000000
1.016992857202 0.649980098099 0.276059347496
0.972357712592 1.000000000000 0.364832216274
1.957119698279 -0.000000000000 -0.000000000000
2.245521481315 0.000000000000 0.000000000000
4.000000000000 0.000000000000 1.000000000000
3.182656536756 1.000000000000 0.526338315311
1.590583090234 0.000000000000 1.000000000000
2.802305083399 1.000000000000 -0.000000000000
1.675473045307 1.000000000000 -0.000000000000
0.587004825700 0.484740098497 0.645128572786
0.554003604285 0.596182004058 0.484286810616
0.578527185907 0.587953197274 0.524630704916
0.524427540147 0.859528942163 0.806812435951
2.151095296009 1.000000000000 1.000000000000
1.965986790589 1.000000000000 0.572221903806
2.756139832875 1.000000000000 1.000000000000
2.294715333201 -0.000000000000 0.930464822571
2.291513702233 -0.000000000000 1.000000000000
2.384401277416 0.105369304662 0.206439171831
0.761137610315 0.499215916648 0.535187486678
4.000000000000 0.294232586866 -0.000000000000
-0.000000000000 1.000000000000 0.000000000000
0.652865748665 1.000000000000 -0.000000000000
0.339438919074 0.710365008270 0.000000000000
0.516424562056 0.633936384485 -0.000000000000
0.000000000000 0.349661704160 0.000000000000
0.410273281844 0.443539880086 0.385303324542
2.228520042334 -0.000000000000 0.531382968535
2.438653373148 -0.000000000000 0.260600633746
0.000000000000 0.623754700857 0.357698294251
2.618061062910 -0.000000000000 -0.000000000000
2.386196205197 -0.000000000000 0.156009143177
-0.000000000000 0.822131094862 -0.000000000000
3.034338827672 0.000000000000 0.000000000000
3.001745561831 -0.000000000000 0.294478362925
4.000000000000 0.000000000000 0.000000000000
3.551316415671 -0.000000000000 -0.000000000000
0.000000000000 0.000000000000 0.000000000000
-0.000000000000 -0.000000000000 0.260131730634
0.969817043379 1.000000000000 1.000000000000
8 11 12 0 2 4 9 6 14
4 2 0 1 3
4 1 3 5 8
6 0 1 8 10 13 12
3 2 3 4
6 6 7 5 8 10 15
4 7 5 3 4
3 6 7 9
3 9 7 4
4 11 13 10 15
3 6 14 15
3 11 12 13
3 14 11 15
3 19 22 24
6 21 17 16 20 19 24
3 16 17 18
3 16 18 20
4 18 17 21 25
3 18 23 25
5 18 20 19 22 23
3 21 24 25
4 24 22 23 25
5 29 27 31 32 34
3 27 26 31
5 27 26 28 30 29
3 26 31 33
4 26 28 32 33
4 30 28 32 34
3 29 30 34
3 32 33 31
5 35 36 38 39 40
4 37 35 36 41
5 40 35 37 44 45
4 36 38 42 43
3 37 41 44
3 39 38 42
4 42 39 40 45
3 36 41 43
4 42 43 41 45
3 44 45 41
3 47 46 52
5 47 48 42 53 52
5 48 34 30 49 42
5 30 34 46 50 51
4 46 50 54 52
4 47 46 34 48
3 30 49 51
5 42 49 50 54 53
3 50 51 49
3 52 53 54
6 61 56 59 60 55 62
5 57 58 56 61 63
3 55 57 60
3 62 57 55
3 57 62 63
3 56 59 58
4 57 58 59 60
3 62 61 63
4 66 64 65 68
6 67 64 66 71 70 76
5 65 64 67 73 74
5 76 70 75 69 72
5 65 68 69 72 74
4 71 66 68 75
4 73 67 76 72
3 69 68 75
3 70 71 75
3 73 74 72
4 78 80 79 83
4 78 77 81 80
4 77 81 79 82
4 82 77 78 83
3 79 80 81
3 79 82 83
5 84 85 88 91 90
3 84 86 85
5 87 86 84 90 93
5 87 86 85 88 89
3 87 89 93
3 89 92 93
4 89 88 91 92
4 90 91 92 93
4 97 94 101 103
7 95 104 105 101 94 108 109
4 94 97 100 108
7 109 95 96 113 114 102 116
3 98 97 103
5 99 98 103 110 111
5 102 107 99 100 116
6 96 104 106 25 112 113
3 96 95 104
4 97 98 99 100
4 101 105 106 25
4 102 107 115 114
4 103 101 25 110
3 104 105 106
5 25 111 107 115 112
3 99 107 111
3 100 108 109
3 25 110 111
4 112 113 114 115
3 116 109 100
5 119 118 35 40 121
5 117 120 119 121 52
4 117 118 37 44
3 117 120 118
3 35 37 118
3 118 119 120
4 117 44 45 52
4 121 40 45 52
4 127 128 122 130
3 122 124 59
6 124 122 128 125 93 92
6 93 125 126 123 129 89
4 123 126 127 131
3 129 123 131
5 124 59 129 89 92
4 125 126 127 128
3 129 59 131
3 127 131 130
4 59 122 130 131
4 133 137 70 71
3 133 132 135
5 132 134 75 136 135
4 132 133 71 134
4 137 136 75 70
3 134 71 75
4 133 135 136 137
5 139 140 138 61 62
6 138 141 96 95 63 61
3 138 140 141
5 139 140 141 96 104
4 95 63 62 104
3 62 104 139
5 8 1 53 45 41
5 142 5 3 50 49
4 142 43 41 8
5 1 3 143 54 53
4 42 43 142 49
3 3 143 50
3 50 54 143
3 45 42 53
3 142 5 8
3 146 120 144
3 144 120 145
3 120 145 146
3 145 144 146
5 149 148 88 85 79
4 85 86 83 79
4 86 87 147 83
4 89 87 147 129
4 148 88 89 150
5 152 129 147 83 82
4 149 148 150 151
5 149 151 152 82 79
3 89 129 150
4 129 150 151 152
3 153 144 120
3 153 145 120
3 144 153 145
4 2 155 67 76
5 67 155 156 157 73
3 154 2 76
3 154 2 156
4 72 154 156 157
3 2 155 156
3 154 76 72
3 157 73 72
5 162 159 158 161 164
4 6 158 161 7
3 158 159 160
4 158 6 15 160
5 159 160 10 8 142
5 163 142 5 7 161
3 10 160 15
4 159 142 163 162
3 162 163 164
3 161 164 163
6 115 112 171 160 15 11
4 165 169 166 168
4 11 165 114 115
4 169 165 11 13
3 166 168 167
4 170 166 167 172
5 170 172 171 160 10
5 171 167 168 165 113
5 170 166 169 13 10
3 165 113 114
3 171 167 172
3 171 112 113
6 178 174 175 176 24 22
6 101 173 177 176 24 25
5 173 105 106 174 175
3 105 173 101
5 25 106 174 178 23
3 175 176 177
3 173 177 175
3 178 22 23
4 137 4 2 76
3 154 4 2
3 154 179 4
4 154 179 137 76
3 179 137 4
4 88 180 182 91
4 181 180 88 148
4 182 180 181 183
4 181 148 150 184
6 182 183 184 150 89 92
3 181 183 184
3 182 91 92
5 129 59 60 185 150
4 185 186 57 60
4 150 185 186 151
3 186 57 187
5 152 129 131 190 191
6 152 151 186 187 188 191
5 189 58 59 131 190
3 57 58 189
4 187 57 189 188
4 188 189 190 191
4 140 120 146 138
5 141 140 120 145 165
3 145 146 165
4 141 138 146 165
3 2 0 155
4 52 156 155 0
4 143 3 2 156
4 0 1 53 52
4 143 156 52 54
3 192 56 61
6 193 192 56 58 189 194
5 61 192 193 100 109
5 57 189 108 109 63
4 100 108 189 194
3 194 193 100
3 61 63 109
5 123 195 196 197 131
5 123 195 198 199 126
3 195 196 198
3 197 127 131
5 198 196 197 127 199
3 127 126 199
5 201 200 94 202 203
3 200 94 97
5 202 94 108 189 188
3 200 201 97
5 194 204 201 97 100
5 204 201 203 191 190
4 202 203 191 188
4 194 204 190 189
3 173 94 202
3 94 173 101
5 62 205 173 105 104
4 62 205 187 57
5 205 173 202 188 187
3 109 63 95
5 173 94 200 206 81
3 200 201 206
4 206 201 77 81
3 201 203 77
5 81 77 203 202 173
4 138 146 207 61
3 141 96 113
3 141 113 165
4 208 102 114 165
3 102 116 208
4 165 146 207 208
5 207 208 116 109 61
4 209 6 9 210
4 158 209 210 161
3 209 6 158
4 9 210 161 7
4 212 211 214 215
5 215 206 200 97 103
5 214 211 213 98 103
3 211 213 212
5 201 212 213 98 97
3 215 214 103
4 206 215 212 201
4 216 217 218 219
4 217 216 128 127
5 216 128 125 220 219
5 199 127 217 218 221
5 125 126 199 221 220
4 218 219 220 221
3 222 181 223
4 222 60 183 181
4 223 222 60 185
4 185 223 181 184
4 185 60 183 184
4 117 118 167 166
4 120 117 166 168
4 118 120 168 167
5 137 133 210 9 4
4 161 210 133 135
5 179 136 161 7 4
3 179 137 136
3 135 161 136
5 103 215 81 173 101
3 206 81 215
4 68 65 224 225
5 31 225 224 226 32
3 224 65 226
5 33 68 65 226 32
4 225 68 33 31
4 228 227 27 230
4 227 228 162 164
5 229 27 227 164 163
5 228 230 229 163 162
3 229 27 230
3 231 232 14
4 232 231 17 21
4 18 14 111 25
4 231 17 18 14
3 232 14 111
4 21 232 111 110
3 110 21 25
6 182 233 216 219 90 91
4 216 233 122 128
4 122 233 182 124
3 125 220 93
3 124 182 92
4 220 219 90 93
4 79 175 234 149
4 81 79 175 177
4 175 234 205 173
4 77 203 191 82
4 205 234 186 187
4 234 149 151 186
3 81 173 177
3 82 152 191
3 0 12 235
5 0 235 153 117 52
5 41 170 166 117 44
3 117 166 153
4 153 166 169 235
4 41 8 10 170
4 235 12 13 169
3 53 45 52
4 236 176 175 79
3 80 236 79
5 81 80 236 176 177
4 16 158 159 20
4 16 158 160 18
4 20 159 160 18
5 237 228 230 38 36
4 228 237 159 162
5 142 43 36 237 159
3 229 230 49
4 230 38 42 49
4 229 49 142 163
3 196 197 83
4 123 195 147 129
4 196 195 147 83
3 197 190 131
5 197 83 82 191 190
3 226 65 74
5 69 68 33 26 239
5 226 74 72 238 241
5 32 28 240 238 241
5 69 72 238 240 239
4 26 239 240 28
3 32 241 226
4 242 243 118 119
4 140 242 119 120
6 113 141 140 242 243 171
3 120 145 168
3 145 165 168
4 243 118 167 171
4 244 222 223 234
4 55 222 244 62
5 223 222 55 57 186
4 244 234 205 62
3 186 223 234
5 245 246 235 12 11
4 146 235 246 207
4 165 11 245 208
4 146 165 169 235
4 245 246 207 208
4 14 11 107 111
4 18 160 15 14
3 11 115 107
4 160 18 23 171
4 171 112 25 23
4 214 211 232 21
4 213 211 232 247
4 98 213 247 99
4 110 103 214 21
4 247 232 111 99
6 22 36 35 118 243 178
5 118 37 41 172 167
6 36 41 172 171 23 22
4 171 243 178 23
4 143 154 4 3
5 179 4 3 50 248
4 50 143 154 248
3 179 154 248
7 93 87 147 195 198 221 220
3 198 221 199
5 249 84 90 219 218
5 86 84 249 196 83
5 198 196 249 218 221
4 27 251 250 31
4 250 251 253 252
3 26 27 136
5 26 136 252 250 31
4 27 251 253 136
3 136 252 253
3 143 154 156
4 209 231 14 6
5 158 16 17 231 209
4 237 36 22 19
4 159 237 19 20
3 41 172 170
3 227 251 27
6 135 253 251 227 164 161
3 27 229 136
4 229 136 161 163
3 136 135 253
5 178 243 242 139 174
3 242 140 139
4 139 174 106 104
5 135 132 254 252 253
4 252 254 75 255
3 255 252 136
3 75 254 134
3 132 254 134
3 136 75 255
3 256 245 11
3 256 11 107
5 102 107 256 245 208
4 245 256 257 193
4 107 256 257 99
5 245 208 116 100 193
4 100 99 257 193
3 225 258 68
6 255 258 225 31 26 239
3 255 258 75
3 258 68 75
4 69 75 255 239
3 259 260 232
4 211 212 259 232
5 213 212 259 260 247
3 260 247 232
5 223 181 148 149 234
3 185 186 223
3 185 184 150
4 78 212 215 80
4 77 78 212 201
3 81 80 215
6 257 256 11 14 232 260
4 257 99 247 260
3 76 70 137
3 179 248 136
4 154 248 238 72
3 255 239 136
3 248 238 240
4 239 240 248 136
4 250 261 258 225
3 250 225 31
3 261 250 252
4 252 261 258 255
3 26 136 239
6 29 34 48 39 38 230
3 48 39 42
4 29 30 49 230
6 193 257 260 259 262 263
3 259 212 262
4 201 212 262 204
4 193 194 204 263
3 262 263 204
4 264 249 218 217
4 127 265 264 217
5 196 249 264 265 197
3 127 197 265
3 24 176 236
6 236 80 215 214 21 24
5 263 130 122 192 193
4 59 56 192 122
5 190 204 263 130 131
3 266 267 254
4 266 133 71 267
4 132 133 266 254
4 71 267 254 134
4 52 46 157 156
4 248 238 46 50
4 157 46 238 72
5 182 183 60 59 124
5 244 234 175 174 139
3 244 139 62
5 39 48 268 121 40
4 121 268 47 52
3 268 48 47
5 258 254 267 66 68
3 267 71 66
3 258 254 75
3 153 120 117
4 153 145 168 166
5 265 127 130 263 262
3 197 265 262
4 190 197 262 204
5 226 268 48 34 32
4 46 47 268 226
4 241 46 34 32
3 46 241 226
3 241 46 238
5 30 28 240 248 51
3 51 50 248
4 146 144 153 235
3 27 29 230
5 229 136 248 51 49
3 222 55 60
3 261 254 258
3 261 252 254
5 197 262 212 78 83
4 193 192 246 245
4 192 61 207 246
5 157 46 226 74 73
13 0 1 2 3 4 5 6 7 8 9 10 11 12
9 13 14 15 16 17 18 19 20 21
8 22 23 24 25 26 27 28 29
10 30 31 32 33 34 35 36 37 38 39
10 40 41 42 43 44 45 46 47 48 49
8 50 51 52 53 54 55 56 57
10 58 59 60 61 62 63 64 65 66 67
6 68 69 70 71 72 73
8 74 75 76 77 78 79 80 81
20 82 83 84 85 86 87 88 89 90 91 92 93 94 95 96 97 98 99 100 101
9 102 103 104 105 106 32 107 108 109
12 110 111 112 113 114 115 116 117 118 79 119 120
8 121 122 123 124 125 126 127 66
8 128 129 130 131 90 132 57 133
12 134 135 136 137 2 138 139 38 47 140 141 142
4 143 144 145 146
12 147 148 77 149 150 151 152 153 154 155 156 73
4 157 144 158 159
9 160 161 162 163 164 165 166 64 167
12 168 169 170 171 172 5 142 173 174 175 176 177
15 178 179 180 181 182 183 184 185 186 187 188 189 174 100 9
10 190 191 192 92 193 194 195 196 197 21
6 198 199 200 162 201 202
9 203 204 205 206 207 151 208 80 209
13 210 211 118 212 213 214 56 156 215 216 217 218 219
6 220 145 221 222 130 223
9 224 225 226 227 137 228 1 165 49
10 229 230 51 231 232 233 98 217 234 235
7 236 237 238 239 114 240 241
11 242 243 244 245 246 247 84 233 248 249 219
13 244 250 251 252 83 232 253 54 254 193 255 132 218
7 242 256 257 250 258 259 260
13 261 129 223 262 263 85 264 265 266 267 187 255 235
6 268 269 169 270 7 271
10 272 273 274 275 276 257 245 277 278 86
8 279 280 281 117 282 283 241 284
6 285 286 287 288 289 208
5 290 291 105 292 182
9 293 294 295 127 296 202 271 297 8
7 256 243 273 251 82 298 299
6 300 301 302 303 304 29
6 305 306 307 308 309 176
9 310 311 312 17 313 314 315 99 316
10 317 318 319 281 112 320 321 322 81 209
15 323 70 324 260 325 326 248 254 327 154 328 329 215 196 330
14 331 332 134 227 333 334 335 3 336 186 39 108 337 338
6 339 340 324 72 341 195
5 342 343 16 170 344
10 345 346 308 33 347 138 348 349 350 175
10 351 236 352 353 354 115 355 152 214 330
10 356 357 303 358 359 62 360 26 361 362
11 363 364 365 221 366 292 367 263 368 185 107
9 369 370 371 372 253 373 53 213 327
9 374 375 376 377 181 266 337 378 11
10 312 178 18 379 380 381 382 96 383 12
8 384 385 274 386 387 87 315 388
9 389 31 390 106 368 391 188 392 197
6 393 200 394 395 396 139
9 352 237 397 113 78 398 150 320 283
10 399 400 76 397 238 353 401 149 322 284
7 402 403 23 404 405 406 407
6 393 199 226 163 408 4
9 409 410 343 15 171 313 270 380 10
13 411 412 136 172 347 344 37 391 184 336 413 382 19
9 414 415 307 416 406 417 297 418 177
11 419 420 365 131 262 89 194 392 189 421 383
9 422 423 123 424 425 426 427 407 418
8 428 429 430 376 180 381 264 93
7 431 430 432 433 88 265 434
9 435 436 357 437 304 438 25 439 65
6 440 441 442 385 275 443
9 444 206 288 445 212 446 373 153 328
7 447 448 69 258 299 278 449
9 450 429 432 379 314 97 388 451 443
15 452 125 396 201 427 61 296 453 454 439 360 455 166 456 457
9 458 459 460 436 461 424 405 455 462
7 463 464 42 465 35 349 28
13 466 467 442 276 386 246 91 468 434 451 469 234 470
8 471 472 473 240 398 401 474 282
12 475 476 191 298 277 387 341 449 94 329 316 20
9 477 478 230 55 249 479 216 120 469
6 480 481 482 124 426 483
10 484 485 486 408 395 44 228 164 454 140
8 487 210 207 116 289 446 321 155
9 488 489 372 252 192 325 95 421 133
9 490 491 41 464 492 36 141 109 338
8 493 494 495 425 438 126 483 63
6 496 291 158 497 366 334
9 498 499 239 354 500 474 119 479 470
7 501 502 45 492 503 504 362
9 505 43 485 503 359 506 27 456 507
9 508 159 146 497 222 179 377 367 335
13 509 24 416 404 309 465 510 506 46 348 457 462 361
6 511 287 371 211 445 52
6 512 513 423 461 495 437
11 394 135 510 295 453 417 350 6 507 48 173
9 514 448 71 500 259 247 355 326 468
7 290 390 104 333 34 183 413
7 515 516 231 433 267 101 378
7 517 505 486 358 504 167 67
