ply
format ascii 1.0
element vertex 246
property float x
property float y
property float z
element face 293
property list uchar int vertex_indices
element cell 50
property list uchar int face_indices
end_header
0.777029181572 -0.000000000000 2.177313344038
0.596856223220 -0.000000000000 1.932558437957
0.253388260747 -0.000000000000 2.119621000493
0.394110477593 -0.000000000000 1.941939392809
0.563950877616 -0.000000000000 2.430047741062
0.441877943016 -0.000000000000 2.427703917034
0.457430120832 0.257015712090 2.461751804354
0.540121010803 0.256675118619 2.463294761428
0.598483250996 0.525303294472 2.230425384272
0.687537815481 0.455732067910 2.292305928232
0.771806870352 0.414987322793 2.191562652155
0.651435357191 0.520747088866 2.033484081449
0.259331870795 0.419027291299 2.143402665919
0.331698633228 0.482315862269 2.263809434453
0.383117733908 0.517589712436 2.233890735415
0.400628030930 0.510342074445 1.994306073219
0.382451606348 0.496939446484 1.993763912284
0.615692386228 0.511094646368 1.984432808627
0.635490199276 0.519452569392 2.011756895125
0.604107474872 0.517452011279 1.985624929088
0.532542434417 0.895947300308 2.495451686478
0.822865808221 0.540866153604 2.510369673274
0.612815102010 0.833713849752 2.448084660329
0.189389865724 0.512378299264 2.520874058036
0.340047379078 0.325617703801 2.580100495405
0.505788219286 0.790885825668 2.691457213482
0.349297668335 0.585919717282 2.780612844903
0.453616096706 0.463100316377 2.826329460595
0.193192625263 0.555915946366 2.419168846432
0.321904350162 0.713246244715 2.374887625619
0.795155751898 0.474990255731 2.651865843314
0.665349294776 0.532768284476 2.789857111483
0.566530094363 0.459733144158 2.823300966653
0.696385716241 0.368128736892 2.664572039468
-0.000000000000 -0.000000000000 1.146918794549
-0.000000000000 0.336728188346 1.252379546476
0.259436285752 -0.000000000000 1.120070377964
0.340874564800 0.360600043187 1.224579771265
-0.000000000000 -0.000000000000 1.670004185331
-0.000000000000 0.331456612072 1.603969718582
0.240693471896 0.347538856543 1.635949628743
0.297120962331 -0.000000000000 1.713436494014
0.514001512922 -0.000000000000 1.333559065203
0.517180921601 -0.000000000000 1.542426227576
0.454854463951 0.364860925571 1.463475797934
0.475199893437 0.368142369358 1.337987831301
0.515739350899 0.303400779913 1.365484417571
0.516850220606 0.281556876375 1.444382572216
0.000000000000 0.000000000000 4.000000000000
-0.000000000000 -0.000000000000 3.649423990073
0.442454135699 -0.000000000000 3.625480288708
0.487852135561 -0.000000000000 4.000000000000
-0.000000000000 0.508368839221 4.000000000000
-0.000000000000 0.472650371782 3.684337683339
0.500650835572 0.312220592058 3.645394016753
0.546649555797 0.329093499588 4.000000000000
0.438584885236 0.539615749524 4.000000000000
0.398646725687 0.498829636369 3.664698456714
0.410603825419 0.493118276908 3.663629504103
0.408128033165 0.500256577635 3.671339377389
1.000000000000 -0.000000000000 3.125049925696
1.000000000000 -0.000000000000 3.512862302666
1.000000000000 0.330099997921 3.570031010573
1.000000000000 0.444895167082 3.194144730430
1.000000000000 0.477408582975 3.479469399110
0.501718081769 -0.000000000000 3.519838400191
0.456800680308 -0.000000000000 3.366003520917
0.540891529177 0.310873886555 3.573128974103
0.688284748003 0.528242032599 3.442296562819
0.529187002523 0.423283301755 3.503800141129
0.470920303871 0.432792881382 3.301772198456
0.556308369201 0.410861206786 3.105688196271
0.685822511567 0.494567600771 3.142965964495
0.598680100053 0.520568214917 3.236035940317
0.504077241966 0.468882592107 3.222380071469
0.582890182565 -0.000000000000 3.074092945255
0.628317925755 -0.000000000000 3.055377395293
0.585303261961 0.092871654665 3.061737720240
0.576495630657 1.000000000000 3.218118443681
1.000000000000 1.000000000000 3.525012420373
0.688172926669 1.000000000000 3.474529343683
1.000000000000 0.668153871615 3.580220753689
0.722838257835 0.685510199540 3.532462277349
1.000000000000 1.000000000000 2.992332596423
0.772126018805 1.000000000000 3.004043970790
1.000000000000 0.620263994770 2.965037078700
0.830490284811 0.619312031881 2.973680447792
-0.000000000000 0.851717507748 1.406940371744
0.288099102366 0.831124903401 1.359420132259
-0.000000000000 0.523449028073 1.153821326485
0.277691916475 0.537396684463 1.134077176212
0.439347359421 0.559050385738 1.628022532521
0.475426400089 0.705413014193 1.454724270178
-0.000000000000 0.557132993259 1.737928816945
0.270663607795 0.503784358679 1.731488640984
0.489144189845 0.445618667324 1.278333422716
0.380223265969 0.452380977111 1.174379846167
0.821375498803 -0.000000000000 2.718726649689
0.205259763366 -0.000000000000 2.854846911303
0.175856043453 -0.000000000000 2.666861428147
0.445110812345 0.417155349457 2.932311136138
0.507880280797 0.397346119033 2.971688219167
0.418408795464 1.000000000000 3.192713123183
0.386103774345 0.520979531662 3.201861581397
-0.000000000000 1.000000000000 2.903527317735
0.284033468535 1.000000000000 2.932356044717
-0.000000000000 0.656813345561 2.869847162763
-0.000000000000 0.446225090163 3.094585433543
0.292896069782 0.516635050980 3.021918919244
0.235160584177 0.638036276057 2.891872635709
-0.000000000000 0.432975663940 3.243546422021
0.321333189956 0.500514406706 3.272962043780
-0.000000000000 1.000000000000 3.491411082335
-0.000000000000 0.589597716295 3.491906432903
0.142217364551 0.602825842128 3.478501521976
0.164514110356 1.000000000000 3.475923027557
1.000000000000 1.000000000000 1.631340988501
1.000000000000 0.680386789852 1.589732135262
0.702851101789 0.603424367550 1.247434354803
1.000000000000 0.561362997661 1.312165552189
1.000000000000 1.000000000000 1.110236865741
0.701423876564 1.000000000000 1.096051467094
0.774958177993 0.730592884282 1.101787558621
1.000000000000 0.731378809204 1.112472789220
0.464606852034 1.000000000000 1.412951009398
0.574240144544 1.000000000000 1.605092056668
0.566276460571 0.776176649516 1.575462631782
0.502673463691 0.742304591136 1.461621560456
0.755395268455 1.000000000000 2.074044741804
0.499834677848 1.000000000000 1.859949164977
0.272216602394 1.000000000000 1.966115631626
0.248730669409 1.000000000000 2.327217794575
0.535342439795 1.000000000000 2.495375121974
0.659480696754 1.000000000000 2.423551621142
0.388008486997 0.580210669346 1.902593927943
0.469214069724 0.608781808028 1.865365222471
0.654257777641 0.525123497419 2.027029056820
-0.000000000000 -0.000000000000 2.127652799645
-0.000000000000 0.414016958437 2.151336251835
0.332025477632 0.553598878922 1.884002891450
-0.000000000000 0.588144262100 1.815056987449
1.000000000000 -0.000000000000 2.722713015081
1.000000000000 0.482369772917 2.655407686930
1.000000000000 0.906035162078 0.489851755015
0.790349876927 0.880534635734 0.514700322203
1.000000000000 0.510343784410 0.206654232022
1.000000000000 0.268924262029 0.442546518786
0.757865236121 0.281561853320 0.475440634804
0.550077207985 0.505365712014 0.295585463256
0.657328491938 0.565295525737 0.791154361654
0.614691296400 0.511925235882 0.780744669603
0.677720117689 0.431773544485 0.766171958336
1.000000000000 0.440013068913 0.770414222242
1.000000000000 0.558557676500 0.792745428508
0.507743421834 0.568664889442 0.358719742479
0.513073436747 0.577753576386 0.355000824942
0.514350273213 0.557220533980 0.340042775025
1.000000000000 0.424526708851 1.327843468282
0.653721549440 0.363033180336 1.265071349529
1.000000000000 0.338756264664 1.634082014981
1.000000000000 -0.000000000000 1.691996164622
0.707664817460 -0.000000000000 1.713468789880
0.757618194038 0.275386424837 1.662719239807
0.858686443842 -0.000000000000 1.066387178365
1.000000000000 -0.000000000000 1.071725834643
1.000000000000 0.105562166536 1.072488206867
0.872016567515 0.105776423451 1.067654694005
-0.000000000000 -0.000000000000 2.660063648553
-0.000000000000 0.529452585764 2.508670866326
-0.000000000000 0.559333853485 2.439245867315
1.000000000000 0.000000000000 0.000000000000
0.492777941468 -0.000000000000 0.319372648546
0.503167032861 -0.000000000000 -0.000000000000
1.000000000000 -0.000000000000 0.404923696714
0.669152023303 -0.000000000000 0.447453764369
1.000000000000 0.512640723904 -0.000000000000
0.517948807589 0.505340107419 0.272257449674
0.511488784970 0.498994734326 0.268387374307
0.520518822627 0.507758328268 -0.000000000000
0.521166902238 0.508394755489 -0.000000000000
-0.000000000000 -0.000000000000 0.846393099035
0.330472798080 -0.000000000000 0.827086193260
0.367725041877 0.104106873088 0.800586395436
-0.000000000000 0.574660101101 0.880275467916
-0.000000000000 0.452655505529 0.740635037574
0.281415624302 0.455405024949 0.723551758099
0.470387444423 0.502110059719 0.863238490542
0.339874549439 0.588759849858 0.871980638610
0.469831928625 0.502648358277 0.862803860686
0.365831655102 0.514053517927 0.784609473855
0.345684421538 0.586033608595 0.868442660875
-0.000000000000 -0.000000000000 3.309550558909
-0.000000000000 -0.000000000000 2.924571076994
1.000000000000 0.348207310233 4.000000000000
1.000000000000 0.638662611367 4.000000000000
0.500611561275 0.663889701930 4.000000000000
0.501184951552 0.682918874388 3.728726047507
1.000000000000 1.000000000000 2.037076677580
1.000000000000 0.559884798487 1.979336167351
1.000000000000 0.508747650742 1.737962406055
0.703840429886 0.484631777077 1.805533175728
0.507483270271 0.604329791213 1.733151830896
0.000000000000 1.000000000000 0.000000000000
-0.000000000000 1.000000000000 0.376462054215
-0.000000000000 0.511913874078 -0.000000000000
-0.000000000000 0.500811720574 0.337232239417
0.289414747343 1.000000000000 0.444019802211
0.495043294255 1.000000000000 -0.000000000000
0.490920042060 1.000000000000 0.332085120788
0.292562413139 0.496239602603 0.405165433378
0.379652665541 0.560558136057 0.430549423924
0.411288542297 1.000000000000 0.903554802168
0.599834464489 0.610898397166 0.873163445578
0.529503538921 1.000000000000 0.904788775371
0.500636081951 0.504250590594 0.863258655157
0.567506501294 0.456938587683 1.236929272105
0.321456806914 1.000000000000 1.352248552427
0.342612100433 0.600757966280 0.869635135817
0.476185952244 0.502573101434 0.862863927703
0.454257762081 1.000000000000 3.680880746080
-0.000000000000 1.000000000000 0.798722658283
0.266383736398 1.000000000000 0.794340278322
-0.000000000000 1.000000000000 1.405494924990
1.000000000000 0.000000000000 4.000000000000
1.000000000000 -0.000000000000 2.180898131207
1.000000000000 0.414233641350 2.195205368977
1.000000000000 0.543566895253 2.521486681952
0.625105101262 0.363052999620 0.826332388894
0.501990022725 0.502567630065 0.860829856211
0.000000000000 0.000000000000 0.000000000000
-0.000000000000 -0.000000000000 0.304099988850
0.379661832958 -0.000000000000 0.389931749943
-0.000000000000 0.477425194693 0.362492114123
0.267258472728 0.475035083089 0.422620044969
0.000000000000 1.000000000000 4.000000000000
0.450227602030 1.000000000000 4.000000000000
0.780351447916 1.000000000000 0.505975475153
-0.000000000000 1.000000000000 1.903506656489
-0.000000000000 1.000000000000 2.353918530902
0.505510800467 1.000000000000 2.739653315392
0.391942039588 -0.000000000000 0.780174447586
0.520035430210 -0.000000000000 0.770081987704
1.000000000000 1.000000000000 2.445783848543
1.000000000000 1.000000000000 4.000000000000
1.000000000000 1.000000000000 0.000000000000
1.000000000000 1.000000000000 0.482135724568
6 2 3 1 0 4 5
5 6 5 2 12 13
6 11 10 0 1 17 18
5 0 4 7 9 10
6 15 16 3 1 17 19
4 2 3 16 12
6 8 9 7 6 13 14
6 15 14 8 11 18 19
4 4 5 6 7
4 8 9 10 11
5 12 13 14 15 16
3 17 18 19
6 20 25 26 23 28 29
6 21 22 20 25 31 30
6 7 6 24 27 32 33
5 20 22 8 14 29
5 21 9 7 33 30
4 21 22 8 9
5 6 24 23 28 13
4 23 24 27 26
5 25 26 27 32 31
4 28 29 14 13
4 30 31 32 33
4 35 34 38 39
6 41 38 34 36 42 43
6 40 39 35 37 45 44
5 43 41 40 44 47
4 34 35 37 36
5 42 36 37 45 46
4 38 39 40 41
4 42 43 47 46
4 44 45 46 47
4 49 48 52 53
4 48 49 50 51
5 52 48 51 55 56
6 54 50 49 53 57 58
4 50 51 55 54
5 56 52 53 57 59
5 54 55 56 59 58
3 57 58 59
5 62 61 60 63 64
6 60 61 65 66 75 76
6 71 72 63 60 76 77
4 62 61 65 67
5 67 62 64 68 69
6 66 70 74 71 77 75
5 63 64 68 73 72
5 67 65 66 70 69
5 68 69 70 74 73
4 71 72 73 74
3 75 76 77
6 83 79 81 64 63 85
5 78 80 79 83 84
5 73 78 80 82 68
5 84 78 73 72 86
4 80 79 81 82
4 81 64 68 82
4 84 83 85 86
4 63 85 86 72
5 87 89 35 39 93
6 91 92 88 87 93 94
4 87 88 90 89
5 90 88 92 95 96
5 90 89 35 37 96
4 91 44 40 94
5 44 91 92 95 45
4 39 93 94 40
4 37 45 95 96
7 98 99 5 4 97 76 75
5 24 99 98 100 27
6 101 32 33 97 76 77
4 33 97 4 7
5 98 100 101 77 75
4 24 99 5 6
4 32 27 100 101
6 104 106 107 110 113 112
5 102 105 104 112 115
5 102 103 111 114 115
5 105 102 103 108 109
5 107 108 103 111 110
4 105 104 106 109
4 106 107 108 109
4 111 110 113 114
4 112 113 114 115
5 116 117 119 123 120
5 116 120 121 124 125
5 117 119 118 127 126
5 118 122 121 124 127
4 117 116 125 126
4 118 119 123 122
4 120 121 122 123
4 124 125 126 127
6 128 129 130 131 132 133
6 14 29 131 130 134 15
6 8 22 133 128 136 11
6 128 129 135 19 18 136
4 129 130 134 135
4 29 131 132 20
4 132 133 22 20
4 134 15 19 135
3 136 11 18
6 39 38 137 138 140 93
5 3 2 137 38 41
6 16 3 41 40 94 139
4 2 137 138 12
5 138 12 16 139 140
4 94 139 140 93
5 60 141 142 85 63
4 60 76 97 141
5 97 141 142 30 33
6 72 86 31 32 101 71
5 31 30 142 85 86
3 101 71 77
5 146 145 143 153 152
6 144 143 145 148 156 155
5 144 149 150 154 155
4 144 143 153 149
6 148 147 151 150 154 156
4 147 146 152 151
4 145 146 147 148
5 149 150 151 152 153
3 154 155 156
5 157 159 160 164 165
6 160 161 43 42 163 164
6 158 157 159 162 47 46
5 158 46 42 163 166
4 157 158 166 165
4 162 161 43 47
4 159 160 161 162
4 163 164 165 166
5 138 137 167 168 169
5 167 137 2 5 99
5 24 99 167 168 23
5 138 12 13 28 169
4 168 169 28 23
5 146 173 170 175 145
5 171 172 170 173 174
5 175 170 172 178 179
6 171 174 147 148 176 177
4 171 172 178 177
4 173 146 147 174
5 175 145 148 176 179
4 176 177 178 179
6 180 34 35 89 183 184
4 180 181 36 34
6 182 181 36 37 96 186
5 180 181 182 185 184
5 185 182 186 188 189
4 183 89 90 187
6 187 183 184 185 189 190
6 187 90 96 186 188 190
3 188 189 190
4 192 191 110 107
5 191 192 98 75 66
5 66 191 110 111 70
5 98 192 107 108 100
6 108 100 101 71 74 103
4 74 103 111 70
5 194 193 62 64 81
5 55 193 194 195 56
5 55 193 62 67 54
5 82 81 194 195 196
6 59 196 82 68 69 58
4 195 56 59 196
4 69 67 54 58
5 117 116 197 198 199
5 128 197 116 125 129
5 126 117 199 200 201
4 197 128 136 198
5 129 125 126 201 135
6 136 198 199 200 17 18
5 200 201 135 19 17
4 203 202 204 205
5 202 203 206 208 207
5 204 202 207 179 178
5 205 203 206 210 209
5 204 205 209 177 178
5 210 206 208 155 154
6 207 208 155 156 176 179
6 209 210 154 156 176 177
5 121 213 211 216 124
6 90 88 216 211 217 187
5 212 122 118 215 214
4 122 121 213 212
5 118 215 95 92 127
8 214 212 213 211 217 190 188 218
6 214 215 95 96 186 218
5 88 216 124 127 92
3 217 187 190
3 188 186 218
5 78 102 115 219 80
6 114 115 219 196 59 57
5 73 78 102 103 74
4 80 219 196 82
6 114 111 70 69 58 57
5 168 167 192 107 106
4 98 192 167 99
5 106 168 23 26 109
5 100 108 109 26 27
5 220 183 89 87 222
5 211 221 220 222 216
5 220 183 187 217 221
3 211 221 217
4 87 222 216 88
4 193 223 61 62
5 61 223 51 50 65
4 223 193 55 51
4 50 65 67 54
5 141 224 225 226 142
5 141 97 4 0 224
4 0 224 225 10
5 225 10 9 21 226
4 226 142 30 21
6 123 119 157 165 152 153
6 215 158 166 227 228 214
5 153 123 122 212 149
5 166 165 152 151 227
5 157 158 215 118 119
4 227 151 150 228
5 212 214 228 150 149
5 1 3 41 43 161
5 162 161 1 17 200
6 200 162 47 44 91 201
6 94 91 201 135 134 139
4 139 16 15 134
5 204 229 230 232 205
5 231 230 229 172 171
4 229 204 178 172
4 231 230 232 233
5 177 171 231 233 209
4 232 205 209 233
5 53 52 234 112 113
5 234 235 219 115 112
5 235 234 52 56 195
4 235 219 196 195
4 53 57 114 113
5 191 49 53 113 110
5 49 191 66 65 50
6 213 236 208 206 221 211
6 217 221 206 210 189 190
5 213 236 144 149 212
4 236 208 155 144
7 150 154 210 189 188 218 228
3 218 214 228
5 237 222 87 93 140
7 216 222 237 130 129 125 124
5 134 130 237 140 139
5 92 91 201 126 127
5 106 104 238 169 168
6 131 238 104 105 239 132
5 105 109 26 25 239
5 29 131 238 169 28
4 25 239 132 20
5 231 171 174 241 240
5 231 240 182 185 233
5 241 174 147 151 227
7 182 240 241 227 228 218 186
5 233 185 189 210 209
3 148 156 176
5 102 78 84 239 105
5 25 239 84 86 31
5 242 83 85 142 226
6 239 84 83 242 133 132
5 21 226 242 133 22
6 241 163 42 36 181 240
4 163 166 227 241
5 215 158 46 45 95
3 181 240 182
6 224 160 159 199 198 225
5 224 0 1 161 160
4 162 159 199 200
5 198 225 10 11 136
5 238 237 140 138 169
4 130 237 238 131
6 184 183 220 203 205 232
4 206 203 220 221
4 184 185 233 232
4 230 180 184 232
5 180 230 231 240 181
4 243 194 81 79
5 243 79 80 219 235
4 194 243 235 195
5 197 242 226 225 198
4 197 128 133 242
5 173 146 152 165 164
5 241 174 173 164 163
5 145 175 244 245 143
5 244 207 208 236 245
4 207 244 175 179
4 245 143 144 236
5 157 119 117 199 159
5 120 123 153 143 245
5 213 121 120 245 236
12 0 1 2 3 4 5 6 7 8 9 10 11
12 12 13 14 15 16 6 17 18 19 20 21 22
9 23 24 25 26 27 28 29 30 31
8 32 33 34 35 36 37 38 39
11 40 41 42 43 44 45 46 47 48 49 50
9 51 52 53 54 55 46 56 57 58
10 59 25 60 61 62 63 64 65 66 67
10 68 69 70 14 71 72 73 8 74 50
9 75 76 77 78 79 80 81 82 83
8 84 85 86 87 88 89 90 91
11 92 93 94 95 15 96 97 7 98 99 100
9 101 102 103 5 104 29 105 66 106
10 107 108 70 42 109 110 111 22 58 112
9 113 114 115 116 117 118 119 120 121
9 122 123 124 125 126 127 128 30 129
9 130 131 1 132 18 104 73 133 134
9 135 136 137 119 138 139 140 141 142
11 143 144 145 146 27 63 147 148 149 150 151
10 152 153 154 155 72 45 79 156 112 157
10 158 159 160 161 162 44 38 56 163 164
10 165 166 167 95 168 88 169 170 171 11
10 172 173 174 175 176 177 178 179 121 142
13 180 181 87 182 183 62 184 185 186 150 187 188 189
11 190 77 191 53 192 193 162 194 48 157 39
9 195 196 155 69 132 19 197 81 198
8 199 200 181 61 201 148 202 203
7 204 205 206 160 43 36 207
9 208 209 3 71 16 109 210 211 212
11 213 214 215 216 182 126 217 89 120 218 219
12 220 103 221 222 4 26 127 64 171 223 99 224
8 225 226 227 228 229 176 139 230
9 231 232 233 191 37 234 235 163 83
10 236 237 35 154 194 47 235 82 207 164
12 238 239 240 115 177 241 185 242 202 219 151 243
12 244 245 60 246 169 96 247 187 223 203 106 91
10 248 249 12 250 197 251 97 80 252 134
14 253 254 255 117 229 138 256 242 147 257 218 179 258 189
12 259 260 78 54 192 250 20 110 198 156 74 49
10 261 262 260 13 263 111 57 252 212 98
12 264 145 214 125 265 28 256 186 266 67 267 243
10 268 269 221 2 270 210 128 170 271 100
10 272 273 93 246 251 105 133 21 10 224
10 274 275 239 175 201 276 257 149 188 230
7 277 278 254 228 146 276 267
7 279 280 281 161 193 55 234
9 282 283 94 168 263 17 211 271 9
8 284 285 255 216 118 265 140 129
9 286 287 288 114 178 241 141 289 258
12 290 86 124 222 167 217 184 270 65 247 266 31
8 291 292 240 116 215 183 90 289
